{
.appVersion = "1252";
copyright = "Copyright 2017 Google Inc. All Rights Reserved.";
customParameters = (
{
name = glyphOrder;
value = (
.notdef,
NULL,
CR,
space,
uni00A0,
uni10000,
uni10001,
uni10002,
uni10003,
uni10004,
uni10005,
uni10006,
uni10007,
uni10008,
uni10009,
uni1000A,
uni1000B,
uni1000D,
uni1000E,
uni1000F,
uni10010,
uni10011,
uni10012,
uni10013,
uni10014,
uni10015,
uni10016,
uni10017,
uni10018,
uni10019,
uni1001A,
uni1001B,
uni1001C,
uni1001D,
uni1001E,
uni1001F,
uni10020,
uni10021,
uni10022,
uni10023,
uni10024,
uni10025,
uni10026,
uni10028,
uni10029,
uni1002A,
uni1002B,
uni1002C,
uni1002D,
uni1002E,
uni1002F,
uni10030,
uni10031,
uni10032,
uni10033,
uni10034,
uni10035,
uni10036,
uni10037,
uni10038,
uni10039,
uni1003A,
uni1003C,
uni1003D,
uni1003F,
uni10040,
uni10041,
uni10042,
uni10043,
uni10044,
uni10045,
uni10046,
uni10047,
uni10048,
uni10049,
uni1004A,
uni1004B,
uni1004C,
uni1004D,
uni10050,
uni10051,
uni10052,
uni10053,
uni10054,
uni10055,
uni10056,
uni10057,
uni10058,
uni10059,
uni1005A,
uni1005B,
uni1005C,
uni1005D,
uni10080,
uni10081,
uni10082,
uni10083,
uni10084,
uni10085,
uni10086,
uni10087,
uni10088,
uni10089,
uni1008A,
uni1008B,
uni1008C,
uni1008D,
uni1008E,
uni1008F,
uni10090,
uni10091,
uni10092,
uni10093,
uni10094,
uni10095,
uni10096,
uni10097,
uni10098,
uni10099,
uni1009A,
uni1009B,
uni1009C,
uni1009D,
uni1009E,
uni1009F,
uni100A0,
uni100A1,
uni100A2,
uni100A3,
uni100A4,
uni100A5,
uni100A6,
uni100A7,
uni100A8,
uni100A9,
uni100AA,
uni100AB,
uni100AC,
uni100AD,
uni100AE,
uni100AF,
uni100B0,
uni100B1,
uni100B2,
uni100B3,
uni100B4,
uni100B5,
uni100B6,
uni100B7,
uni100B8,
uni100B9,
uni100BA,
uni100BB,
uni100BC,
uni100BD,
uni100BE,
uni100BF,
uni100C0,
uni100C1,
uni100C2,
uni100C3,
uni100C4,
uni100C5,
uni100C6,
uni100C7,
uni100C8,
uni100C9,
uni100CA,
uni100CB,
uni100CC,
uni100CD,
uni100CE,
uni100CF,
uni100D0,
uni100D1,
uni100D2,
uni100D3,
uni100D4,
uni100D5,
uni100D6,
uni100D7,
uni100D8,
uni100D9,
uni100DA,
uni100DB,
uni100DC,
uni100DD,

glyphs = (
{
glyphname = .notdef;
lastChange = "2019-08-21 19:20:35 +0000";
layers = (
{
layerId = UUID0;
paths = (
{
closed = 1;
nodes = (
"94 0 LINE",
"505 0 LINE",
"505 714 LINE",
"94 714 LINE"
);
},
{
closed = 1;
nodes = (
"145 663 LINE",
"454 663 LINE",
"454 51 LINE",
"145 51 LINE"
);
}
);
width = 600;
}
);
},
{
glyphname = uni10000;
lastChange = "2019-08-21 19:20:35 +0000";
layers = (
{
layerId = UUID0;
paths = (
{
closed = 1;
nodes = (
"594 800 LINE",
"524 800 LINE",
"524 608 LINE",
"169 608 LINE",
"169 800 LINE",
"99 800 LINE",
"99 330 LINE",
"169 330 LINE",
"169 545 LINE",
"311 545 LINE",
"311 0 LINE",
"381 0 LINE",
"381 545 LINE",
"524 545 LINE",
"524 330 LINE",
"594 330 LINE"
);
}
);
width = 693;
}
);
unicode = 10000;
},
{
glyphname = uni10001;
lastChange = "2019-08-21 19:20:35 +0000";
layers = (
{
layerId = UUID0;
paths = (
{
closed = 1;
nodes = (
"136 0 LINE",
"142 115 OFFCURVE",
"161 251 OFFCURVE",
"187 375 CURVE",
"520 375 LINE",
"547 250 OFFCURVE",
"566 114 OFFCURVE",
"573 0 CURVE",
"644 0 LINE",
"635 161 OFFCURVE",
"603 377 OFFCURVE",
"549 545 CURVE",
"583 545 LINE",
"583 608 LINE",
"526 608 LINE",
"480 727 OFFCURVE",
"422 810 OFFCURVE",
"354 810 CURVE SMOOTH",
"290 810 OFFCURVE",
"233 727 OFFCURVE",
"186 608 CURVE",
"130 608 LINE",
"130 545 LINE",
"164 545 LINE",
"111 380 OFFCURVE",
"75 169 OFFCURVE",
"66 0 CURVE"
);
},
{
closed = 1;
nodes = (
"476 545 LINE",
"487 512 OFFCURVE",
"497 476 OFFCURVE",
"506 438 CURVE",
"202 438 LINE",
"211 476 OFFCURVE",
"221 512 OFFCURVE",
"231 545 CURVE"
);
},
{
closed = 1;
nodes = (
"389 740 OFFCURVE",
"426 688 OFFCURVE",
"457 608 CURVE",
"251 608 LINE",
"282 688 OFFCURVE",
"319 740 OFFCURVE",
"354 740 CURVE SMOOTH"
);
}
);
width = 710;
}
);
unicode = 10001;
},
{
glyphname = uni10002;
lastChange = "2019-08-21 19:20:35 +0000";
layers = (
{
layerId = UUID0;
paths = (
{
closed = 1;
nodes = (
"347 432 LINE",
"349 456 OFFCURVE",
"350 502 OFFCURVE",
"350 545 CURVE SMOOTH",
"350 800 LINE",
"280 800 LINE",
"280 545 LINE SMOOTH",
"280 500 OFFCURVE",
"282 457 OFFCURVE",
"283 432 CURVE",
"259 432 LINE",
"251 476 OFFCURVE",
"220 556 OFFCURVE",
"186 643 CURVE SMOOTH",
"120 810 LINE",
"55 784 LINE",
"163 532 LINE SMOOTH",
"188 474 OFFCURVE",
"196 457 OFFCURVE",
"210 435 CURVE",
"207 432 LINE",
"189 434 OFFCURVE",
"174 435 OFFCURVE",
"152 435 CURVE",
"152 372 LINE",
"161 372 LINE SMOOTH",
"231 372 OFFCURVE",
"270 373 OFFCURVE",
"283 374 CURVE",
"281 349 OFFCURVE",
"280 317 OFFCURVE",
"280 274 CURVE SMOOTH",
"280 0 LINE",
"350 0 LINE",
"350 274 LINE SMOOTH",
"350 317 OFFCURVE",
"349 349 OFFCURVE",
"347 374 CURVE",
"362 373 OFFCURVE",
"400 372 OFFCURVE",
"469 372 CURVE SMOOTH",
"478 372 LINE",
"478 435 LINE",
"456 435 OFFCURVE",
"441 434 OFFCURVE",
"423 432 CURVE",
"420 435 LINE",
"434 457 OFFCURVE",
"442 474 OFFCURVE",
"467 532 CURVE SMOOTH",
"575 784 LINE",
"510 810 LINE",
"444 643 LINE SMOOTH",
"409 555 OFFCURVE",
"376 466 OFFCURVE",
"370 432 CURVE"
);
}
);
width = 630;
}
);
unicode = 10002;
},
{
glyphname = uni10003;
lastChange = "2019-08-21 19:20:35 +0000";
layers = (
{
layerId = UUID0;
paths = (
{
closed = 1;
nodes = (
"111 800 LINE",
"111 0 LINE",
"608 0 LINE",
"608 491 LINE",
"343 491 OFFCURVE",
"402 800 OFFCURVE",
"260 800 CURVE SMOOTH"
);
},
{
closed = 1;
nodes = (
"244 737 LINE",
"330 737 OFFCURVE",
"305 478 OFFCURVE",
"538 437 CURVE",
"538 63 LINE",
"178 63 LINE",
"178 737 LINE"
);
},
{
closed = 1;
nodes = (
"447 639 LINE",
"465 657 OFFCURVE",
"505 695 OFFCURVE",
"536 695 CURVE SMOOTH",
"555 695 OFFCURVE",
"569 679 OFFCURVE",
"569 662 CURVE SMOOTH",
"569 629 OFFCURVE",
"527 595 OFFCURVE",
"509 577 CURVE",
"548 541 LINE",
"579 572 OFFCURVE",
"624 625 OFFCURVE",
"624 667 CURVE SMOOTH",
"624 715 OFFCURVE",
"584 751 OFFCURVE",
"539 751 CURVE SMOOTH",
"497 751 OFFCURVE",
"440 710 OFFCURVE",
"410 680 CURVE"
);
}
);
width = 712;
}
);
unicode = 10003;
},
{
glyphname = uni10004;
lastChange = "2019-08-21 19:20:35 +0000";
layers = (
{
layerId = UUID0;
paths = (
{
closed = 1;
nodes = (
"409 397 LINE",
"397 482 LINE",
"482 482 LINE",
"482 545 LINE",
"389 545 LINE",
"363 738 LINE",
"377 737 OFFCURVE",
"392 735 OFFCURVE",
"409 732 CURVE",
"420 794 LINE",
"377 803 OFFCURVE",
"328 805 OFFCURVE",
"291 805 CURVE SMOOTH",
"169 805 OFFCURVE",
"99 725 OFFCURVE",
"99 521 CURVE SMOOTH",
"99 0 LINE",
"169 0 LINE",
"169 482 LINE",
"331 482 LINE",
"344 388 LINE"
);
},
{
closed = 1;
nodes = (
"323 545 LINE",
"169 545 LINE",
"172 699 OFFCURVE",
"214 742 OFFCURVE",
"297 742 CURVE"
);
}
);
width = 548;
}
);
unicode = 10004;
},
{
glyphname = uni10005;
lastChange = "2019-08-21 19:20:35 +0000";
layers = (
{
layerId = UUID0;
paths = (
{
closed = 1;
nodes = (
"434 468 LINE",
"181 468 LINE",
"181 800 LINE",
"111 800 LINE",
"111 0 LINE",
"181 0 LINE",
"181 405 LINE",
"434 405 LINE"
);
}
);
width = 500;
}
);
unicode = 10005;
},
{
glyphname = uni10006;
lastChange = "2019-08-21 19:20:35 +0000";
layers = (
{
layerId = UUID0;
paths = (
{
closed = 1;
nodes = (
"534 487 LINE",
"576 582 LINE SMOOTH",
"592 618 OFFCURVE",
"607 653 OFFCURVE",
"612 672 CURVE",
"615 671 LINE",
"615 651 OFFCURVE",
"616 622 OFFCURVE",
"622 581 CURVE SMOOTH",
"631 518 LINE",
"693 529 LINE",
"653 745 LINE",
"672 787 LINE",
"610 818 LINE",
"561 709 LINE SMOOTH",
"540 663 OFFCURVE",
"517 578 OFFCURVE",
"513 553 CURVE",
"509 553 LINE",
"502 581 OFFCURVE",
"475 666 OFFCURVE",
"458 710 CURVE SMOOTH",
"416 821 LINE",
"364 821 LINE",
"323 709 LINE SMOOTH",
"308 669 OFFCURVE",
"284 582 OFFCURVE",
"281 553 CURVE",
"277 553 LINE",
"272 581 OFFCURVE",
"241 663 OFFCURVE",
"220 709 CURVE SMOOTH",
"171 818 LINE",
"109 787 LINE",
"128 745 LINE",
"88 529 LINE",
"150 518 LINE",
"159 581 LINE SMOOTH",
"165 622 OFFCURVE",
"168 651 OFFCURVE",
"168 671 CURVE",
"171 672 LINE",
"176 653 OFFCURVE",
"189 619 OFFCURVE",
"205 582 CURVE SMOOTH",
"247 485 LINE",
"309 485 LINE",
"357 606 LINE SMOOTH",
"372 644 OFFCURVE",
"384 695 OFFCURVE",
"388 723 CURVE",
"392 723 LINE",
"395 695 OFFCURVE",
"411 643 OFFCURVE",
"426 604 CURVE SMOOTH",
"472 487 LINE"
);
},
{
closed = 1;
nodes = (
"210 -9 LINE",
"255 74 OFFCURVE",
"297 129 OFFCURVE",
"340 173 CURVE SMOOTH",
"367 201 OFFCURVE",
"383 221 OFFCURVE",
"389 236 CURVE",
"393 236 LINE",
"398 219 OFFCURVE",
"414 200 OFFCURVE",
"440 171 CURVE SMOOTH",
"481 126 OFFCURVE",
"527 74 OFFCURVE",
"572 -9 CURVE",
"637 23 LINE",
"575 128 OFFCURVE",
"514 196 OFFCURVE",
"440 267 CURVE",
"491 314 OFFCURVE",
"541 364 OFFCURVE",
"584 394 CURVE",
"584 457 LINE",
"198 457 LINE",
"198 394 LINE",
"240 364 OFFCURVE",
"291 314 OFFCURVE",
"342 267 CURVE",
"268 196 OFFCURVE",
"206 128 OFFCURVE",
"145 23 CURVE"
);
},
{
closed = 1;
nodes = (
"389 296 LINE",
"382 309 OFFCURVE",
"370 324 OFFCURVE",
"346 346 CURVE SMOOTH",
"326 365 OFFCURVE",
"296 392 OFFCURVE",
"279 396 CURVE",
"279 402 LINE",
"287 401 OFFCURVE",
"311 399 OFFCURVE",
"336 399 CURVE SMOOTH",
"446 399 LINE SMOOTH",
"471 399 OFFCURVE",
"495 401 OFFCURVE",
"503 402 CURVE",
"503 396 LINE",
"487 392 OFFCURVE",
"457 365 OFFCURVE",
"436 347 CURVE SMOOTH",
"408 322 OFFCURVE",
"399 308 OFFCURVE",
"393 296 CURVE"
);
}
);
width = 781;
}
);
unicode = 10006;
},
{
glyphname = uni10007;
lastChange = "2019-08-21 19:20:35 +0000";
layers = (
{
layerId = UUID0;
paths = (
{
closed = 1;
nodes = (
"594 800 LINE",
"99 800 LINE",
"99 737 LINE",
"594 737 LINE"
);
},
{
closed = 1;
nodes = (
"381 355 LINE",
"311 355 LINE",
"311 0 LINE",
"381 0 LINE"
);
},
{
closed = 1;
nodes = (
"169 680 LINE",
"99 680 LINE",
"99 410 LINE",
"169 410 LINE"
);
},
{
closed = 1;
nodes = (
"524 680 LINE",
"524 410 LINE",
"594 410 LINE",
"594 680 LINE"
);
},
{
closed = 1;
nodes = (
"381 680 LINE",
"311 680 LINE",
"311 410 LINE",
"381 410 LINE"
);
}
);
width = 693;
}
);
unicode = 10007;
},
{
glyphname = uni10008;
lastChange = "2019-08-21 19:20:35 +0000";
layers = (
{
layerId = UUID0;
paths = (
{
closed = 1;
nodes = (
"250 810 LINE",
"216 712 OFFCURVE",
"88 701 OFFCURVE",
"88 599 CURVE SMOOTH",
"88 489 OFFCURVE",
"240 495 OFFCURVE",
"240 390 CURVE SMOOTH",
"240 0 LINE",
"310 0 LINE",
"310 390 LINE SMOOTH",
"310 527 OFFCURVE",
"156 537 OFFCURVE",
"156 605 CURVE SMOOTH",
"156 676 OFFCURVE",
"279 686 OFFCURVE",
"314 789 CURVE"
);
},
{
closed = 1;
nodes = (
"486 529 LINE",
"429 534 OFFCURVE",
"399 541 OFFCURVE",
"399 561 CURVE SMOOTH",
"399 598 OFFCURVE",
"480 621 OFFCURVE",
"480 684 CURVE SMOOTH",
"480 735 OFFCURVE",
"445 765 OFFCURVE",
"345 780 CURVE",
"329 720 LINE",
"388 714 OFFCURVE",
"414 700 OFFCURVE",
"414 674 CURVE SMOOTH",
"414 643 OFFCURVE",
"332 607 OFFCURVE",
"332 545 CURVE SMOOTH",
"332 503 OFFCURVE",
"360 473 OFFCURVE",
"473 469 CURVE"
);
}
);
width = 552;
}
);
unicode = 10008;
},
{
glyphname = uni10009;
lastChange = "2019-08-21 19:20:35 +0000";
layers = (
{
layerId = UUID0;
paths = (
{
closed = 1;
nodes = (
"545 811 LINE",
"541 791 OFFCURVE",
"535 755 OFFCURVE",
"535 703 CURVE SMOOTH",
"535 675 OFFCURVE",
"535 643 OFFCURVE",
"540 608 CURVE",
"154 608 LINE",
"161 642 OFFCURVE",
"162 673 OFFCURVE",
"162 701 CURVE SMOOTH",
"162 755 OFFCURVE",
"153 789 OFFCURVE",
"147 811 CURVE",
"77 800 LINE",
"82 783 OFFCURVE",
"93 742 OFFCURVE",
"93 675 CURVE SMOOTH",
"93 639 OFFCURVE",
"89 595 OFFCURVE",
"80 545 CURVE",
"148 545 LINE",
"155 511 OFFCURVE",
"158 480 OFFCURVE",
"158 451 CURVE SMOOTH",
"158 334 OFFCURVE",
"95 235 OFFCURVE",
"95 131 CURVE SMOOTH",
"95 86 OFFCURVE",
"107 39 OFFCURVE",
"142 -10 CURVE",
"202 21 LINE",
"169 69 OFFCURVE",
"163 101 OFFCURVE",
"163 156 CURVE SMOOTH",
"163 257 OFFCURVE",
"227 351 OFFCURVE",
"227 474 CURVE SMOOTH",
"227 496 OFFCURVE",
"225 520 OFFCURVE",
"221 545 CURVE",
"310 545 LINE",
"317 511 OFFCURVE",
"320 480 OFFCURVE",
"320 451 CURVE SMOOTH",
"320 357 OFFCURVE",
"289 247 OFFCURVE",
"289 162 CURVE SMOOTH",
"289 111 OFFCURVE",
"300 56 OFFCURVE",
"334 -10 CURVE",
"398 21 LINE",
"366 85 OFFCURVE",
"358 138 OFFCURVE",
"358 187 CURVE SMOOTH",
"358 271 OFFCURVE",
"389 372 OFFCURVE",
"389 474 CURVE SMOOTH",
"389 496 OFFCURVE",
"387 520 OFFCURVE",
"383 545 CURVE",
"470 545 LINE",
"477 511 OFFCURVE",
"480 480 OFFCURVE",
"480 451 CURVE SMOOTH",
"480 264 OFFCURVE",
"502 159 OFFCURVE",
"574 -10 CURVE",
"638 21 LINE",
"575 185 OFFCURVE",
"549 274 OFFCURVE",
"549 474 CURVE SMOOTH",
"549 496 OFFCURVE",
"547 520 OFFCURVE",
"543 545 CURVE",
"615 545 LINE",
"606 598 OFFCURVE",
"603 644 OFFCURVE",
"603 682 CURVE SMOOTH",
"603 744 OFFCURVE",
"610 777 OFFCURVE",
"615 800 CURVE"
);
}
);
width = 704;
}
);
unicode = 10009;
},
{
glyphname = uni1000A;
lastChange = "2019-08-21 19:20:35 +0000";
layers = (
{
layerId = UUID0;
paths = (
{
closed = 1;
nodes = (
"111 800 LINE",
"111 0 LINE",
"558 0 LINE",
"558 800 LINE"
);
},
{
closed = 1;
nodes = (
"178 545 LINE",
"488 545 LINE",
"488 256 LINE",
"178 256 LINE"
);
},
{
closed = 1;
nodes = (
"178 63 LINE",
"178 193 LINE",
"488 193 LINE",
"488 63 LINE"
);
},
{
closed = 1;
nodes = (
"178 737 LINE",
"488 737 LINE",
"488 608 LINE",
"178 608 LINE"
);
}
);
width = 669;
}
);
unicode = 1000A;
},
{
glyphname = uni1000B;
lastChange = "2019-08-21 19:20:35 +0000";
layers = (
{
layerId = UUID0;
paths = (
{
closed = 1;
nodes = (
"146 819 LINE",
"87 783 LINE",
"267 505 LINE SMOOTH",
"303 450 OFFCURVE",
"315 435 OFFCURVE",
"337 404 CURVE",
"318 379 OFFCURVE",
"300 354 OFFCURVE",
"260 293 CURVE SMOOTH",
"87 26 LINE",
"146 -10 LINE",
"321 261 LINE SMOOTH",
"362 324 OFFCURVE",
"372 346 OFFCURVE",
"373 347 CURVE",
"374 344 OFFCURVE",
"386 320 OFFCURVE",
"420 268 CURVE SMOOTH",
"601 -10 LINE",
"660 26 LINE",
"482 299 LINE SMOOTH",
"444 357 OFFCURVE",
"421 388 OFFCURVE",
"409 404 CURVE",
"427 429 OFFCURVE",
"448 455 OFFCURVE",
"480 505 CURVE SMOOTH",
"660 783 LINE",
"601 819 LINE",
"421 541 LINE SMOOTH",
"383 482 OFFCURVE",
"374 463 OFFCURVE",
"373 461 CURVE",
"371 464 OFFCURVE",
"362 486 OFFCURVE",
"322 547 CURVE SMOOTH"
);
},
{
closed = 1;
nodes = (
"680 409 LINE",
"639 631 LINE",
"577 619 LINE",
"618 398 LINE"
);
},
{
closed = 1;
nodes = (
"128 398 LINE",
"169 619 LINE",
"107 631 LINE",
"66 409 LINE"
);
}
);
width = 746;
}
);
unicode = 1000B;
},
{
glyphname = uni1000D;
lastChange = "2019-08-21 19:20:35 +0000";
layers = (
{
layerId = UUID0;
paths = (
{
closed = 1;
nodes = (
"571 800 LINE",
"77 800 LINE",
"77 542 LINE",
"125 529 LINE",
"144 571 OFFCURVE",
"183 596 OFFCURVE",
"232 596 CURVE SMOOTH",
"274 596 OFFCURVE",
"294 562 OFFCURVE",
"294 528 CURVE SMOOTH",
"294 437 OFFCURVE",
"180 394 OFFCURVE",
"180 270 CURVE SMOOTH",
"180 195 OFFCURVE",
"214 93 OFFCURVE",
"271 0 CURVE",
"353 0 LINE",
"287 94 OFFCURVE",
"250 212 OFFCURVE",
"250 278 CURVE SMOOTH",
"250 368 OFFCURVE",
"364 438 OFFCURVE",
"364 535 CURVE SMOOTH",
"364 611 OFFCURVE",
"320 662 OFFCURVE",
"235 662 CURVE SMOOTH",
"199 662 OFFCURVE",
"166 648 OFFCURVE",
"147 630 CURVE",
"147 730 LINE",
"571 730 LINE"
);
}
);
width = 626;
}
);
unicode = 1000D;
},
{
glyphname = uni1000E;
lastChange = "2019-08-21 19:20:35 +0000";
layers = (
{
layerId = UUID0;
paths = (
{
closed = 1;
nodes = (
"55 732 LINE",
"79 738 OFFCURVE",
"104 742 OFFCURVE",
"141 742 CURVE SMOOTH",
"199 742 OFFCURVE",
"225 718 OFFCURVE",
"225 607 CURVE SMOOTH",
"225 0 LINE",
"295 0 LINE",
"295 395 LINE",
"422 395 LINE",
"422 0 LINE",
"492 0 LINE",
"492 395 LINE",
"630 395 LINE",
"630 0 LINE",
"697 0 LINE",
"697 395 LINE",
"827 395 LINE",
"827 0 LINE",
"894 0 LINE",
"894 458 LINE",
"697 458 LINE",
"697 595 LINE",
"630 595 LINE",
"630 458 LINE",
"295 458 LINE",
"295 607 LINE SMOOTH",
"295 755 OFFCURVE",
"252 805 OFFCURVE",
"142 805 CURVE SMOOTH",
"104 805 OFFCURVE",
"73 800 OFFCURVE",
"44 794 CURVE"
);
}
);
width = 982;
}
);
unicode = 1000E;
},
{
glyphname = uni1000F;
lastChange = "2019-08-21 19:20:35 +0000";
layers = (
{
layerId = UUID0;
paths = (
{
closed = 1;
nodes = (
"66 206 OFFCURVE",
"221 51 OFFCURVE",
"413 51 CURVE SMOOTH",
"604 51 OFFCURVE",
"759 206 OFFCURVE",
"759 397 CURVE SMOOTH",
"759 588 OFFCURVE",
"604 743 OFFCURVE",
"413 743 CURVE SMOOTH",
"221 743 OFFCURVE",
"66 588 OFFCURVE",
"66 397 CURVE SMOOTH"
);
},
{
closed = 1;
nodes = (
"442 367 LINE",
"687 367 LINE",
"673 238 OFFCURVE",
"570 131 OFFCURVE",
"442 117 CURVE"
);
},
{
closed = 1;
nodes = (
"442 430 LINE",
"442 676 LINE",
"569 662 OFFCURVE",
"672 557 OFFCURVE",
"687 430 CURVE"
);
},
{
closed = 1;
nodes = (
"378 367 LINE",
"378 118 LINE",
"251 134 OFFCURVE",
"151 240 OFFCURVE",
"137 367 CURVE"
);
},
{
closed = 1;
nodes = (
"378 430 LINE",
"138 430 LINE",
"153 556 OFFCURVE",
"252 659 OFFCURVE",
"378 676 CURVE"
);
}
);
width = 825;
}
);
unicode = 1000F;
},
{
glyphname = uni10010;
lastChange = "2019-08-21 19:20:35 +0000";
layers = (
{
layerId = UUID0;
paths = (
{
closed = 1;
nodes = (
"142 457 LINE",
"142 394 LINE",
"240 394 LINE SMOOTH",
"280 394 OFFCURVE",
"328 401 OFFCURVE",
"338 403 CURVE",
"340 400 LINE",
"283 286 OFFCURVE",
"231 156 OFFCURVE",
"183 11 CURVE",
"250 -10 LINE",
"286 109 OFFCURVE",
"323 211 OFFCURVE",
"364 305 CURVE SMOOTH",
"371 322 OFFCURVE",
"380 357 OFFCURVE",
"384 387 CURVE",
"388 387 LINE",
"393 357 OFFCURVE",
"402 320 OFFCURVE",
"408 307 CURVE SMOOTH",
"450 212 OFFCURVE",
"489 109 OFFCURVE",
"528 -10 CURVE",
"593 11 LINE",
"545 151 OFFCURVE",
"496 281 OFFCURVE",
"435 397 CURVE",
"436 400 LINE",
"454 399 OFFCURVE",
"497 394 OFFCURVE",
"540 394 CURVE SMOOTH",
"625 394 LINE",
"625 457 LINE"
);
},
{
closed = 1;
nodes = (
"422 154 LINE",
"352 154 LINE",
"352 0 LINE",
"422 0 LINE"
);
},
{
closed = 1;
nodes = (
"534 487 LINE",
"576 582 LINE SMOOTH",
"592 618 OFFCURVE",
"607 653 OFFCURVE",
"612 672 CURVE",
"615 671 LINE",
"615 651 OFFCURVE",
"616 622 OFFCURVE",
"622 581 CURVE SMOOTH",
"631 518 LINE",
"693 529 LINE",
"653 745 LINE",
"672 787 LINE",
"610 818 LINE",
"561 709 LINE SMOOTH",
"540 663 OFFCURVE",
"517 578 OFFCURVE",
"513 553 CURVE",
"509 553 LINE",
"502 581 OFFCURVE",
"475 666 OFFCURVE",
"458 710 CURVE SMOOTH",
"416 821 LINE",
"364 821 LINE",
"323 709 LINE SMOOTH",
"308 669 OFFCURVE",
"284 582 OFFCURVE",
"281 553 CURVE",
"277 553 LINE",
"272 581 OFFCURVE",
"241 663 OFFCURVE",
"220 709 CURVE SMOOTH",
"171 818 LINE",
"109 787 LINE",
"128 745 LINE",
"88 529 LINE",
"150 518 LINE",
"159 581 LINE SMOOTH",
"165 622 OFFCURVE",
"168 651 OFFCURVE",
"168 671 CURVE",
"171 672 LINE",
"176 653 OFFCURVE",
"189 619 OFFCURVE",
"205 582 CURVE SMOOTH",
"247 485 LINE",
"309 485 LINE",
"357 606 LINE SMOOTH",
"372 644 OFFCURVE",
"384 695 OFFCURVE",
"388 723 CURVE",
"392 723 LINE",
"395 695 OFFCURVE",
"411 643 OFFCURVE",
"426 604 CURVE SMOOTH",
"472 487 LINE"
);
}
);
width = 781;
}
);
unicode = 10010;
},
{
glyphname = uni10011;
lastChange = "2019-08-21 19:20:35 +0000";
layers = (
{
layerId = UUID0;
paths = (
{
closed = 1;
nodes = (
"453 54 LINE",
"453 77 OFFCURVE",
"446 145 OFFCURVE",
"433 188 CURVE SMOOTH",
"329 545 LINE",
"580 545 LINE",
"477 187 LINE SMOOTH",
"464 143 OFFCURVE",
"457 77 OFFCURVE",
"457 54 CURVE"
);
},
{
closed = 1;
nodes = (
"218 742 OFFCURVE",
"238 700 OFFCURVE",
"238 662 CURVE SMOOTH",
"238 642 OFFCURVE",
"222 627 OFFCURVE",
"204 627 CURVE SMOOTH",
"169 627 OFFCURVE",
"123 648 OFFCURVE",
"123 700 CURVE SMOOTH",
"123 724 OFFCURVE",
"144 742 OFFCURVE",
"166 742 CURVE SMOOTH"
);
},
{
closed = 1;
nodes = (
"272 637 LINE",
"276 652 OFFCURVE",
"280 675 OFFCURVE",
"280 688 CURVE SMOOTH",
"280 747 OFFCURVE",
"239 809 OFFCURVE",
"169 809 CURVE SMOOTH",
"99 809 OFFCURVE",
"55 764 OFFCURVE",
"55 697 CURVE SMOOTH",
"55 630 OFFCURVE",
"123 585 OFFCURVE",
"178 585 CURVE SMOOTH",
"200 585 OFFCURVE",
"213 591 OFFCURVE",
"231 600 CURVE",
"234 597 LINE",
"110 483 LINE",
"160 434 LINE",
"219 494 OFFCURVE",
"244 540 OFFCURVE",
"254 555 CURVE",
"403 63 LINE",
"308 63 LINE",
"308 0 LINE",
"602 0 LINE",
"602 63 LINE",
"507 63 LINE",
"654 545 LINE",
"654 608 LINE",
"311 608 LINE",
"330 621 OFFCURVE",
"373 647 OFFCURVE",
"419 693 CURVE",
"370 743 LINE",
"275 634 LINE"
);
}
);
width = 731;
}
);
unicode = 10011;
},
{
glyphname = uni10012;
lastChange = "2019-08-21 19:20:35 +0000";
layers = (
{
layerId = UUID0;
paths = (
{
closed = 1;
nodes = (
"576 732 OFFCURVE",
"437 810 OFFCURVE",
"323 810 CURVE SMOOTH",
"209 810 OFFCURVE",
"66 732 OFFCURVE",
"66 598 CURVE SMOOTH",
"66 487 OFFCURVE",
"161 421 OFFCURVE",
"212 413 CURVE",
"232 42 OFFCURVE",
"250 -10 OFFCURVE",
"319 -10 CURVE SMOOTH",
"388 -10 OFFCURVE",
"396 44 OFFCURVE",
"421 409 CURVE",
"477 419 OFFCURVE",
"576 485 OFFCURVE",
"576 598 CURVE SMOOTH"
);
},
{
closed = 1;
nodes = (
"204 670 LINE",
"211 469 LINE",
"164 483 OFFCURVE",
"136 540 OFFCURVE",
"136 598 CURVE SMOOTH",
"136 698 OFFCURVE",
"232 747 OFFCURVE",
"323 747 CURVE SMOOTH",
"414 747 OFFCURVE",
"506 698 OFFCURVE",
"506 598 CURVE SMOOTH",
"506 536 OFFCURVE",
"470 483 OFFCURVE",
"425 469 CURVE",
"434 670 LINE",
"371 670 LINE",
"351 90 OFFCURVE",
"342 48 OFFCURVE",
"319 48 CURVE SMOOTH",
"294 48 OFFCURVE",
"279 90 OFFCURVE",
"268 670 CURVE"
);
}
);
width = 642;
}
);
unicode = 10012;
},
{
glyphname = uni10013;
lastChange = "2019-08-21 19:20:35 +0000";
layers = (
{
layerId = UUID0;
paths = (
{
closed = 1;
nodes = (
"539 373 OFFCURVE",
"567 365 OFFCURVE",
"567 335 CURVE SMOOTH",
"567 306 OFFCURVE",
"511 293 OFFCURVE",
"511 241 CURVE SMOOTH",
"511 204 LINE",
"575 204 LINE",
"575 241 LINE SMOOTH",
"575 279 OFFCURVE",
"635 280 OFFCURVE",
"635 344 CURVE SMOOTH",
"635 401 OFFCURVE",
"576 432 OFFCURVE",
"505 432 CURVE SMOOTH",
"490 432 OFFCURVE",
"476 431 OFFCURVE",
"463 431 CURVE",
"456 602 OFFCURVE",
"372 765 OFFCURVE",
"212 814 CURVE",
"185 754 LINE",
"323 708 OFFCURVE",
"389 577 OFFCURVE",
"394 424 CURVE",
"304 410 OFFCURVE",
"254 383 OFFCURVE",
"210 383 CURVE SMOOTH",
"174 383 OFFCURVE",
"145 396 OFFCURVE",
"145 437 CURVE SMOOTH",
"145 474 OFFCURVE",
"177 491 OFFCURVE",
"210 491 CURVE",
"208 550 LINE",
"135 550 OFFCURVE",
"77 506 OFFCURVE",
"77 437 CURVE SMOOTH",
"77 361 OFFCURVE",
"135 325 OFFCURVE",
"194 325 CURVE SMOOTH",
"258 325 OFFCURVE",
"305 351 OFFCURVE",
"392 364 CURVE",
"379 222 OFFCURVE",
"301 97 OFFCURVE",
"195 46 CURVE",
"230 -10 LINE",
"358 49 OFFCURVE",
"451 212 OFFCURVE",
"463 372 CURVE",
"475 372 OFFCURVE",
"488 373 OFFCURVE",
"502 373 CURVE SMOOTH"
);
},
{
closed = 1;
nodes = (
"511 153 LINE",
"511 0 LINE",
"575 0 LINE",
"575 153 LINE"
);
}
);
width = 723;
}
);
unicode = 10013;
},
{
glyphname = uni10014;
lastChange = "2019-08-21 19:20:35 +0000";
layers = (
{
layerId = UUID0;
paths = (
{
closed = 1;
nodes = (
"190 811 LINE",
"128 780 LINE",
"141 755 LINE",
"120 669 OFFCURVE",
"98 561 OFFCURVE",
"98 481 CURVE SMOOTH",
"98 385 OFFCURVE",
"130 269 OFFCURVE",
"149 211 CURVE",
"125 194 OFFCURVE",
"108 169 OFFCURVE",
"108 138 CURVE SMOOTH",
"108 76 OFFCURVE",
"154 33 OFFCURVE",
"228 21 CURVE",
"241 81 LINE",
"200 86 OFFCURVE",
"173 106 OFFCURVE",
"173 135 CURVE SMOOTH",
"173 167 OFFCURVE",
"202 180 OFFCURVE",
"247 180 CURVE",
"256 231 LINE",
"242 233 OFFCURVE",
"229 234 OFFCURVE",
"224 234 CURVE SMOOTH",
"215 234 OFFCURVE",
"207 233 OFFCURVE",
"198 231 CURVE",
"188 267 OFFCURVE",
"164 372 OFFCURVE",
"164 481 CURVE SMOOTH",
"164 519 OFFCURVE",
"167 563 OFFCURVE",
"172 607 CURVE SMOOTH",
"175 629 OFFCURVE",
"178 662 OFFCURVE",
"178 687 CURVE",
"182 687 LINE",
"341 377 LINE",
"341 0 LINE",
"411 0 LINE",
"411 379 LINE",
"563 677 LINE",
"567 677 LINE",
"567 652 OFFCURVE",
"572 614 OFFCURVE",
"575 595 CURVE SMOOTH",
"580 562 OFFCURVE",
"584 519 OFFCURVE",
"584 481 CURVE SMOOTH",
"584 370 OFFCURVE",
"559 265 OFFCURVE",
"550 231 CURVE",
"542 233 OFFCURVE",
"533 234 OFFCURVE",
"525 234 CURVE SMOOTH",
"520 234 OFFCURVE",
"506 233 OFFCURVE",
"493 231 CURVE",
"501 180 LINE",
"543 180 OFFCURVE",
"575 167 OFFCURVE",
"575 135 CURVE SMOOTH",
"575 106 OFFCURVE",
"549 86 OFFCURVE",
"508 81 CURVE",
"521 21 LINE",
"593 33 OFFCURVE",
"641 76 OFFCURVE",
"641 138 CURVE SMOOTH",
"641 170 OFFCURVE",
"623 195 OFFCURVE",
"599 211 CURVE",
"618 270 OFFCURVE",
"651 385 OFFCURVE",
"651 481 CURVE SMOOTH",
"651 563 OFFCURVE",
"628 672 OFFCURVE",
"608 752 CURVE",
"623 780 LINE",
"561 811 LINE",
"481 650 LINE SMOOTH",
"392 471 OFFCURVE",
"378 441 OFFCURVE",
"378 410 CURVE",
"374 410 LINE",
"374 441 OFFCURVE",
"359 472 OFFCURVE",
"270 650 CURVE SMOOTH"
);
}
);
width = 749;
}
);
unicode = 10014;
},
{
glyphname = uni10015;
lastChange = "2019-08-21 19:20:35 +0000";
layers = (
{
layerId = UUID0;
paths = (
{
closed = 1;
nodes = (
"556 416 LINE",
"612 406 LINE",
"618 477 LINE",
"629 477 OFFCURVE",
"648 478 OFFCURVE",
"658 479 CURVE",
"642 416 LINE",
"698 406 LINE",
"706 486 LINE",
"728 491 OFFCURVE",
"753 499 OFFCURVE",
"771 505 CURVE",
"752 561 LINE",
"741 556 OFFCURVE",
"727 550 OFFCURVE",
"716 547 CURVE",
"731 606 LINE",
"677 614 LINE",
"668 538 LINE",
"648 535 OFFCURVE",
"641 535 OFFCURVE",
"628 535 CURVE",
"645 606 LINE",
"591 614 LINE",
"583 538 LINE",
"560 542 OFFCURVE",
"546 560 OFFCURVE",
"546 582 CURVE SMOOTH",
"546 635 OFFCURVE",
"600 656 OFFCURVE",
"600 716 CURVE SMOOTH",
"600 773 OFFCURVE",
"562 805 OFFCURVE",
"489 805 CURVE SMOOTH",
"426 805 OFFCURVE",
"380 748 OFFCURVE",
"372 668 CURVE",
"368 668 LINE",
"354 748 OFFCURVE",
"313 805 OFFCURVE",
"215 805 CURVE SMOOTH",
"167 805 OFFCURVE",
"109 802 OFFCURVE",
"66 791 CURVE",
"77 732 LINE",
"122 738 LINE",
"172 388 LINE",
"240 397 LINE",
"235 428 OFFCURVE",
"231 449 OFFCURVE",
"222 482 CURVE",
"337 482 LINE",
"337 0 LINE",
"407 0 LINE",
"407 521 LINE SMOOTH",
"407 687 OFFCURVE",
"430 742 OFFCURVE",
"489 742 CURVE SMOOTH",
"514 742 OFFCURVE",
"534 735 OFFCURVE",
"534 711 CURVE SMOOTH",
"534 673 OFFCURVE",
"485 651 OFFCURVE",
"485 582 CURVE SMOOTH",
"485 536 OFFCURVE",
"521 493 OFFCURVE",
"572 480 CURVE"
);
},
{
closed = 1;
nodes = (
"215 742 LINE SMOOTH",
"292 742 OFFCURVE",
"334 689 OFFCURVE",
"338 545 CURVE",
"215 545 LINE",
"197 667 LINE SMOOTH",
"192 704 OFFCURVE",
"190 716 OFFCURVE",
"182 742 CURVE"
);
}
);
width = 815;
}
);
unicode = 10015;
},
{
glyphname = uni10016;
lastChange = "2019-08-21 19:20:35 +0000";
layers = (
{
layerId = UUID0;
paths = (
{
closed = 1;
nodes = (
"534 810 LINE",
"480 768 OFFCURVE",
"462 740 OFFCURVE",
"462 684 CURVE SMOOTH",
"462 615 OFFCURVE",
"527 599 OFFCURVE",
"527 566 CURVE SMOOTH",
"527 549 OFFCURVE",
"504 521 OFFCURVE",
"472 476 CURVE SMOOTH",
"269 191 LINE SMOOTH",
"235 143 OFFCURVE",
"219 111 OFFCURVE",
"206 76 CURVE",
"203 77 LINE",
"210 111 OFFCURVE",
"213 185 OFFCURVE",
"213 282 CURVE SMOOTH",
"213 691 LINE SMOOTH",
"213 781 OFFCURVE",
"176 803 OFFCURVE",
"96 809 CURVE",
"88 741 LINE",
"134 736 OFFCURVE",
"143 724 OFFCURVE",
"143 689 CURVE SMOOTH",
"143 0 LINE",
"212 0 LINE",
"532 446 LINE SMOOTH",
"575 506 OFFCURVE",
"597 541 OFFCURVE",
"597 577 CURVE SMOOTH",
"597 631 OFFCURVE",
"532 646 OFFCURVE",
"532 685 CURVE SMOOTH",
"532 713 OFFCURVE",
"544 734 OFFCURVE",
"582 760 CURVE"
);
}
);
width = 641;
}
);
unicode = 10016;
},
{
glyphname = uni10017;
lastChange = "2019-08-21 19:20:35 +0000";
layers = (
{
layerId = UUID0;
paths = (
{
closed = 1;
nodes = (
"234 470 OFFCURVE",
"279 494 OFFCURVE",
"308 529 CURVE",
"370 490 OFFCURVE",
"382 427 OFFCURVE",
"382 317 CURVE SMOOTH",
"382 0 LINE",
"452 0 LINE",
"452 317 LINE SMOOTH",
"452 428 OFFCURVE",
"444 522 OFFCURVE",
"367 555 CURVE",
"370 559 LINE",
"432 559 OFFCURVE",
"462 568 OFFCURVE",
"551 640 CURVE",
"514 700 LINE",
"424 634 OFFCURVE",
"384 607 OFFCURVE",
"343 596 CURVE",
"347 610 OFFCURVE",
"349 624 OFFCURVE",
"349 639 CURVE SMOOTH",
"349 742 OFFCURVE",
"252 792 OFFCURVE",
"190 805 CURVE",
"166 746 LINE",
"215 738 OFFCURVE",
"287 698 OFFCURVE",
"287 642 CURVE SMOOTH",
"287 632 OFFCURVE",
"286 619 OFFCURVE",
"284 609 CURVE",
"145 695 LINE",
"114 641 LINE",
"258 562 LINE",
"242 535 OFFCURVE",
"212 528 OFFCURVE",
"181 528 CURVE SMOOTH",
"140 528 OFFCURVE",
"102 561 OFFCURVE",
"81 583 CURVE",
"44 536 LINE",
"79 496 OFFCURVE",
"129 470 OFFCURVE",
"182 470 CURVE SMOOTH"
);
}
);
width = 606;
}
);
unicode = 10017;
},
{
glyphname = uni10018;
lastChange = "2019-08-21 19:20:35 +0000";
layers = (
{
layerId = UUID0;
paths = (
{
closed = 1;
nodes = (
"698 392 LINE",
"636 392 LINE",
"636 737 LINE",
"734 737 LINE",
"734 800 LINE",
"566 800 LINE",
"566 608 LINE",
"309 608 LINE",
"309 640 LINE SMOOTH",
"309 783 OFFCURVE",
"255 810 OFFCURVE",
"193 810 CURVE SMOOTH",
"127 810 OFFCURVE",
"88 761 OFFCURVE",
"88 696 CURVE SMOOTH",
"88 600 OFFCURVE",
"162 545 OFFCURVE",
"239 545 CURVE",
"239 0 LINE",
"309 0 LINE",
"309 545 LINE",
"566 545 LINE",
"566 392 LINE",
"506 392 LINE",
"506 329 LINE",
"698 329 LINE"
);
},
{
closed = 1;
nodes = (
"153 737 OFFCURVE",
"176 748 OFFCURVE",
"196 748 CURVE SMOOTH",
"217 748 OFFCURVE",
"239 726 OFFCURVE",
"239 640 CURVE SMOOTH",
"239 608 LINE",
"196 608 OFFCURVE",
"153 632 OFFCURVE",
"153 689 CURVE SMOOTH"
);
}
);
width = 800;
}
);
unicode = 10018;
},
{
glyphname = uni10019;
lastChange = "2019-08-21 19:20:35 +0000";
layers = (
{
layerId = UUID0;
paths = (
{
closed = 1;
nodes = (
"289 346 LINE",
"286 362 OFFCURVE",
"264 415 OFFCURVE",
"246 450 CURVE SMOOTH",
"199 540 LINE",
"137 509 LINE",
"259 281 LINE",
"258 265 OFFCURVE",
"257 243 OFFCURVE",
"257 213 CURVE SMOOTH",
"257 0 LINE",
"327 0 LINE",
"327 216 LINE SMOOTH",
"327 245 OFFCURVE",
"326 266 OFFCURVE",
"325 282 CURVE",
"444 510 LINE",
"382 541 LINE",
"336 451 LINE SMOOTH",
"316 412 OFFCURVE",
"296 362 OFFCURVE",
"293 346 CURVE"
);
},
{
closed = 1;
nodes = (
"501 671 LINE",
"88 671 LINE",
"88 608 LINE",
"501 608 LINE"
);
},
{
closed = 1;
nodes = (
"501 800 LINE",
"88 800 LINE",
"88 737 LINE",
"501 737 LINE"
);
}
);
width = 589;
}
);
unicode = 10019;
},
{
glyphname = uni1001A;
lastChange = "2019-08-21 19:20:35 +0000";
layers = (
{
layerId = UUID0;
paths = (
{
closed = 1;
nodes = (
"631 675 OFFCURVE",
"589 690 OFFCURVE",
"589 723 CURVE SMOOTH",
"589 741 OFFCURVE",
"597 751 OFFCURVE",
"647 751 CURVE",
"639 809 LINE",
"559 803 OFFCURVE",
"519 780 OFFCURVE",
"519 725 CURVE SMOOTH",
"519 667 OFFCURVE",
"562 649 OFFCURVE",
"562 612 CURVE SMOOTH",
"562 581 OFFCURVE",
"541 556 OFFCURVE",
"487 556 CURVE SMOOTH",
"438 556 OFFCURVE",
"410 569 OFFCURVE",
"386 585 CURVE",
"388 610 OFFCURVE",
"390 630 OFFCURVE",
"390 653 CURVE SMOOTH",
"390 737 LINE",
"441 737 LINE",
"441 800 LINE",
"267 800 LINE",
"267 737 LINE",
"320 737 LINE",
"320 653 LINE SMOOTH",
"320 630 OFFCURVE",
"322 609 OFFCURVE",
"324 585 CURVE",
"299 569 OFFCURVE",
"269 556 OFFCURVE",
"221 556 CURVE SMOOTH",
"167 556 OFFCURVE",
"146 581 OFFCURVE",
"146 612 CURVE SMOOTH",
"146 649 OFFCURVE",
"191 667 OFFCURVE",
"191 725 CURVE SMOOTH",
"191 780 OFFCURVE",
"154 803 OFFCURVE",
"74 809 CURVE",
"66 751 LINE",
"116 751 OFFCURVE",
"124 741 OFFCURVE",
"124 723 CURVE SMOOTH",
"124 690 OFFCURVE",
"82 675 OFFCURVE",
"82 609 CURVE SMOOTH",
"82 544 OFFCURVE",
"140 495 OFFCURVE",
"220 495 CURVE SMOOTH",
"262 495 OFFCURVE",
"301 507 OFFCURVE",
"322 537 CURVE",
"325 535 LINE",
"322 501 OFFCURVE",
"320 496 OFFCURVE",
"320 433 CURVE SMOOTH",
"320 0 LINE",
"390 0 LINE",
"390 433 LINE SMOOTH",
"390 497 OFFCURVE",
"386 518 OFFCURVE",
"385 534 CURVE",
"388 536 LINE",
"412 506 OFFCURVE",
"445 495 OFFCURVE",
"490 495 CURVE SMOOTH",
"570 495 OFFCURVE",
"631 544 OFFCURVE",
"631 609 CURVE SMOOTH"
);
}
);
width = 713;
}
);
unicode = 1001A;
},
{
glyphname = uni1001B;
lastChange = "2019-08-21 19:20:35 +0000";
layers = (
{
layerId = UUID0;
paths = (
{
closed = 1;
nodes = (
"322 440 LINE",
"320 455 OFFCURVE",
"304 495 OFFCURVE",
"281 539 CURVE SMOOTH",
"260 579 LINE SMOOTH",
"239 619 OFFCURVE",
"226 638 OFFCURVE",
"222 645 CURVE",
"238 663 OFFCURVE",
"254 680 OFFCURVE",
"282 721 CURVE SMOOTH",
"318 774 LINE",
"268 810 LINE",
"229 750 LINE SMOOTH",
"210 721 OFFCURVE",
"196 694 OFFCURVE",
"196 692 CURVE SMOOTH",
"195 695 OFFCURVE",
"191 715 OFFCURVE",
"174 749 CURVE SMOOTH",
"143 811 LINE",
"78 780 LINE",
"152 645 LINE",
"55 516 LINE",
"106 478 LINE",
"145 532 LINE SMOOTH",
"167 562 OFFCURVE",
"179 594 OFFCURVE",
"180 597 CURVE",
"181 594 OFFCURVE",
"195 560 OFFCURVE",
"223 507 CURVE SMOOTH",
"293 375 LINE",
"291 359 OFFCURVE",
"291 337 OFFCURVE",
"291 308 CURVE SMOOTH",
"291 0 LINE",
"361 0 LINE",
"361 311 LINE SMOOTH",
"361 340 OFFCURVE",
"360 361 OFFCURVE",
"358 378 CURVE",
"427 507 LINE SMOOTH",
"459 566 OFFCURVE",
"469 596 OFFCURVE",
"470 597 CURVE",
"471 593 OFFCURVE",
"482 565 OFFCURVE",
"506 531 CURVE SMOOTH",
"544 478 LINE",
"595 516 LINE",
"498 645 LINE",
"572 780 LINE",
"507 811 LINE",
"480 751 LINE SMOOTH",
"465 718 OFFCURVE",
"461 705 OFFCURVE",
"455 690 CURVE",
"445 709 OFFCURVE",
"437 725 OFFCURVE",
"421 750 CURVE SMOOTH",
"382 810 LINE",
"332 774 LINE",
"369 719 LINE SMOOTH",
"400 674 OFFCURVE",
"418 655 OFFCURVE",
"428 645 CURVE",
"423 636 OFFCURVE",
"410 614 OFFCURVE",
"391 577 CURVE SMOOTH",
"371 539 LINE SMOOTH",
"346 491 OFFCURVE",
"329 455 OFFCURVE",
"326 440 CURVE"
);
}
);
width = 650;
}
);
unicode = 1001B;
},
{
glyphname = uni1001C;
lastChange = "2019-08-21 19:20:35 +0000";
layers = (
{
layerId = UUID0;
paths = (
{
closed = 1;
nodes = (
"618 267 LINE",
"682 800 LINE",
"608 800 LINE",
"558 325 LINE",
"490 325 LINE",
"514 800 LINE",
"442 800 LINE",
"423 325 LINE",
"358 325 LINE",
"339 800 LINE",
"266 800 LINE",
"290 325 LINE",
"222 325 LINE",
"173 800 LINE",
"99 800 LINE",
"162 267 LINE",
"253 267 LINE SMOOTH",
"291 267 OFFCURVE",
"350 271 OFFCURVE",
"361 272 CURVE",
"362 268 LINE",
"340 261 OFFCURVE",
"324 247 OFFCURVE",
"300 207 CURVE SMOOTH",
"270 157 OFFCURVE",
"227 54 OFFCURVE",
"208 0 CURVE",
"279 0 LINE",
"301 65 OFFCURVE",
"344 185 OFFCURVE",
"385 232 CURVE",
"425 189 OFFCURVE",
"477 66 OFFCURVE",
"501 0 CURVE",
"573 0 LINE",
"554 53 OFFCURVE",
"510 157 OFFCURVE",
"475 215 CURVE SMOOTH",
"457 245 OFFCURVE",
"439 262 OFFCURVE",
"418 268 CURVE",
"419 272 LINE",
"428 271 OFFCURVE",
"491 267 OFFCURVE",
"533 267 CURVE SMOOTH"
);
},
{
closed = 1;
nodes = (
"450 63 LINE",
"330 63 LINE",
"330 0 LINE",
"450 0 LINE"
);
},
{
closed = 1;
nodes = (
"669 171 LINE",
"782 175 OFFCURVE",
"810 205 OFFCURVE",
"810 247 CURVE SMOOTH",
"810 313 OFFCURVE",
"728 347 OFFCURVE",
"728 371 CURVE SMOOTH",
"728 391 OFFCURVE",
"754 401 OFFCURVE",
"813 407 CURVE",
"797 462 LINE",
"697 447 OFFCURVE",
"662 427 OFFCURVE",
"662 376 CURVE SMOOTH",
"662 310 OFFCURVE",
"743 289 OFFCURVE",
"743 258 CURVE SMOOTH",
"743 238 OFFCURVE",
"713 231 OFFCURVE",
"656 226 CURVE"
);
}
);
width = 857;
}
);
unicode = 1001C;
},
{
glyphname = uni1001D;
lastChange = "2019-08-21 19:20:35 +0000";
layers = (
{
layerId = UUID0;
paths = (
{
closed = 1;
nodes = (
"488 800 LINE",
"488 0 LINE",
"558 0 LINE",
"558 800 LINE"
);
},
{
closed = 1;
nodes = (
"178 800 LINE",
"111 800 LINE",
"111 0 LINE",
"178 0 LINE"
);
},
{
closed = 1;
nodes = (
"282 480 LINE",
"282 513 OFFCURVE",
"296 547 OFFCURVE",
"339 547 CURVE SMOOTH",
"381 547 OFFCURVE",
"389 507 OFFCURVE",
"389 480 CURVE",
"457 480 LINE",
"455 545 OFFCURVE",
"415 609 OFFCURVE",
"339 609 CURVE SMOOTH",
"263 609 OFFCURVE",
"211 538 OFFCURVE",
"211 480 CURVE"
);
},
{
closed = 1;
nodes = (
"211 392 LINE",
"211 334 OFFCURVE",
"263 263 OFFCURVE",
"339 263 CURVE SMOOTH",
"415 263 OFFCURVE",
"455 327 OFFCURVE",
"457 392 CURVE",
"389 392 LINE",
"389 365 OFFCURVE",
"381 325 OFFCURVE",
"339 325 CURVE SMOOTH",
"296 325 OFFCURVE",
"282 359 OFFCURVE",
"282 392 CURVE"
);
}
);
width = 669;
}
);
unicode = 1001D;
},
{
glyphname = uni1001E;
lastChange = "2019-08-21 19:20:35 +0000";
layers = (
{
layerId = UUID0;
paths = (
{
closed = 1;
nodes = (
"441 368 LINE",
"288 368 LINE",
"288 505 LINE",
"441 505 LINE",
"441 568 LINE",
"288 568 LINE",
"288 800 LINE",
"218 800 LINE",
"218 568 LINE",
"66 568 LINE",
"66 505 LINE",
"218 505 LINE",
"218 368 LINE",
"66 368 LINE",
"66 305 LINE",
"218 305 LINE",
"218 0 LINE",
"288 0 LINE",
"288 305 LINE",
"441 305 LINE"
);
}
);
width = 507;
}
);
unicode = 1001E;
},
{
glyphname = uni1001F;
lastChange = "2019-08-21 19:20:35 +0000";
layers = (
{
layerId = UUID0;
paths = (
{
closed = 1;
nodes = (
"274 127 LINE",
"220 92 OFFCURVE",
"186 64 OFFCURVE",
"175 54 CURVE",
"172 57 LINE",
"177 75 OFFCURVE",
"181 122 OFFCURVE",
"181 194 CURVE SMOOTH",
"181 230 LINE",
"260 237 OFFCURVE",
"354 294 OFFCURVE",
"354 396 CURVE SMOOTH",
"354 498 OFFCURVE",
"274 549 OFFCURVE",
"181 553 CURVE",
"181 605 LINE SMOOTH",
"181 677 OFFCURVE",
"177 724 OFFCURVE",
"172 742 CURVE",
"175 745 LINE",
"186 735 OFFCURVE",
"220 707 OFFCURVE",
"274 672 CURVE SMOOTH",
"373 608 LINE",
"414 667 LINE",
"181 810 LINE",
"111 774 LINE",
"111 25 LINE",
"181 -11 LINE",
"414 132 LINE",
"373 191 LINE"
);
},
{
closed = 1;
nodes = (
"284 339 OFFCURVE",
"241 301 OFFCURVE",
"181 296 CURVE",
"181 487 LINE",
"239 483 OFFCURVE",
"284 451 OFFCURVE",
"284 396 CURVE SMOOTH"
);
}
);
width = 513;
}
);
unicode = 1001F;
},
{
glyphname = uni10020;
lastChange = "2019-08-21 19:20:35 +0000";
layers = (
{
layerId = UUID0;
paths = (
{
closed = 1;
nodes = (
"465 63 LINE",
"386 63 LINE",
"386 545 LINE",
"476 545 LINE",
"526 389 OFFCURVE",
"563 170 OFFCURVE",
"573 0 CURVE",
"644 0 LINE",
"635 161 OFFCURVE",
"598 377 OFFCURVE",
"544 545 CURVE",
"583 545 LINE",
"583 608 LINE",
"526 608 LINE",
"480 727 OFFCURVE",
"422 810 OFFCURVE",
"354 810 CURVE SMOOTH",
"290 810 OFFCURVE",
"233 727 OFFCURVE",
"186 608 CURVE",
"130 608 LINE",
"130 545 LINE",
"169 545 LINE",
"116 375 OFFCURVE",
"75 169 OFFCURVE",
"66 0 CURVE",
"136 0 LINE",
"145 172 OFFCURVE",
"182 390 OFFCURVE",
"231 545 CURVE",
"316 545 LINE",
"316 63 LINE",
"240 63 LINE",
"240 0 LINE",
"465 0 LINE"
);
},
{
closed = 1;
nodes = (
"389 740 OFFCURVE",
"428 688 OFFCURVE",
"459 608 CURVE",
"249 608 LINE",
"280 688 OFFCURVE",
"319 740 OFFCURVE",
"354 740 CURVE SMOOTH"
);
}
);
width = 710;
}
);
unicode = 10020;
},
{
glyphname = uni10021;
lastChange = "2019-08-21 19:20:35 +0000";
layers = (
{
layerId = UUID0;
paths = (
{
closed = 1;
nodes = (
"442 545 LINE",
"136 545 LINE",
"136 637 LINE",
"512 637 LINE",
"512 700 LINE",
"136 700 LINE",
"136 800 LINE",
"66 800 LINE",
"66 408 LINE",
"136 408 LINE",
"136 482 LINE",
"372 482 LINE",
"372 0 LINE",
"442 0 LINE"
);
}
);
width = 600;
}
);
unicode = 10021;
},
{
glyphname = uni10022;
lastChange = "2019-08-21 19:20:35 +0000";
layers = (
{
layerId = UUID0;
paths = (
{
closed = 1;
nodes = (
"681 63 LINE",
"627 63 LINE",
"572 191 OFFCURVE",
"522 380 OFFCURVE",
"496 521 CURVE",
"571 554 OFFCURVE",
"630 594 OFFCURVE",
"630 677 CURVE SMOOTH",
"630 737 OFFCURVE",
"605 805 OFFCURVE",
"483 805 CURVE SMOOTH",
"449 805 OFFCURVE",
"406 797 OFFCURVE",
"366 781 CURVE",
"383 721 LINE",
"412 732 OFFCURVE",
"443 740 OFFCURVE",
"483 740 CURVE SMOOTH",
"547 740 OFFCURVE",
"560 702 OFFCURVE",
"560 677 CURVE SMOOTH",
"560 618 OFFCURVE",
"521 598 OFFCURVE",
"417 556 CURVE SMOOTH",
"260 493 OFFCURVE",
"85 409 OFFCURVE",
"67 63 CURVE",
"22 63 LINE",
"22 0 LINE",
"176 0 LINE",
"176 63 LINE",
"136 63 LINE",
"146 233 OFFCURVE",
"193 330 OFFCURVE",
"256 392 CURVE SMOOTH",
"264 400 OFFCURVE",
"279 413 OFFCURVE",
"288 420 CURVE",
"290 417 LINE",
"286 398 OFFCURVE",
"285 377 OFFCURVE",
"285 362 CURVE SMOOTH",
"285 308 OFFCURVE",
"306 153 OFFCURVE",
"326 63 CURVE",
"297 63 LINE",
"297 0 LINE",
"451 0 LINE",
"451 63 LINE",
"399 63 LINE",
"366 183 OFFCURVE",
"347 310 OFFCURVE",
"338 451 CURVE",
"360 463 OFFCURVE",
"422 487 OFFCURVE",
"442 499 CURVE",
"445 496 LINE",
"445 460 OFFCURVE",
"446 436 OFFCURVE",
"451 410 CURVE SMOOTH",
"472 302 OFFCURVE",
"512 162 OFFCURVE",
"551 63 CURVE",
"527 63 LINE",
"527 0 LINE",
"681 0 LINE"
);
}
);
width = 747;
}
);
unicode = 10022;
},
{
glyphname = uni10023;
lastChange = "2019-08-21 19:20:35 +0000";
layers = (
{
layerId = UUID0;
paths = (
{
closed = 1;
nodes = (
"44 595 OFFCURVE",
"95 555 OFFCURVE",
"199 555 CURVE",
"212 535 OFFCURVE",
"243 517 OFFCURVE",
"266 511 CURVE",
"263 486 OFFCURVE",
"262 463 OFFCURVE",
"262 445 CURVE SMOOTH",
"262 0 LINE",
"332 0 LINE",
"332 446 LINE SMOOTH",
"332 466 OFFCURVE",
"331 487 OFFCURVE",
"327 511 CURVE",
"351 517 OFFCURVE",
"382 535 OFFCURVE",
"395 555 CURVE",
"497 555 OFFCURVE",
"551 595 OFFCURVE",
"551 659 CURVE SMOOTH",
"551 724 OFFCURVE",
"499 764 OFFCURVE",
"393 765 CURVE",
"375 791 OFFCURVE",
"330 810 OFFCURVE",
"297 810 CURVE SMOOTH",
"264 810 OFFCURVE",
"221 791 OFFCURVE",
"202 765 CURVE",
"95 764 OFFCURVE",
"44 724 OFFCURVE",
"44 659 CURVE SMOOTH"
);
},
{
closed = 1;
nodes = (
"227 713 OFFCURVE",
"255 755 OFFCURVE",
"297 755 CURVE SMOOTH",
"340 755 OFFCURVE",
"367 713 OFFCURVE",
"367 659 CURVE SMOOTH",
"367 605 OFFCURVE",
"340 563 OFFCURVE",
"297 563 CURVE SMOOTH",
"255 563 OFFCURVE",
"227 605 OFFCURVE",
"227 659 CURVE SMOOTH"
);
},
{
closed = 1;
nodes = (
"170 633 OFFCURVE",
"174 614 OFFCURVE",
"181 595 CURVE",
"138 595 OFFCURVE",
"102 615 OFFCURVE",
"102 660 CURVE SMOOTH",
"102 707 OFFCURVE",
"139 723 OFFCURVE",
"182 723 CURVE",
"174 708 OFFCURVE",
"170 687 OFFCURVE",
"170 659 CURVE SMOOTH"
);
},
{
closed = 1;
nodes = (
"493 615 OFFCURVE",
"458 595 OFFCURVE",
"414 595 CURVE",
"421 613 OFFCURVE",
"426 632 OFFCURVE",
"426 659 CURVE SMOOTH",
"426 686 OFFCURVE",
"422 705 OFFCURVE",
"413 723 CURVE",
"459 723 OFFCURVE",
"493 706 OFFCURVE",
"493 660 CURVE SMOOTH"
);
}
);
width = 595;
}
);
unicode = 10023;
},
{
glyphname = uni10024;
lastChange = "2019-08-21 19:20:35 +0000";
layers = (
{
layerId = UUID0;
paths = (
{
closed = 1;
nodes = (
"352 530 LINE",
"234 530 LINE",
"234 467 LINE",
"352 467 LINE"
);
},
{
closed = 1;
nodes = (
"66 206 OFFCURVE",
"221 51 OFFCURVE",
"413 51 CURVE SMOOTH",
"604 51 OFFCURVE",
"759 206 OFFCURVE",
"759 397 CURVE SMOOTH",
"759 588 OFFCURVE",
"604 743 OFFCURVE",
"413 743 CURVE SMOOTH",
"221 743 OFFCURVE",
"66 588 OFFCURVE",
"66 397 CURVE"
);
},
{
closed = 1;
nodes = (
"136 549 OFFCURVE",
"260 678 OFFCURVE",
"413 678 CURVE SMOOTH",
"565 678 OFFCURVE",
"689 549 OFFCURVE",
"689 397 CURVE SMOOTH",
"689 245 OFFCURVE",
"565 116 OFFCURVE",
"413 116 CURVE SMOOTH",
"260 116 OFFCURVE",
"136 245 OFFCURVE",
"136 397 CURVE"
);
},
{
closed = 1;
nodes = (
"592 530 LINE",
"474 530 LINE",
"474 467 LINE",
"592 467 LINE"
);
},
{
closed = 1;
nodes = (
"352 330 LINE",
"234 330 LINE",
"234 267 LINE",
"352 267 LINE"
);
},
{
closed = 1;
nodes = (
"592 330 LINE",
"474 330 LINE",
"474 267 LINE",
"592 267 LINE"
);
}
);
width = 825;
}
);
unicode = 10024;
},
{
glyphname = uni10025;
lastChange = "2019-08-21 19:20:35 +0000";
layers = (
{
layerId = UUID0;
paths = (
{
closed = 1;
nodes = (
"505 556 LINE",
"435 556 LINE",
"435 0 LINE",
"505 0 LINE"
);
},
{
closed = 1;
nodes = (
"702 734 LINE",
"702 797 LINE",
"33 797 LINE",
"33 734 LINE",
"95 734 LINE",
"95 568 OFFCURVE",
"173 546 OFFCURVE",
"252 546 CURVE SMOOTH",
"335 546 OFFCURVE",
"414 624 OFFCURVE",
"466 624 CURVE SMOOTH",
"498 624 OFFCURVE",
"522 612 OFFCURVE",
"559 579 CURVE SMOOTH",
"608 535 LINE",
"654 582 LINE",
"593 633 LINE SMOOTH",
"553 667 OFFCURVE",
"516 687 OFFCURVE",
"466 687 CURVE SMOOTH",
"395 687 OFFCURVE",
"340 609 OFFCURVE",
"249 609 CURVE SMOOTH",
"202 609 OFFCURVE",
"165 633 OFFCURVE",
"165 734 CURVE"
);
}
);
width = 790;
}
);
unicode = 10025;
},
{
glyphname = uni10026;
lastChange = "2019-08-21 19:20:35 +0000";
layers = (
{
layerId = UUID0;
paths = (
{
closed = 1;
nodes = (
"401 500 LINE",
"166 500 LINE",
"166 437 LINE",
"248 437 LINE",
"248 0 LINE",
"318 0 LINE",
"318 437 LINE",
"401 437 LINE"
);
},
{
closed = 1;
nodes = (
"240 608 LINE",
"185 608 LINE",
"185 800 LINE",
"118 800 LINE",
"118 608 LINE",
"66 608 LINE",
"66 545 LINE",
"240 545 LINE"
);
},
{
closed = 1;
nodes = (
"501 608 LINE",
"444 608 LINE",
"444 800 LINE",
"377 800 LINE",
"377 608 LINE",
"327 608 LINE",
"327 545 LINE",
"501 545 LINE"
);
}
);
width = 567;
}
);
unicode = 10026;
},
{
glyphname = uni10028;
lastChange = "2019-08-21 19:20:35 +0000";
layers = (
{
layerId = UUID0;
paths = (
{
closed = 1;
nodes = (
"595 63 LINE",
"178 63 LINE",
"178 800 LINE",
"111 800 LINE",
"111 0 LINE",
"595 0 LINE"
);
},
{
closed = 1;
nodes = (
"297 231 LINE",
"337 271 OFFCURVE",
"358 284 OFFCURVE",
"381 284 CURVE SMOOTH",
"400 284 OFFCURVE",
"414 268 OFFCURVE",
"414 251 CURVE SMOOTH",
"414 229 OFFCURVE",
"396 206 OFFCURVE",
"359 169 CURVE",
"403 129 LINE",
"442 168 OFFCURVE",
"474 212 OFFCURVE",
"474 264 CURVE SMOOTH",
"474 312 OFFCURVE",
"439 343 OFFCURVE",
"394 343 CURVE SMOOTH",
"348 343 OFFCURVE",
"300 319 OFFCURVE",
"258 277 CURVE"
);
}
);
width = 628;
}
);
unicode = 10028;
},
{
glyphname = uni10029;
lastChange = "2019-08-21 19:20:35 +0000";
layers = (
{
layerId = UUID0;
paths = (
{
closed = 1;
nodes = (
"326 800 LINE",
"256 800 LINE",
"256 608 LINE SMOOTH",
"256 564 OFFCURVE",
"258 532 OFFCURVE",
"261 510 CURVE",
"146 530 OFFCURVE",
"114 667 OFFCURVE",
"114 800 CURVE",
"44 800 LINE",
"44 631 OFFCURVE",
"95 465 OFFCURVE",
"260 447 CURVE",
"258 433 OFFCURVE",
"256 415 OFFCURVE",
"256 393 CURVE SMOOTH",
"256 0 LINE",
"326 0 LINE",
"326 396 LINE SMOOTH",
"326 417 OFFCURVE",
"324 433 OFFCURVE",
"322 447 CURVE",
"479 466 OFFCURVE",
"540 632 OFFCURVE",
"540 800 CURVE",
"470 800 LINE",
"470 668 OFFCURVE",
"432 532 OFFCURVE",
"321 511 CURVE",
"324 533 OFFCURVE",
"326 564 OFFCURVE",
"326 608 CURVE SMOOTH"
);
}
);
width = 584;
}
);
unicode = 10029;
},
{
glyphname = uni1002A;
lastChange = "2019-08-21 19:20:35 +0000";
layers = (
{
layerId = UUID0;
paths = (
{
closed = 1;
nodes = (
"216 0 LINE",
"254 265 OFFCURVE",
"284 382 OFFCURVE",
"302 382 CURVE SMOOTH",
"317 382 OFFCURVE",
"343 266 OFFCURVE",
"388 0 CURVE",
"457 0 LINE",
"408 285 OFFCURVE",
"376 404 OFFCURVE",
"335 440 CURVE",
"338 445 LINE",
"354 442 OFFCURVE",
"402 437 OFFCURVE",
"449 437 CURVE SMOOTH",
"530 437 LINE",
"530 500 LINE",
"446 500 LINE SMOOTH",
"396 500 OFFCURVE",
"352 488 OFFCURVE",
"340 484 CURVE",
"338 489 LINE",
"374 512 OFFCURVE",
"419 569 OFFCURVE",
"419 662 CURVE SMOOTH",
"419 735 OFFCURVE",
"390 807 OFFCURVE",
"280 807 CURVE SMOOTH",
"259 807 OFFCURVE",
"235 804 OFFCURVE",
"207 798 CURVE",
"218 743 LINE",
"232 746 OFFCURVE",
"254 750 OFFCURVE",
"279 750 CURVE SMOOTH",
"349 750 OFFCURVE",
"360 691 OFFCURVE",
"360 652 CURVE SMOOTH",
"360 560 OFFCURVE",
"329 518 OFFCURVE",
"305 518 CURVE SMOOTH",
"281 518 OFFCURVE",
"252 548 OFFCURVE",
"252 604 CURVE SMOOTH",
"252 630 OFFCURVE",
"265 662 OFFCURVE",
"305 662 CURVE SMOOTH",
"314 662 OFFCURVE",
"323 661 OFFCURVE",
"332 659 CURVE",
"340 710 LINE",
"331 713 OFFCURVE",
"315 715 OFFCURVE",
"305 715 CURVE SMOOTH",
"237 715 OFFCURVE",
"193 673 OFFCURVE",
"193 604 CURVE SMOOTH",
"193 551 OFFCURVE",
"237 504 OFFCURVE",
"273 492 CURVE",
"271 487 LINE",
"256 490 OFFCURVE",
"221 500 OFFCURVE",
"173 500 CURVE SMOOTH",
"77 500 LINE",
"77 437 LINE",
"171 437 LINE SMOOTH",
"208 437 OFFCURVE",
"251 442 OFFCURVE",
"268 445 CURVE",
"270 440 LINE",
"229 407 OFFCURVE",
"190 285 OFFCURVE",
"149 0 CURVE"
);
}
);
width = 607;
}
);
unicode = 1002A;
},
{
glyphname = uni1002B;
lastChange = "2019-08-21 19:20:35 +0000";
layers = (
{
layerId = UUID0;
paths = (
{
closed = 1;
nodes = (
"441 468 LINE",
"288 468 LINE",
"288 800 LINE",
"218 800 LINE",
"218 468 LINE",
"66 468 LINE",
"66 405 LINE",
"218 405 LINE",
"218 0 LINE",
"288 0 LINE",
"288 405 LINE",
"441 405 LINE"
);
}
);
width = 507;
}
);
unicode = 1002B;
},
{
glyphname = uni1002C;
lastChange = "2019-08-21 19:20:35 +0000";
layers = (
{
layerId = UUID0;
paths = (
{
closed = 1;
nodes = (
"392 552 LINE",
"416 514 OFFCURVE",
"463 492 OFFCURVE",
"512 492 CURVE SMOOTH",
"598 492 OFFCURVE",
"661 552 OFFCURVE",
"661 658 CURVE SMOOTH",
"661 704 OFFCURVE",
"647 751 OFFCURVE",
"596 810 CURVE",
"544 771 LINE",
"585 716 OFFCURVE",
"591 688 OFFCURVE",
"591 658 CURVE SMOOTH",
"591 600 OFFCURVE",
"561 558 OFFCURVE",
"492 558 CURVE SMOOTH",
"456 558 OFFCURVE",
"402 592 OFFCURVE",
"363 656 CURVE",
"353 656 LINE",
"314 591 OFFCURVE",
"260 558 OFFCURVE",
"225 558 CURVE SMOOTH",
"156 558 OFFCURVE",
"125 600 OFFCURVE",
"125 658 CURVE SMOOTH",
"125 688 OFFCURVE",
"131 716 OFFCURVE",
"172 771 CURVE",
"120 810 LINE",
"68 739 OFFCURVE",
"55 704 OFFCURVE",
"55 658 CURVE SMOOTH",
"55 552 OFFCURVE",
"118 492 OFFCURVE",
"204 492 CURVE SMOOTH",
"251 492 OFFCURVE",
"293 517 OFFCURVE",
"322 553 CURVE",
"326 550 LINE",
"324 537 OFFCURVE",
"322 500 OFFCURVE",
"322 470 CURVE SMOOTH",
"322 0 LINE",
"392 0 LINE",
"392 470 LINE SMOOTH",
"392 498 OFFCURVE",
"390 538 OFFCURVE",
"388 549 CURVE"
);
}
);
width = 716;
}
);
unicode = 1002C;
},
{
glyphname = uni1002D;
lastChange = "2019-08-21 19:20:35 +0000";
layers = (
{
layerId = UUID0;
paths = (
{
closed = 1;
nodes = (
"82 769 LINE",
"107 741 OFFCURVE",
"134 706 OFFCURVE",
"161 668 CURVE",
"97 403 LINE",
"158 388 LINE",
"187 513 LINE SMOOTH",
"196 553 OFFCURVE",
"197 578 OFFCURVE",
"197 592 CURVE SMOOTH",
"197 603 OFFCURVE",
"196 616 OFFCURVE",
"195 621 CURVE",
"200 623 LINE",
"202 609 OFFCURVE",
"216 583 OFFCURVE",
"237 544 CURVE SMOOTH",
"280 464 OFFCURVE",
"309 378 OFFCURVE",
"309 306 CURVE SMOOTH",
"309 0 LINE",
"379 0 LINE",
"379 305 LINE SMOOTH",
"379 377 OFFCURVE",
"408 464 OFFCURVE",
"451 544 CURVE SMOOTH",
"472 583 OFFCURVE",
"486 609 OFFCURVE",
"488 623 CURVE",
"493 621 LINE",
"492 616 OFFCURVE",
"491 603 OFFCURVE",
"491 592 CURVE SMOOTH",
"491 578 OFFCURVE",
"492 553 OFFCURVE",
"501 513 CURVE SMOOTH",
"530 388 LINE",
"591 403 LINE",
"527 668 LINE",
"554 706 OFFCURVE",
"581 740 OFFCURVE",
"606 768 CURVE",
"549 811 LINE",
"525 781 OFFCURVE",
"395 621 OFFCURVE",
"346 450 CURVE",
"307 613 OFFCURVE",
"165 779 OFFCURVE",
"138 811 CURVE"
);
}
);
width = 684;
}
);
unicode = 1002D;
},
{
glyphname = uni1002E;
lastChange = "2019-08-21 19:20:35 +0000";
layers = (
{
layerId = UUID0;
paths = (
{
closed = 1;
nodes = (
"576 545 LINE",
"181 545 LINE",
"181 800 LINE",
"111 800 LINE",
"111 0 LINE",
"181 0 LINE",
"181 482 LINE",
"576 482 LINE"
);
},
{
closed = 1;
nodes = (
"446 800 LINE",
"376 800 LINE",
"376 608 LINE",
"446 608 LINE"
);
},
{
closed = 1;
nodes = (
"576 800 LINE",
"506 800 LINE",
"506 608 LINE",
"576 608 LINE"
);
},
{
closed = 1;
nodes = (
"316 800 LINE",
"246 800 LINE",
"246 608 LINE",
"316 608 LINE"
);
}
);
width = 642;
}
);
unicode = 1002E;
},
{
glyphname = uni1002F;
lastChange = "2019-08-21 19:20:35 +0000";
layers = (
{
layerId = UUID0;
paths = (
{
closed = 1;
nodes = (
"465 208 LINE",
"392 208 LINE",
"392 405 LINE",
"496 405 LINE",
"524 223 OFFCURVE",
"558 46 OFFCURVE",
"569 -10 CURVE",
"639 0 LINE",
"609 142 OFFCURVE",
"551 425 OFFCURVE",
"530 618 CURVE",
"467 607 LINE",
"472 562 OFFCURVE",
"479 515 OFFCURVE",
"486 468 CURVE",
"392 468 LINE",
"392 800 LINE",
"322 800 LINE",
"322 468 LINE",
"219 468 LINE",
"238 608 LINE",
"175 616 LINE",
"154 419 OFFCURVE",
"97 142 OFFCURVE",
"66 0 CURVE",
"134 -10 LINE",
"145 46 OFFCURVE",
"180 222 OFFCURVE",
"209 405 CURVE",
"322 405 LINE",
"322 208 LINE",
"250 208 LINE",
"250 145 LINE",
"322 145 LINE",
"322 0 LINE",
"392 0 LINE",
"392 145 LINE",
"465 145 LINE"
);
}
);
width = 705;
}
);
unicode = 1002F;
},
{
glyphname = uni10030;
lastChange = "2019-08-21 19:20:35 +0000";
layers = (
{
layerId = UUID0;
paths = (
{
closed = 1;
nodes = (
"136 800 LINE",
"66 800 LINE",
"66 410 LINE",
"136 410 LINE",
"136 482 LINE",
"253 482 LINE",
"253 545 LINE",
"136 545 LINE",
"136 662 LINE",
"253 662 LINE",
"253 725 LINE",
"136 725 LINE"
);
},
{
closed = 1;
nodes = (
"266 787 LINE",
"304 676 OFFCURVE",
"426 666 OFFCURVE",
"426 602 CURVE SMOOTH",
"426 534 OFFCURVE",
"275 527 OFFCURVE",
"275 390 CURVE SMOOTH",
"275 0 LINE",
"345 0 LINE",
"345 390 LINE SMOOTH",
"345 495 OFFCURVE",
"497 491 OFFCURVE",
"497 601 CURVE SMOOTH",
"497 716 OFFCURVE",
"361 736 OFFCURVE",
"335 810 CURVE"
);
}
);
width = 574;
}
);
unicode = 10030;
},
{
glyphname = uni10031;
lastChange = "2019-08-21 19:20:35 +0000";
layers = (
{
layerId = UUID0;
paths = (
{
closed = 1;
nodes = (
"111 0 LINE",
"517 0 LINE",
"517 63 LINE",
"181 63 LINE",
"181 545 LINE",
"450 545 LINE",
"450 480 LINE",
"517 480 LINE",
"517 800 LINE",
"111 800 LINE"
);
},
{
closed = 1;
nodes = (
"181 737 LINE",
"450 737 LINE",
"450 608 LINE",
"181 608 LINE"
);
}
);
width = 605;
}
);
unicode = 10031;
},
{
glyphname = uni10032;
lastChange = "2019-08-21 19:20:35 +0000";
layers = (
{
layerId = UUID0;
paths = (
{
closed = 1;
nodes = (
"439 243 LINE",
"447 163 LINE",
"180 163 LINE",
"185 246 OFFCURVE",
"188 330 OFFCURVE",
"188 413 CURVE SMOOTH",
"188 490 OFFCURVE",
"186 565 OFFCURVE",
"181 638 CURVE",
"447 638 LINE",
"439 555 LINE",
"506 548 LINE",
"532 802 LINE",
"465 809 LINE",
"454 701 LINE",
"177 701 LINE",
"174 738 OFFCURVE",
"170 775 OFFCURVE",
"166 810 CURVE",
"99 800 LINE",
"114 680 OFFCURVE",
"121 549 OFFCURVE",
"121 413 CURVE SMOOTH",
"121 277 OFFCURVE",
"114 137 OFFCURVE",
"99 0 CURVE",
"166 -10 LINE",
"170 26 OFFCURVE",
"173 63 OFFCURVE",
"176 100 CURVE",
"453 100 LINE",
"465 -11 LINE",
"532 -4 LINE",
"506 250 LINE"
);
}
);
width = 620;
}
);
unicode = 10032;
},
{
glyphname = uni10033;
lastChange = "2019-08-21 19:20:35 +0000";
layers = (
{
layerId = UUID0;
paths = (
{
closed = 1;
nodes = (
"370 800 LINE",
"300 800 LINE",
"300 0 LINE",
"370 0 LINE"
);
},
{
closed = 1;
nodes = (
"233 608 LINE",
"88 608 LINE",
"88 545 LINE",
"233 545 LINE"
);
},
{
closed = 1;
nodes = (
"233 308 LINE",
"88 308 LINE",
"88 245 LINE",
"233 245 LINE"
);
},
{
closed = 1;
nodes = (
"233 458 LINE",
"88 458 LINE",
"88 395 LINE",
"233 395 LINE"
);
},
{
closed = 1;
nodes = (
"582 608 LINE",
"437 608 LINE",
"437 545 LINE",
"582 545 LINE"
);
},
{
closed = 1;
nodes = (
"582 308 LINE",
"437 308 LINE",
"437 245 LINE",
"582 245 LINE"
);
},
{
closed = 1;
nodes = (
"582 458 LINE",
"437 458 LINE",
"437 395 LINE",
"582 395 LINE"
);
}
);
width = 670;
}
);
unicode = 10033;
},
{
glyphname = uni10034;
lastChange = "2019-08-21 19:20:35 +0000";
layers = (
{
layerId = UUID0;
paths = (
{
closed = 1;
nodes = (
"386 544 LINE",
"316 544 LINE",
"316 100 LINE",
"386 100 LINE"
);
},
{
closed = 1;
nodes = (
"136 0 LINE",
"152 300 OFFCURVE",
"254 740 OFFCURVE",
"354 740 CURVE SMOOTH",
"456 740 OFFCURVE",
"556 295 OFFCURVE",
"573 0 CURVE",
"644 0 LINE",
"628 307 OFFCURVE",
"523 810 OFFCURVE",
"354 810 CURVE SMOOTH",
"199 810 OFFCURVE",
"84 326 OFFCURVE",
"66 0 CURVE"
);
}
);
width = 710;
}
);
unicode = 10034;
},
{
glyphname = uni10035;
lastChange = "2019-08-21 19:20:35 +0000";
layers = (
{
layerId = UUID0;
paths = (
{
closed = 1;
nodes = (
"441 608 LINE",
"288 608 LINE",
"288 737 LINE",
"441 737 LINE",
"441 800 LINE",
"66 800 LINE",
"66 737 LINE",
"218 737 LINE",
"218 608 LINE",
"66 608 LINE",
"66 545 LINE",
"218 545 LINE",
"218 0 LINE",
"288 0 LINE",
"288 545 LINE",
"441 545 LINE"
);
}
);
width = 507;
}
);
unicode = 10035;
},
{
glyphname = uni10036;
lastChange = "2019-08-21 19:20:35 +0000";
layers = (
{
layerId = UUID0;
paths = (
{
closed = 1;
nodes = (
"574 540 OFFCURVE",
"594 482 OFFCURVE",
"594 406 CURVE SMOOTH",
"594 242 OFFCURVE",
"430 187 OFFCURVE",
"397 105 CURVE",
"393 105 LINE",
"395 132 OFFCURVE",
"399 190 OFFCURVE",
"399 227 CURVE SMOOTH",
"399 424 LINE SMOOTH",
"399 489 OFFCURVE",
"430 540 OFFCURVE",
"507 540 CURVE SMOOTH"
);
},
{
closed = 1;
nodes = (
"136 482 OFFCURVE",
"156 540 OFFCURVE",
"223 540 CURVE SMOOTH",
"300 540 OFFCURVE",
"329 489 OFFCURVE",
"329 424 CURVE SMOOTH",
"329 227 LINE SMOOTH",
"329 190 OFFCURVE",
"334 133 OFFCURVE",
"336 105 CURVE",
"332 105 LINE",
"299 188 OFFCURVE",
"136 242 OFFCURVE",
"136 406 CURVE SMOOTH"
);
},
{
closed = 1;
nodes = (
"389 535 LINE",
"394 548 OFFCURVE",
"399 575 OFFCURVE",
"399 608 CURVE SMOOTH",
"399 715 OFFCURVE",
"410 742 OFFCURVE",
"468 742 CURVE SMOOTH",
"485 742 OFFCURVE",
"504 740 OFFCURVE",
"549 732 CURVE",
"560 794 LINE",
"517 803 OFFCURVE",
"494 805 OFFCURVE",
"468 805 CURVE SMOOTH",
"369 805 OFFCURVE",
"329 745 OFFCURVE",
"329 608 CURVE SMOOTH",
"329 571 OFFCURVE",
"334 548 OFFCURVE",
"339 535 CURVE",
"335 533 LINE",
"316 570 OFFCURVE",
"281 603 OFFCURVE",
"223 603 CURVE SMOOTH",
"119 603 OFFCURVE",
"66 526 OFFCURVE",
"66 408 CURVE SMOOTH",
"66 152 OFFCURVE",
"341 142 OFFCURVE",
"341 0 CURVE",
"390 0 LINE",
"390 144 OFFCURVE",
"664 159 OFFCURVE",
"664 408 CURVE SMOOTH",
"664 526 OFFCURVE",
"611 603 OFFCURVE",
"507 603 CURVE SMOOTH",
"451 603 OFFCURVE",
"418 573 OFFCURVE",
"393 533 CURVE"
);
}
);
width = 730;
}
);
unicode = 10036;
},
{
glyphname = uni10037;
lastChange = "2019-08-21 19:20:35 +0000";
layers = (
{
layerId = UUID0;
paths = (
{
closed = 1;
nodes = (
"181 0 LINE",
"181 545 LINE",
"310 545 LINE",
"310 0 LINE",
"380 0 LINE",
"380 545 LINE",
"516 545 LINE",
"516 0 LINE",
"583 0 LINE",
"583 800 LINE",
"111 800 LINE",
"111 0 LINE"
);
},
{
closed = 1;
nodes = (
"181 737 LINE",
"516 737 LINE",
"516 608 LINE",
"181 608 LINE"
);
}
);
width = 669;
}
);
unicode = 10037;
},
{
glyphname = uni10038;
lastChange = "2019-08-21 19:20:35 +0000";
layers = (
{
layerId = UUID0;
paths = (
{
closed = 1;
nodes = (
"66 53 OFFCURVE",
"145 -10 OFFCURVE",
"273 -10 CURVE SMOOTH",
"381 -10 OFFCURVE",
"459 72 OFFCURVE",
"506 200 CURVE",
"444 224 LINE",
"398 94 OFFCURVE",
"341 53 OFFCURVE",
"276 53 CURVE SMOOTH",
"191 53 OFFCURVE",
"136 94 OFFCURVE",
"136 190 CURVE SMOOTH",
"136 374 OFFCURVE",
"488 397 OFFCURVE",
"488 626 CURVE SMOOTH",
"488 725 OFFCURVE",
"425 810 OFFCURVE",
"290 810 CURVE SMOOTH",
"168 810 OFFCURVE",
"97 710 OFFCURVE",
"70 620 CURVE",
"131 601 LINE",
"166 701 OFFCURVE",
"213 747 OFFCURVE",
"292 747 CURVE SMOOTH",
"379 747 OFFCURVE",
"418 690 OFFCURVE",
"418 626 CURVE SMOOTH",
"418 433 OFFCURVE",
"66 409 OFFCURVE",
"66 190 CURVE SMOOTH"
);
}
);
width = 572;
}
);
unicode = 10038;
},
{
glyphname = uni10039;
lastChange = "2019-08-21 19:20:35 +0000";
layers = (
{
layerId = UUID0;
paths = (
{
closed = 1;
nodes = (
"540 812 LINE",
"208 566 OFFCURVE",
"55 346 OFFCURVE",
"55 0 CURVE",
"130 0 LINE",
"130 251 OFFCURVE",
"207 427 OFFCURVE",
"383 596 CURVE SMOOTH",
"388 601 OFFCURVE",
"399 613 OFFCURVE",
"413 631 CURVE",
"417 629 LINE",
"403 608 OFFCURVE",
"401 586 OFFCURVE",
"401 542 CURVE SMOOTH",
"401 511 OFFCURVE",
"409 444 OFFCURVE",
"421 385 CURVE SMOOTH",
"448 253 OFFCURVE",
"486 97 OFFCURVE",
"543 -10 CURVE",
"609 16 LINE",
"501 236 OFFCURVE",
"464 488 OFFCURVE",
"462 666 CURVE",
"498 696 OFFCURVE",
"537 725 OFFCURVE",
"579 756 CURVE"
);
},
{
closed = 1;
nodes = (
"406 385 LINE",
"228 385 LINE",
"228 322 LINE",
"286 322 LINE",
"286 63 LINE",
"190 63 LINE",
"190 0 LINE",
"448 0 LINE",
"448 63 LINE",
"350 63 LINE",
"350 322 LINE",
"406 322 LINE"
);
}
);
width = 675;
}
);
unicode = 10039;
},
{
glyphname = uni1003A;
lastChange = "2019-08-21 19:20:35 +0000";
layers = (
{
layerId = UUID0;
paths = (
{
closed = 1;
nodes = (
"413 603 LINE",
"450 601 OFFCURVE",
"466 577 OFFCURVE",
"466 554 CURVE SMOOTH",
"466 531 OFFCURVE",
"450 509 OFFCURVE",
"414 509 CURVE",
"428 446 LINE",
"499 446 OFFCURVE",
"533 497 OFFCURVE",
"533 546 CURVE SMOOTH",
"533 584 OFFCURVE",
"513 621 OFFCURVE",
"474 634 CURVE",
"506 660 OFFCURVE",
"521 694 OFFCURVE",
"521 725 CURVE SMOOTH",
"521 770 OFFCURVE",
"489 810 OFFCURVE",
"428 810 CURVE",
"414 747 LINE",
"440 747 OFFCURVE",
"453 730 OFFCURVE",
"453 702 CURVE SMOOTH",
"453 675 OFFCURVE",
"439 656 OFFCURVE",
"413 656 CURVE"
);
},
{
closed = 1;
nodes = (
"363 0 LINE",
"438 0 LINE",
"330 608 LINE",
"379 608 LINE",
"379 671 LINE",
"125 671 LINE",
"125 608 LINE",
"173 608 LINE",
"66 0 LINE",
"138 0 LINE",
"236 608 LINE",
"267 608 LINE"
);
}
);
width = 577;
}
);
unicode = 1003A;
},
{
glyphname = uni1003C;
lastChange = "2019-08-21 19:20:35 +0000";
layers = (
{
layerId = UUID0;
paths = (
{
closed = 1;
nodes = (
"317 493 LINE",
"365 511 OFFCURVE",
"397 573 OFFCURVE",
"397 662 CURVE SMOOTH",
"397 735 OFFCURVE",
"361 807 OFFCURVE",
"283 807 CURVE SMOOTH",
"182 807 OFFCURVE",
"171 728 OFFCURVE",
"171 659 CURVE SMOOTH",
"171 572 OFFCURVE",
"201 516 OFFCURVE",
"251 494 CURVE",
"249 491 LINE",
"227 494 OFFCURVE",
"179 500 OFFCURVE",
"151 500 CURVE SMOOTH",
"55 500 LINE",
"55 437 LINE",
"149 437 LINE SMOOTH",
"193 437 OFFCURVE",
"238 444 OFFCURVE",
"248 446 CURVE",
"248 0 LINE",
"318 0 LINE",
"318 445 LINE",
"335 442 OFFCURVE",
"380 437 OFFCURVE",
"427 437 CURVE SMOOTH",
"508 437 LINE",
"508 500 LINE",
"424 500 LINE SMOOTH",
"383 500 OFFCURVE",
"338 494 OFFCURVE",
"318 490 CURVE"
);
},
{
closed = 1;
nodes = (
"327 750 OFFCURVE",
"333 691 OFFCURVE",
"333 652 CURVE SMOOTH",
"333 560 OFFCURVE",
"307 515 OFFCURVE",
"283 515 CURVE SMOOTH",
"259 515 OFFCURVE",
"233 561 OFFCURVE",
"233 652 CURVE SMOOTH",
"233 693 OFFCURVE",
"240 750 OFFCURVE",
"282 750 CURVE SMOOTH"
);
}
);
width = 563;
}
);
unicode = 1003C;
},
{
glyphname = uni1003D;
lastChange = "2019-08-21 19:20:35 +0000";
layers = (
{
layerId = UUID0;
paths = (
{
closed = 1;
nodes = (
"554 63 LINE",
"311 63 LINE SMOOTH",
"203 63 OFFCURVE",
"178 96 OFFCURVE",
"178 227 CURVE SMOOTH",
"178 321 LINE",
"258 330 OFFCURVE",
"337 383 OFFCURVE",
"337 487 CURVE SMOOTH",
"337 592 OFFCURVE",
"265 636 OFFCURVE",
"178 644 CURVE",
"178 800 LINE",
"111 800 LINE",
"111 227 LINE SMOOTH",
"111 18 OFFCURVE",
"187 0 OFFCURVE",
"311 0 CURVE SMOOTH",
"554 0 LINE"
);
},
{
closed = 1;
nodes = (
"265 428 OFFCURVE",
"235 392 OFFCURVE",
"178 384 CURVE",
"178 581 LINE",
"228 574 OFFCURVE",
"265 544 OFFCURVE",
"265 487 CURVE SMOOTH"
);
},
{
closed = 1;
nodes = (
"554 670 LINE",
"369 670 LINE",
"369 607 LINE",
"554 607 LINE"
);
},
{
closed = 1;
nodes = (
"554 520 LINE",
"369 520 LINE",
"369 457 LINE",
"554 457 LINE"
);
},
{
closed = 1;
nodes = (
"554 370 LINE",
"369 370 LINE",
"369 307 LINE",
"554 307 LINE"
);
}
);
width = 653;
}
);
unicode = 1003D;
},
{
glyphname = uni1003F;
lastChange = "2019-08-21 19:20:35 +0000";
layers = (
{
layerId = UUID0;
paths = (
{
closed = 1;
nodes = (
"507 330 LINE",
"366 330 LINE",
"366 500 LINE SMOOTH",
"366 608 OFFCURVE",
"359 697 OFFCURVE",
"355 725 CURVE",
"359 725 LINE",
"367 696 OFFCURVE",
"384 652 OFFCURVE",
"416 607 CURVE SMOOTH",
"564 399 LINE",
"618 438 LINE",
"351 814 LINE",
"311 814 LINE",
"44 438 LINE",
"98 399 LINE",
"247 609 LINE SMOOTH",
"278 653 OFFCURVE",
"292 697 OFFCURVE",
"301 725 CURVE",
"305 725 LINE",
"302 699 OFFCURVE",
"296 608 OFFCURVE",
"296 500 CURVE SMOOTH",
"296 330 LINE",
"162 330 LINE",
"162 267 LINE",
"296 267 LINE",
"296 0 LINE",
"366 0 LINE",
"366 267 LINE",
"507 267 LINE"
);
}
);
width = 662;
}
);
unicode = 1003F;
},
{
glyphname = uni10040;
lastChange = "2019-08-21 19:20:35 +0000";
layers = (
{
layerId = UUID0;
paths = (
{
closed = 1;
nodes = (
"637 800 LINE",
"163 800 LINE",
"163 737 LINE",
"366 737 LINE",
"366 0 LINE",
"436 0 LINE",
"436 737 LINE",
"637 737 LINE"
);
},
{
closed = 1;
nodes = (
"493 672 LINE",
"493 567 OFFCURVE",
"542 503 OFFCURVE",
"630 503 CURVE SMOOTH",
"718 503 OFFCURVE",
"757 556 OFFCURVE",
"759 672 CURVE",
"691 672 LINE",
"691 624 OFFCURVE",
"679 565 OFFCURVE",
"630 565 CURVE SMOOTH",
"581 565 OFFCURVE",
"564 613 OFFCURVE",
"564 672 CURVE"
);
},
{
closed = 1;
nodes = (
"33 672 LINE",
"33 567 OFFCURVE",
"82 503 OFFCURVE",
"170 503 CURVE SMOOTH",
"258 503 OFFCURVE",
"297 556 OFFCURVE",
"299 672 CURVE",
"231 672 LINE",
"231 624 OFFCURVE",
"219 565 OFFCURVE",
"170 565 CURVE SMOOTH",
"121 565 OFFCURVE",
"104 613 OFFCURVE",
"104 672 CURVE"
);
}
);
width = 792;
}
);
unicode = 10040;
},
{
glyphname = uni10041;
lastChange = "2019-08-21 19:20:35 +0000";
layers = (
{
layerId = UUID0;
paths = (
{
closed = 1;
nodes = (
"44 792 LINE",
"58 762 OFFCURVE",
"68 736 OFFCURVE",
"68 702 CURVE SMOOTH",
"68 675 OFFCURVE",
"58 637 OFFCURVE",
"58 616 CURVE SMOOTH",
"58 504 OFFCURVE",
"123 483 OFFCURVE",
"213 482 CURVE",
"207 465 OFFCURVE",
"199 440 OFFCURVE",
"191 403 CURVE SMOOTH",
"106 1 LINE",
"176 -10 LINE",
"262 401 LINE SMOOTH",
"272 448 OFFCURVE",
"274 473 OFFCURVE",
"275 482 CURVE",
"328 482 LINE",
"330 461 OFFCURVE",
"332 440 OFFCURVE",
"341 397 CURVE SMOOTH",
"429 -10 LINE",
"498 1 LINE",
"412 398 LINE SMOOTH",
"401 448 OFFCURVE",
"393 470 OFFCURVE",
"389 482 CURVE",
"520 482 LINE",
"520 545 LINE",
"215 545 LINE SMOOTH",
"157 545 OFFCURVE",
"128 552 OFFCURVE",
"128 617 CURVE SMOOTH",
"128 642 OFFCURVE",
"138 675 OFFCURVE",
"138 704 CURVE SMOOTH",
"138 746 OFFCURVE",
"122 783 OFFCURVE",
"112 807 CURVE"
);
},
{
closed = 1;
nodes = (
"390 740 LINE",
"320 740 LINE",
"320 608 LINE",
"390 608 LINE"
);
},
{
closed = 1;
nodes = (
"520 740 LINE",
"450 740 LINE",
"450 608 LINE",
"520 608 LINE"
);
},
{
closed = 1;
nodes = (
"260 740 LINE",
"190 740 LINE",
"190 608 LINE",
"260 608 LINE"
);
}
);
width = 608;
}
);
unicode = 10041;
},
{
glyphname = uni10042;
lastChange = "2019-08-21 19:20:35 +0000";
layers = (
{
layerId = UUID0;
paths = (
{
closed = 1;
nodes = (
"486 336 LINE",
"512 334 OFFCURVE",
"533 332 OFFCURVE",
"561 332 CURVE SMOOTH",
"595 332 OFFCURVE",
"625 344 OFFCURVE",
"645 393 CURVE",
"688 401 OFFCURVE",
"695 406 OFFCURVE",
"728 548 CURVE",
"680 546 OFFCURVE",
"661 545 OFFCURVE",
"626 545 CURVE SMOOTH",
"578 545 OFFCURVE",
"490 611 OFFCURVE",
"441 616 CURVE SMOOTH",
"277 632 LINE",
"276 774 OFFCURVE",
"226 810 OFFCURVE",
"125 810 CURVE SMOOTH",
"83 810 OFFCURVE",
"66 788 OFFCURVE",
"66 747 CURVE SMOOTH",
"66 636 OFFCURVE",
"127 594 OFFCURVE",
"207 578 CURVE",
"207 0 LINE",
"277 0 LINE",
"277 354 LINE"
);
},
{
closed = 1;
nodes = (
"384 556 LINE",
"338 544 LINE",
"340 531 LINE SMOOTH",
"344 507 OFFCURVE",
"356 481 OFFCURVE",
"382 481 CURVE SMOOTH",
"397 481 OFFCURVE",
"419 492 OFFCURVE",
"452 523 CURVE",
"427 531 OFFCURVE",
"415 541 OFFCURVE",
"408 556 CURVE",
"429 554 LINE SMOOTH",
"501 546 OFFCURVE",
"542 495 OFFCURVE",
"605 485 CURVE SMOOTH",
"615 483 OFFCURVE",
"636 481 OFFCURVE",
"644 481 CURVE",
"638 457 OFFCURVE",
"629 435 OFFCURVE",
"621 421 CURVE",
"578 421 LINE",
"573 402 OFFCURVE",
"562 395 OFFCURVE",
"538 395 CURVE SMOOTH",
"525 395 OFFCURVE",
"504 397 OFFCURVE",
"480 399 CURVE SMOOTH",
"277 418 LINE",
"277 570 LINE",
"384 560 LINE"
);
},
{
closed = 1;
nodes = (
"131 744 OFFCURVE",
"140 748 OFFCURVE",
"149 748 CURVE SMOOTH",
"185 748 OFFCURVE",
"206 726 OFFCURVE",
"207 643 CURVE",
"157 659 OFFCURVE",
"131 684 OFFCURVE",
"131 726 CURVE SMOOTH"
);
}
);
width = 772;
}
);
unicode = 10042;
},
{
glyphname = uni10043;
lastChange = "2019-08-21 19:20:35 +0000";
layers = (
{
layerId = UUID0;
paths = (
{
closed = 1;
nodes = (
"102 124 OFFCURVE",
"144 101 OFFCURVE",
"190 101 CURVE SMOOTH",
"214 101 OFFCURVE",
"246 111 OFFCURVE",
"267 125 CURVE",
"267 0 LINE",
"503 0 LINE",
"503 122 LINE",
"520 107 OFFCURVE",
"553 101 OFFCURVE",
"575 101 CURVE SMOOTH",
"621 101 OFFCURVE",
"663 124 OFFCURVE",
"663 175 CURVE SMOOTH",
"663 241 OFFCURVE",
"626 256 OFFCURVE",
"626 289 CURVE SMOOTH",
"626 307 OFFCURVE",
"641 317 OFFCURVE",
"689 317 CURVE",
"681 375 LINE",
"596 368 OFFCURVE",
"564 341 OFFCURVE",
"564 286 CURVE SMOOTH",
"564 233 OFFCURVE",
"609 199 OFFCURVE",
"609 173 CURVE SMOOTH",
"609 162 OFFCURVE",
"600 152 OFFCURVE",
"574 152 CURVE SMOOTH",
"557 152 OFFCURVE",
"527 158 OFFCURVE",
"503 173 CURVE",
"503 419 LINE",
"572 443 OFFCURVE",
"642 507 OFFCURVE",
"642 598 CURVE SMOOTH",
"642 732 OFFCURVE",
"503 810 OFFCURVE",
"389 810 CURVE SMOOTH",
"275 810 OFFCURVE",
"132 732 OFFCURVE",
"132 598 CURVE SMOOTH",
"132 510 OFFCURVE",
"197 444 OFFCURVE",
"267 422 CURVE",
"267 176 LINE",
"240 158 OFFCURVE",
"208 152 OFFCURVE",
"191 152 CURVE SMOOTH",
"165 152 OFFCURVE",
"156 162 OFFCURVE",
"156 173 CURVE SMOOTH",
"156 199 OFFCURVE",
"191 233 OFFCURVE",
"191 286 CURVE SMOOTH",
"191 346 OFFCURVE",
"144 369 OFFCURVE",
"74 375 CURVE",
"66 317 LINE",
"114 317 OFFCURVE",
"129 307 OFFCURVE",
"129 289 CURVE SMOOTH",
"129 256 OFFCURVE",
"102 241 OFFCURVE",
"102 175 CURVE SMOOTH"
);
},
{
closed = 1;
nodes = (
"332 670 LINE",
"267 670 LINE",
"267 482 LINE",
"231 497 OFFCURVE",
"202 549 OFFCURVE",
"202 598 CURVE SMOOTH",
"202 698 OFFCURVE",
"298 747 OFFCURVE",
"389 747 CURVE SMOOTH",
"480 747 OFFCURVE",
"572 698 OFFCURVE",
"572 598 CURVE SMOOTH",
"572 546 OFFCURVE",
"540 496 OFFCURVE",
"503 478 CURVE",
"503 670 LINE",
"438 670 LINE",
"438 202 LINE",
"332 202 LINE"
);
},
{
closed = 1;
nodes = (
"332 63 LINE",
"332 144 LINE",
"438 144 LINE",
"438 63 LINE"
);
}
);
width = 755;
}
);
unicode = 10043;
},
{
glyphname = uni10044;
lastChange = "2019-08-21 19:20:35 +0000";
layers = (
{
layerId = UUID0;
paths = (
{
closed = 1;
nodes = (
"359 671 LINE",
"105 671 LINE",
"105 608 LINE",
"176 608 LINE",
"66 0 LINE",
"398 0 LINE",
"287 608 LINE",
"359 608 LINE"
);
},
{
closed = 1;
nodes = (
"899 671 LINE",
"645 671 LINE",
"645 608 LINE",
"716 608 LINE",
"606 0 LINE",
"938 0 LINE",
"827 608 LINE",
"899 608 LINE"
);
},
{
closed = 1;
nodes = (
"205 429 LINE",
"213 481 OFFCURVE",
"225 582 OFFCURVE",
"230 620 CURVE",
"234 620 LINE",
"237 583 OFFCURVE",
"251 478 OFFCURVE",
"259 429 CURVE SMOOTH",
"315 63 LINE",
"148 63 LINE"
);
},
{
closed = 1;
nodes = (
"612 671 LINE",
"580 672 OFFCURVE",
"567 693 OFFCURVE",
"567 712 CURVE SMOOTH",
"567 732 OFFCURVE",
"580 750 OFFCURVE",
"611 750 CURVE",
"599 809 LINE",
"539 809 OFFCURVE",
"510 761 OFFCURVE",
"510 719 CURVE SMOOTH",
"510 687 OFFCURVE",
"527 655 OFFCURVE",
"560 644 CURVE",
"530 628 OFFCURVE",
"520 590 OFFCURVE",
"520 563 CURVE SMOOTH",
"520 525 OFFCURVE",
"547 491 OFFCURVE",
"599 491 CURVE",
"611 545 LINE",
"589 545 OFFCURVE",
"578 559 OFFCURVE",
"578 583 CURVE SMOOTH",
"578 606 OFFCURVE",
"589 622 OFFCURVE",
"612 622 CURVE"
);
},
{
closed = 1;
nodes = (
"391 624 LINE",
"422 623 OFFCURVE",
"431 602 OFFCURVE",
"431 583 CURVE SMOOTH",
"431 563 OFFCURVE",
"417 545 OFFCURVE",
"387 545 CURVE",
"399 491 LINE",
"459 491 OFFCURVE",
"488 534 OFFCURVE",
"488 576 CURVE SMOOTH",
"488 608 OFFCURVE",
"476 638 OFFCURVE",
"443 655 CURVE",
"470 677 OFFCURVE",
"483 705 OFFCURVE",
"483 732 CURVE SMOOTH",
"483 770 OFFCURVE",
"456 809 OFFCURVE",
"404 809 CURVE",
"392 750 LINE",
"414 750 OFFCURVE",
"425 736 OFFCURVE",
"425 712 CURVE SMOOTH",
"425 689 OFFCURVE",
"413 673 OFFCURVE",
"391 673 CURVE"
);
},
{
closed = 1;
nodes = (
"745 429 LINE",
"753 481 OFFCURVE",
"765 582 OFFCURVE",
"770 620 CURVE",
"774 620 LINE",
"777 583 OFFCURVE",
"791 478 OFFCURVE",
"799 429 CURVE SMOOTH",
"855 63 LINE",
"688 63 LINE"
);
}
);
width = 1004;
}
);
unicode = 10044;
},
{
glyphname = uni10045;
lastChange = "2019-08-21 19:20:35 +0000";
layers = (
{
layerId = UUID0;
paths = (
{
closed = 1;
nodes = (
"398 457 LINE",
"392 488 OFFCURVE",
"367 537 OFFCURVE",
"354 564 CURVE SMOOTH",
"331 611 LINE",
"331 800 LINE",
"269 800 LINE",
"274 650 LINE",
"229 650 LINE",
"234 800 LINE",
"172 800 LINE",
"177 650 LINE",
"134 650 LINE",
"139 800 LINE",
"77 800 LINE",
"77 595 LINE",
"217 595 LINE SMOOTH",
"263 595 OFFCURVE",
"275 575 OFFCURVE",
"290 546 CURVE SMOOTH",
"316 494 OFFCURVE",
"338 444 OFFCURVE",
"371 400 CURVE",
"353 378 OFFCURVE",
"338 348 OFFCURVE",
"326 322 CURVE SMOOTH",
"263 186 OFFCURVE",
"205 48 OFFCURVE",
"205 0 CURVE",
"277 0 LINE",
"277 40 OFFCURVE",
"316 142 OFFCURVE",
"363 251 CURVE SMOOTH",
"373 274 OFFCURVE",
"390 310 OFFCURVE",
"395 334 CURVE",
"399 334 LINE",
"406 309 OFFCURVE",
"420 273 OFFCURVE",
"430 251 CURVE SMOOTH",
"478 144 OFFCURVE",
"516 42 OFFCURVE",
"516 0 CURVE",
"593 0 LINE",
"593 48 OFFCURVE",
"534 185 OFFCURVE",
"471 322 CURVE SMOOTH",
"459 348 OFFCURVE",
"445 378 OFFCURVE",
"427 400 CURVE",
"456 443 OFFCURVE",
"481 497 OFFCURVE",
"505 546 CURVE SMOOTH",
"519 575 OFFCURVE",
"535 595 OFFCURVE",
"581 595 CURVE SMOOTH",
"721 595 LINE",
"721 800 LINE",
"659 800 LINE",
"664 650 LINE",
"627 650 LINE",
"627 800 LINE",
"564 800 LINE",
"569 650 LINE",
"525 650 LINE",
"530 800 LINE",
"467 800 LINE",
"467 611 LINE",
"443 564 LINE SMOOTH",
"427 532 OFFCURVE",
"408 488 OFFCURVE",
"402 457 CURVE"
);
}
);
width = 798;
}
);
unicode = 10045;
},
{
glyphname = uni10046;
lastChange = "2019-08-21 19:20:35 +0000";
layers = (
{
layerId = UUID0;
paths = (
{
closed = 1;
nodes = (
"410 626 LINE SMOOTH",
"410 648 OFFCURVE",
"407 665 OFFCURVE",
"405 679 CURVE",
"499 679 LINE",
"499 742 LINE",
"407 742 LINE",
"408 754 OFFCURVE",
"410 780 OFFCURVE",
"410 800 CURVE",
"341 800 LINE",
"341 780 OFFCURVE",
"342 754 OFFCURVE",
"343 742 CURVE",
"247 742 LINE",
"247 679 LINE",
"344 679 LINE",
"342 665 OFFCURVE",
"340 646 OFFCURVE",
"340 623 CURVE SMOOTH",
"340 424 LINE SMOOTH",
"340 382 OFFCURVE",
"342 351 OFFCURVE",
"344 330 CURVE",
"259 330 LINE",
"240 454 LINE SMOOTH",
"236 480 OFFCURVE",
"229 505 OFFCURVE",
"223 525 CURVE",
"309 536 LINE",
"301 599 LINE",
"215 588 LINE",
"214 605 OFFCURVE",
"212 630 OFFCURVE",
"207 666 CURVE SMOOTH",
"186 805 LINE",
"117 794 LINE",
"138 656 LINE SMOOTH",
"143 620 OFFCURVE",
"149 597 OFFCURVE",
"154 580 CURVE",
"55 568 LINE",
"63 505 LINE",
"165 518 LINE",
"167 498 OFFCURVE",
"167 472 OFFCURVE",
"171 446 CURVE SMOOTH",
"189 330 LINE",
"138 330 LINE",
"138 267 LINE",
"344 267 LINE",
"342 252 OFFCURVE",
"340 234 OFFCURVE",
"340 209 CURVE SMOOTH",
"340 0 LINE",
"410 0 LINE",
"410 212 LINE SMOOTH",
"410 235 OFFCURVE",
"407 253 OFFCURVE",
"405 267 CURVE",
"613 267 LINE",
"613 330 LINE",
"562 330 LINE",
"580 447 LINE SMOOTH",
"584 473 OFFCURVE",
"584 499 OFFCURVE",
"585 519 CURVE",
"691 506 LINE",
"699 569 LINE",
"597 582 LINE",
"602 598 OFFCURVE",
"607 621 OFFCURVE",
"613 657 CURVE SMOOTH",
"634 794 LINE",
"565 805 LINE",
"544 667 LINE SMOOTH",
"539 631 OFFCURVE",
"536 607 OFFCURVE",
"536 589 CURVE",
"453 600 LINE",
"445 537 LINE",
"527 526 LINE",
"522 506 OFFCURVE",
"515 481 OFFCURVE",
"511 455 CURVE SMOOTH",
"491 330 LINE",
"405 330 LINE",
"408 352 OFFCURVE",
"410 382 OFFCURVE",
"410 424 CURVE SMOOTH"
);
}
);
width = 754;
}
);
unicode = 10046;
},
{
glyphname = uni10047;
lastChange = "2019-08-21 19:20:35 +0000";
layers = (
{
layerId = UUID0;
paths = (
{
closed = 1;
nodes = (
"111 800 LINE",
"111 0 LINE",
"608 0 LINE",
"608 800 LINE",
"521 800 LINE SMOOTH",
"392 800 OFFCURVE",
"431 500 OFFCURVE",
"352 500 CURVE SMOOTH",
"273 500 OFFCURVE",
"330 800 OFFCURVE",
"198 800 CURVE"
);
},
{
closed = 1;
nodes = (
"178 63 LINE",
"178 737 LINE",
"187 737 LINE SMOOTH",
"258 737 OFFCURVE",
"203 437 OFFCURVE",
"352 437 CURVE SMOOTH",
"497 437 OFFCURVE",
"456 737 OFFCURVE",
"531 737 CURVE SMOOTH",
"541 737 LINE",
"541 63 LINE"
);
}
);
width = 719;
}
);
unicode = 10047;
},
{
glyphname = uni10048;
lastChange = "2019-08-21 19:20:35 +0000";
layers = (
{
layerId = UUID0;
paths = (
{
closed = 1;
nodes = (
"576 608 LINE",
"376 608 LINE",
"407 662 OFFCURVE",
"504 685 OFFCURVE",
"535 777 CURVE",
"477 810 LINE",
"446 721 OFFCURVE",
"338 688 OFFCURVE",
"317 608 CURVE",
"174 608 LINE",
"205 662 OFFCURVE",
"302 685 OFFCURVE",
"333 777 CURVE",
"275 810 LINE",
"244 721 OFFCURVE",
"136 688 OFFCURVE",
"115 608 CURVE",
"33 608 LINE",
"33 545 LINE",
"115 545 LINE",
"130 460 OFFCURVE",
"239 476 OFFCURVE",
"239 391 CURVE SMOOTH",
"239 374 OFFCURVE",
"236 355 OFFCURVE",
"230 331 CURVE SMOOTH",
"145 0 LINE",
"209 -10 LINE",
"295 316 LINE SMOOTH",
"304 350 OFFCURVE",
"308 379 OFFCURVE",
"308 403 CURVE SMOOTH",
"308 487 OFFCURVE",
"194 509 OFFCURVE",
"174 545 CURVE",
"317 545 LINE",
"340 451 OFFCURVE",
"441 476 OFFCURVE",
"441 391 CURVE SMOOTH",
"441 374 OFFCURVE",
"438 355 OFFCURVE",
"432 331 CURVE SMOOTH",
"347 0 LINE",
"411 -10 LINE",
"497 316 LINE SMOOTH",
"506 350 OFFCURVE",
"510 379 OFFCURVE",
"510 403 CURVE SMOOTH",
"510 486 OFFCURVE",
"397 506 OFFCURVE",
"374 545 CURVE",
"576 545 LINE"
);
}
);
width = 642;
}
);
unicode = 10048;
},
{
glyphname = uni10049;
lastChange = "2019-08-21 19:20:35 +0000";
layers = (
{
layerId = UUID0;
paths = (
{
closed = 1;
nodes = (
"552 810 LINE",
"536 792 OFFCURVE",
"534 767 OFFCURVE",
"534 751 CURVE SMOOTH",
"534 706 OFFCURVE",
"562 667 OFFCURVE",
"562 620 CURVE SMOOTH",
"562 520 OFFCURVE",
"481 481 OFFCURVE",
"375 481 CURVE SMOOTH",
"269 481 OFFCURVE",
"192 520 OFFCURVE",
"192 620 CURVE SMOOTH",
"192 671 OFFCURVE",
"221 708 OFFCURVE",
"221 751 CURVE SMOOTH",
"221 767 OFFCURVE",
"219 794 OFFCURVE",
"202 814 CURVE",
"134 790 LINE",
"146 772 OFFCURVE",
"151 757 OFFCURVE",
"151 744 CURVE SMOOTH",
"151 701 OFFCURVE",
"122 670 OFFCURVE",
"122 620 CURVE SMOOTH",
"122 496 OFFCURVE",
"222 428 OFFCURVE",
"345 419 CURVE",
"343 403 OFFCURVE",
"340 383 OFFCURVE",
"340 355 CURVE SMOOTH",
"340 0 LINE",
"410 0 LINE",
"410 358 LINE SMOOTH",
"410 385 OFFCURVE",
"406 404 OFFCURVE",
"404 419 CURVE",
"528 428 OFFCURVE",
"632 495 OFFCURVE",
"632 620 CURVE SMOOTH",
"632 668 OFFCURVE",
"604 703 OFFCURVE",
"604 746 CURVE SMOOTH",
"604 760 OFFCURVE",
"609 774 OFFCURVE",
"621 791 CURVE"
);
},
{
closed = 1;
nodes = (
"491 549 LINE",
"403 714 LINE",
"341 714 LINE",
"253 549 LINE",
"313 520 LINE",
"335 563 LINE SMOOTH",
"355 601 OFFCURVE",
"365 636 OFFCURVE",
"369 663 CURVE",
"373 663 LINE",
"376 636 OFFCURVE",
"401 580 OFFCURVE",
"411 560 CURVE",
"432 518 LINE"
);
},
{
closed = 1;
nodes = (
"273 128 LINE",
"128 128 LINE",
"128 65 LINE",
"273 65 LINE"
);
},
{
closed = 1;
nodes = (
"273 258 LINE",
"128 258 LINE",
"128 195 LINE",
"273 195 LINE"
);
},
{
closed = 1;
nodes = (
"622 258 LINE",
"477 258 LINE",
"477 195 LINE",
"622 195 LINE"
);
},
{
closed = 1;
nodes = (
"622 128 LINE",
"477 128 LINE",
"477 65 LINE",
"622 65 LINE"
);
},
{
closed = 1;
nodes = (
"622 388 LINE",
"477 388 LINE",
"477 325 LINE",
"622 325 LINE"
);
},
{
closed = 1;
nodes = (
"273 388 LINE",
"128 388 LINE",
"128 325 LINE",
"273 325 LINE"
);
}
);
width = 750;
}
);
unicode = 10049;
},
{
glyphname = uni1004A;
lastChange = "2019-08-21 19:20:35 +0000";
layers = (
{
layerId = UUID0;
paths = (
{
closed = 1;
nodes = (
"594 170 OFFCURVE",
"510 114 OFFCURVE",
"473 98 CURVE SMOOTH",
"431 80 OFFCURVE",
"409 58 OFFCURVE",
"396 44 CURVE",
"393 46 LINE",
"396 67 OFFCURVE",
"399 118 OFFCURVE",
"399 158 CURVE SMOOTH",
"399 545 LINE",
"502 545 LINE",
"502 608 LINE",
"399 608 LINE",
"399 800 LINE",
"329 800 LINE",
"329 608 LINE",
"227 608 LINE",
"227 545 LINE",
"329 545 LINE",
"329 156 LINE SMOOTH",
"329 115 OFFCURVE",
"332 68 OFFCURVE",
"335 47 CURVE",
"332 46 LINE",
"323 59 OFFCURVE",
"294 83 OFFCURVE",
"257 98 CURVE SMOOTH",
"214 116 OFFCURVE",
"136 175 OFFCURVE",
"136 276 CURVE SMOOTH",
"136 331 OFFCURVE",
"149 349 OFFCURVE",
"192 362 CURVE SMOOTH",
"216 369 OFFCURVE",
"253 384 OFFCURVE",
"253 426 CURVE SMOOTH",
"253 450 OFFCURVE",
"241 478 OFFCURVE",
"217 513 CURVE",
"168 484 LINE",
"179 464 OFFCURVE",
"185 449 OFFCURVE",
"185 438 CURVE SMOOTH",
"185 425 OFFCURVE",
"175 421 OFFCURVE",
"153 413 CURVE SMOOTH",
"95 393 OFFCURVE",
"66 358 OFFCURVE",
"66 278 CURVE SMOOTH",
"66 62 OFFCURVE",
"348 -4 OFFCURVE",
"365 -10 CURVE",
"388 -4 OFFCURVE",
"664 64 OFFCURVE",
"664 278 CURVE SMOOTH",
"664 358 OFFCURVE",
"635 393 OFFCURVE",
"577 413 CURVE SMOOTH",
"555 421 OFFCURVE",
"545 425 OFFCURVE",
"545 438 CURVE SMOOTH",
"545 449 OFFCURVE",
"551 464 OFFCURVE",
"562 484 CURVE",
"513 513 LINE",
"489 478 OFFCURVE",
"477 450 OFFCURVE",
"477 426 CURVE SMOOTH",
"477 384 OFFCURVE",
"514 369 OFFCURVE",
"538 362 CURVE SMOOTH",
"581 349 OFFCURVE",
"594 331 OFFCURVE",
"594 276 CURVE SMOOTH"
);
}
);
width = 730;
}
);
unicode = 1004A;
},
{
glyphname = uni1004B;
lastChange = "2019-08-21 19:20:35 +0000";
layers = (
{
layerId = UUID0;
paths = (
{
closed = 1;
nodes = (
"564 0 LINE",
"564 254 OFFCURVE",
"629 618 OFFCURVE",
"664 800 CURVE",
"88 800 LINE",
"125 618 OFFCURVE",
"188 267 OFFCURVE",
"188 0 CURVE",
"255 0 LINE",
"286 64 OFFCURVE",
"338 132 OFFCURVE",
"371 170 CURVE",
"402 135 OFFCURVE",
"463 63 OFFCURVE",
"497 0 CURVE"
);
},
{
closed = 1;
nodes = (
"510 70 LINE",
"488 120 OFFCURVE",
"426 217 OFFCURVE",
"395 249 CURVE",
"359 249 LINE",
"326 216 OFFCURVE",
"260 115 OFFCURVE",
"241 69 CURVE",
"238 71 LINE",
"243 106 OFFCURVE",
"244 138 OFFCURVE",
"244 158 CURVE SMOOTH",
"244 180 OFFCURVE",
"242 206 OFFCURVE",
"239 241 CURVE SMOOTH",
"223 412 OFFCURVE",
"185 662 OFFCURVE",
"170 737 CURVE",
"582 737 LINE",
"567 662 OFFCURVE",
"528 411 OFFCURVE",
"511 241 CURVE SMOOTH",
"508 206 OFFCURVE",
"506 172 OFFCURVE",
"506 156 CURVE SMOOTH",
"506 134 OFFCURVE",
"506 103 OFFCURVE",
"513 71 CURVE"
);
},
{
closed = 1;
nodes = (
"296 673 LINE",
"234 673 LINE",
"234 527 LINE",
"296 527 LINE"
);
},
{
closed = 1;
nodes = (
"516 673 LINE",
"454 673 LINE",
"454 527 LINE",
"516 527 LINE"
);
},
{
closed = 1;
nodes = (
"406 673 LINE",
"344 673 LINE",
"344 527 LINE",
"406 527 LINE"
);
},
{
closed = 1;
nodes = (
"351 457 LINE",
"289 457 LINE",
"289 311 LINE",
"351 311 LINE"
);
},
{
closed = 1;
nodes = (
"461 457 LINE",
"399 457 LINE",
"399 311 LINE",
"461 311 LINE"
);
}
);
width = 752;
}
);
unicode = 1004B;
},
{
glyphname = uni1004C;
lastChange = "2019-08-21 19:20:35 +0000";
layers = (
{
layerId = UUID0;
paths = (
{
closed = 1;
nodes = (
"111 0 LINE",
"278 0 OFFCURVE",
"467 74 OFFCURVE",
"467 235 CURVE SMOOTH",
"467 354 OFFCURVE",
"394 398 OFFCURVE",
"332 419 CURVE",
"402 449 OFFCURVE",
"452 501 OFFCURVE",
"452 584 CURVE SMOOTH",
"452 726 OFFCURVE",
"337 800 OFFCURVE",
"159 800 CURVE SMOOTH",
"111 800 LINE"
);
},
{
closed = 1;
nodes = (
"382 479 OFFCURVE",
"293 446 OFFCURVE",
"215 445 CURVE",
"215 382 LINE",
"305 382 OFFCURVE",
"397 332 OFFCURVE",
"397 235 CURVE SMOOTH",
"397 133 OFFCURVE",
"290 72 OFFCURVE",
"181 62 CURVE",
"181 740 LINE",
"312 736 OFFCURVE",
"382 672 OFFCURVE",
"382 584 CURVE SMOOTH"
);
}
);
width = 544;
}
);
unicode = 1004C;
},
{
glyphname = uni1004D;
lastChange = "2019-08-21 19:20:35 +0000";
layers = (
{
layerId = UUID0;
paths = (
{
closed = 1;
nodes = (
"366 814 LINE",
"33 344 LINE",
"87 305 LINE",
"128 363 LINE",
"165 247 OFFCURVE",
"213 47 OFFCURVE",
"213 0 CURVE",
"274 0 LINE",
"326 63 LINE SMOOTH",
"359 103 OFFCURVE",
"370 128 OFFCURVE",
"378 157 CURVE",
"382 157 LINE",
"388 131 OFFCURVE",
"401 101 OFFCURVE",
"438 57 CURVE SMOOTH",
"486 0 LINE",
"545 0 LINE",
"545 47 OFFCURVE",
"603 250 OFFCURVE",
"646 366 CURVE",
"690 305 LINE",
"744 344 LINE",
"406 814 LINE"
);
},
{
closed = 1;
nodes = (
"334 654 LINE SMOOTH",
"369 703 OFFCURVE",
"385 733 OFFCURVE",
"386 734 CURVE",
"387 731 OFFCURVE",
"405 699 OFFCURVE",
"436 656 CURVE SMOOTH",
"598 431 LINE",
"563 337 OFFCURVE",
"501 114 OFFCURVE",
"501 77 CURVE",
"406 210 LINE",
"364 210 LINE",
"268 82 LINE",
"268 124 OFFCURVE",
"214 336 OFFCURVE",
"177 432 CURVE"
);
},
{
closed = 1;
nodes = (
"502 328 LINE",
"277 328 LINE",
"277 265 LINE",
"502 265 LINE"
);
},
{
closed = 1;
nodes = (
"502 448 LINE",
"277 448 LINE",
"277 385 LINE",
"502 385 LINE"
);
},
{
closed = 1;
nodes = (
"472 570 LINE",
"307 570 LINE",
"307 507 LINE",
"472 507 LINE"
);
}
);
width = 777;
}
);
unicode = 1004D;
},
{
glyphname = uni10050;
lastChange = "2019-08-21 19:20:35 +0000";
layers = (
{
layerId = UUID0;
paths = (
{
closed = 1;
nodes = (
"404 300 LINE",
"422 306 OFFCURVE",
"461 325 OFFCURVE",
"503 369 CURVE SMOOTH",
"526 393 LINE",
"483 441 LINE",
"377 330 LINE",
"318 330 LINE",
"318 389 LINE",
"357 408 OFFCURVE",
"417 455 OFFCURVE",
"417 532 CURVE SMOOTH",
"417 569 OFFCURVE",
"406 613 OFFCURVE",
"381 635 CURVE",
"430 776 LINE",
"371 794 LINE",
"351 725 LINE SMOOTH",
"343 698 OFFCURVE",
"341 678 OFFCURVE",
"339 664 CURVE",
"330 668 OFFCURVE",
"311 673 OFFCURVE",
"301 675 CURVE",
"303 682 OFFCURVE",
"309 704 OFFCURVE",
"309 722 CURVE SMOOTH",
"309 800 LINE",
"251 800 LINE",
"251 722 LINE SMOOTH",
"251 704 OFFCURVE",
"254 690 OFFCURVE",
"258 674 CURVE",
"247 673 OFFCURVE",
"227 668 OFFCURVE",
"218 664 CURVE",
"217 679 OFFCURVE",
"216 693 OFFCURVE",
"207 725 CURVE SMOOTH",
"187 794 LINE",
"128 776 LINE",
"177 631 LINE",
"159 605 OFFCURVE",
"151 566 OFFCURVE",
"151 529 CURVE SMOOTH",
"151 456 OFFCURVE",
"209 409 OFFCURVE",
"248 390 CURVE",
"248 330 LINE",
"55 330 LINE",
"55 267 LINE",
"248 267 LINE",
"248 0 LINE",
"318 0 LINE",
"318 267 LINE",
"378 267 LINE",
"483 157 LINE",
"526 205 LINE",
"503 229 LINE SMOOTH",
"461 273 OFFCURVE",
"422 289 OFFCURVE",
"404 295 CURVE"
);
},
{
closed = 1;
nodes = (
"327 623 OFFCURVE",
"346 582 OFFCURVE",
"346 528 CURVE SMOOTH",
"346 473 OFFCURVE",
"307 432 OFFCURVE",
"283 432 CURVE SMOOTH",
"259 432 OFFCURVE",
"220 473 OFFCURVE",
"220 529 CURVE SMOOTH",
"220 582 OFFCURVE",
"240 623 OFFCURVE",
"282 623 CURVE SMOOTH"
);
}
);
width = 563;
}
);
unicode = 10050;
},
{
glyphname = uni10051;
lastChange = "2019-08-21 19:20:35 +0000";
layers = (
{
layerId = UUID0;
paths = (
{
closed = 1;
nodes = (
"271 488 LINE",
"256 491 OFFCURVE",
"221 500 OFFCURVE",
"173 500 CURVE SMOOTH",
"77 500 LINE",
"77 437 LINE",
"171 437 LINE SMOOTH",
"208 437 OFFCURVE",
"251 442 OFFCURVE",
"268 445 CURVE",
"270 440 LINE",
"229 407 OFFCURVE",
"190 285 OFFCURVE",
"149 0 CURVE",
"457 0 LINE",
"408 285 OFFCURVE",
"376 404 OFFCURVE",
"335 440 CURVE",
"338 445 LINE",
"354 442 OFFCURVE",
"402 437 OFFCURVE",
"449 437 CURVE SMOOTH",
"530 437 LINE",
"530 500 LINE",
"446 500 LINE SMOOTH",
"396 500 OFFCURVE",
"353 487 OFFCURVE",
"341 484 CURVE",
"338 489 LINE",
"377 512 OFFCURVE",
"427 572 OFFCURVE",
"427 662 CURVE SMOOTH",
"427 735 OFFCURVE",
"383 807 OFFCURVE",
"305 807 CURVE SMOOTH",
"204 807 OFFCURVE",
"185 728 OFFCURVE",
"185 659 CURVE SMOOTH",
"185 570 OFFCURVE",
"237 512 OFFCURVE",
"273 492 CURVE"
);
},
{
closed = 1;
nodes = (
"316 382 OFFCURVE",
"327 329 OFFCURVE",
"376 63 CURVE",
"226 63 LINE",
"270 326 OFFCURVE",
"287 382 OFFCURVE",
"302 382 CURVE SMOOTH"
);
},
{
closed = 1;
nodes = (
"349 750 OFFCURVE",
"355 691 OFFCURVE",
"355 652 CURVE SMOOTH",
"355 560 OFFCURVE",
"329 515 OFFCURVE",
"305 515 CURVE SMOOTH",
"281 515 OFFCURVE",
"255 561 OFFCURVE",
"255 652 CURVE SMOOTH",
"255 693 OFFCURVE",
"262 750 OFFCURVE",
"304 750 CURVE SMOOTH"
);
}
);
width = 607;
}
);
unicode = 10051;
},
{
glyphname = uni10052;
lastChange = "2019-08-21 19:20:35 +0000";
layers = (
{
layerId = UUID0;
paths = (
{
closed = 1;
nodes = (
"175 683 LINE",
"207 712 OFFCURVE",
"222 734 OFFCURVE",
"227 743 CURVE",
"231 743 LINE",
"236 734 OFFCURVE",
"252 711 OFFCURVE",
"281 685 CURVE SMOOTH",
"378 598 LINE",
"426 650 LINE",
"254 801 LINE",
"205 801 LINE",
"33 650 LINE",
"81 598 LINE"
);
},
{
closed = 1;
nodes = (
"511 737 LINE",
"650 737 OFFCURVE",
"608 573 OFFCURVE",
"750 544 CURVE",
"770 603 LINE",
"677 623 OFFCURVE",
"689 800 OFFCURVE",
"511 800 CURVE SMOOTH",
"441 800 LINE",
"441 0 LINE",
"511 0 LINE"
);
}
);
width = 793;
}
);
unicode = 10052;
},
{
glyphname = uni10053;
lastChange = "2019-08-21 19:20:35 +0000";
layers = (
{
layerId = UUID0;
paths = (
{
closed = 1;
nodes = (
"417 502 OFFCURVE",
"357 560 OFFCURVE",
"288 580 CURVE",
"321 661 OFFCURVE",
"384 725 OFFCURVE",
"472 754 CURVE",
"445 814 LINE",
"335 780 OFFCURVE",
"261 694 OFFCURVE",
"223 587 CURVE",
"137 581 OFFCURVE",
"55 519 OFFCURVE",
"55 417 CURVE SMOOTH",
"55 317 OFFCURVE",
"134 255 OFFCURVE",
"219 248 CURVE",
"257 134 OFFCURVE",
"332 34 OFFCURVE",
"427 -10 CURVE",
"462 46 LINE",
"384 83 OFFCURVE",
"317 160 OFFCURVE",
"284 254 CURVE",
"354 273 OFFCURVE",
"417 330 OFFCURVE",
"417 417 CURVE SMOOTH"
);
},
{
closed = 1;
nodes = (
"258 447 OFFCURVE",
"263 490 OFFCURVE",
"271 527 CURVE",
"317 523 OFFCURVE",
"350 476 OFFCURVE",
"350 417 CURVE SMOOTH",
"350 358 OFFCURVE",
"315 311 OFFCURVE",
"269 306 CURVE",
"262 337 OFFCURVE",
"258 374 OFFCURVE",
"258 407 CURVE SMOOTH"
);
},
{
closed = 1;
nodes = (
"121 479 OFFCURVE",
"162 525 OFFCURVE",
"211 528 CURVE",
"203 490 OFFCURVE",
"198 446 OFFCURVE",
"198 407 CURVE SMOOTH",
"198 375 OFFCURVE",
"202 337 OFFCURVE",
"208 305 CURVE",
"155 311 OFFCURVE",
"121 357 OFFCURVE",
"121 417 CURVE SMOOTH"
);
}
);
width = 560;
}
);
unicode = 10053;
},
{
glyphname = uni10054;
lastChange = "2019-08-21 19:20:35 +0000";
layers = (
{
layerId = UUID0;
paths = (
{
closed = 1;
nodes = (
"467 342 OFFCURVE",
"428 335 OFFCURVE",
"405 335 CURVE SMOOTH",
"381 335 OFFCURVE",
"341 342 OFFCURVE",
"326 357 CURVE",
"345 390 OFFCURVE",
"382 443 OFFCURVE",
"404 473 CURVE",
"426 443 OFFCURVE",
"462 391 OFFCURVE",
"483 357 CURVE"
);
},
{
closed = 1;
nodes = (
"457 544 OFFCURVE",
"495 582 OFFCURVE",
"518 607 CURVE",
"530 582 OFFCURVE",
"541 551 OFFCURVE",
"541 509 CURVE SMOOTH",
"541 467 OFFCURVE",
"532 430 OFFCURVE",
"520 405 CURVE",
"498 438 OFFCURVE",
"458 486 OFFCURVE",
"435 517 CURVE"
);
},
{
closed = 1;
nodes = (
"346 672 OFFCURVE",
"380 681 OFFCURVE",
"405 681 CURVE SMOOTH",
"429 681 OFFCURVE",
"464 671 OFFCURVE",
"483 654 CURVE",
"461 629 OFFCURVE",
"424 587 OFFCURVE",
"404 559 CURVE",
"382 586 OFFCURVE",
"347 629 OFFCURVE",
"324 654 CURVE"
);
},
{
closed = 1;
nodes = (
"270 552 OFFCURVE",
"279 582 OFFCURVE",
"290 606 CURVE",
"312 582 OFFCURVE",
"351 543 OFFCURVE",
"373 517 CURVE",
"350 487 OFFCURVE",
"311 439 OFFCURVE",
"289 407 CURVE",
"278 431 OFFCURVE",
"270 466 OFFCURVE",
"270 509 CURVE SMOOTH"
);
},
{
closed = 1;
nodes = (
"591 677 OFFCURVE",
"631 717 OFFCURVE",
"695 772 CURVE",
"646 820 LINE",
"604 783 OFFCURVE",
"560 743 OFFCURVE",
"517 698 CURVE",
"485 723 OFFCURVE",
"445 741 OFFCURVE",
"404 741 CURVE SMOOTH",
"363 741 OFFCURVE",
"324 723 OFFCURVE",
"291 697 CURVE",
"248 742 OFFCURVE",
"204 782 OFFCURVE",
"162 819 CURVE",
"113 771 LINE",
"172 718 OFFCURVE",
"212 680 OFFCURVE",
"247 646 CURVE",
"224 610 OFFCURVE",
"203 563 OFFCURVE",
"203 509 CURVE SMOOTH",
"203 448 OFFCURVE",
"228 397 OFFCURVE",
"256 358 CURVE",
"196 257 OFFCURVE",
"142 143 OFFCURVE",
"101 18 CURVE",
"166 -10 LINE",
"205 111 OFFCURVE",
"252 218 OFFCURVE",
"305 312 CURVE",
"335 288 OFFCURVE",
"369 276 OFFCURVE",
"404 276 CURVE SMOOTH",
"439 276 OFFCURVE",
"473 289 OFFCURVE",
"503 311 CURVE",
"556 217 OFFCURVE",
"602 111 OFFCURVE",
"642 -10 CURVE",
"707 18 LINE",
"666 142 OFFCURVE",
"613 254 OFFCURVE",
"553 355 CURVE",
"583 394 OFFCURVE",
"609 446 OFFCURVE",
"609 509 CURVE SMOOTH",
"609 564 OFFCURVE",
"589 612 OFFCURVE",
"562 648 CURVE"
);
}
);
width = 804;
}
);
unicode = 10054;
},
{
glyphname = uni10055;
lastChange = "2019-08-21 19:20:35 +0000";
layers = (
{
layerId = UUID0;
paths = (
{
closed = 1;
nodes = (
"565 0 LINE",
"565 60 LINE",
"520 60 LINE",
"520 198 LINE",
"565 198 LINE",
"565 258 LINE",
"520 258 LINE",
"520 608 LINE",
"450 608 LINE",
"450 258 LINE",
"404 258 LINE",
"404 198 LINE",
"450 198 LINE",
"450 60 LINE",
"404 60 LINE",
"404 0 LINE"
);
},
{
closed = 1;
nodes = (
"311 608 LINE",
"245 615 LINE",
"186 270 LINE",
"138 275 LINE",
"130 215 LINE",
"176 210 LINE",
"152 71 LINE",
"105 76 LINE",
"97 16 LINE",
"259 0 LINE",
"265 59 LINE",
"223 63 LINE",
"245 203 LINE",
"290 199 LINE",
"298 258 LINE",
"255 262 LINE"
);
},
{
closed = 1;
nodes = (
"660 608 LINE",
"714 263 LINE",
"667 258 LINE",
"674 199 LINE",
"723 204 LINE",
"745 64 LINE",
"698 59 LINE",
"704 0 LINE",
"864 16 LINE",
"858 76 LINE",
"813 71 LINE",
"791 210 LINE",
"834 215 LINE",
"827 275 LINE",
"781 270 LINE",
"725 618 LINE"
);
},
{
closed = 1;
nodes = (
"697 747 OFFCURVE",
"730 710 OFFCURVE",
"748 657 CURVE",
"813 677 LINE",
"782 757 OFFCURVE",
"727 810 OFFCURVE",
"633 810 CURVE SMOOTH",
"562 810 OFFCURVE",
"510 784 OFFCURVE",
"485 725 CURVE",
"463 782 OFFCURVE",
"407 810 OFFCURVE",
"337 810 CURVE SMOOTH",
"243 810 OFFCURVE",
"188 757 OFFCURVE",
"157 677 CURVE",
"222 657 LINE",
"240 710 OFFCURVE",
"273 747 OFFCURVE",
"337 747 CURVE SMOOTH",
"412 747 OFFCURVE",
"440 711 OFFCURVE",
"448 662 CURVE",
"522 662 LINE",
"530 711 OFFCURVE",
"557 747 OFFCURVE",
"633 747 CURVE SMOOTH"
);
}
);
width = 963;
}
);
unicode = 10055;
},
{
glyphname = uni10056;
lastChange = "2019-08-21 19:20:35 +0000";
layers = (
{
layerId = UUID0;
paths = (
{
closed = 1;
nodes = (
"592 800 LINE",
"522 800 LINE",
"522 0 LINE",
"592 0 LINE"
);
},
{
closed = 1;
nodes = (
"444 608 LINE",
"259 608 LINE",
"259 545 LINE",
"444 545 LINE"
);
},
{
closed = 1;
nodes = (
"444 308 LINE",
"259 308 LINE",
"259 245 LINE",
"444 245 LINE"
);
},
{
closed = 1;
nodes = (
"444 458 LINE",
"259 458 LINE",
"259 395 LINE",
"444 395 LINE"
);
},
{
closed = 1;
nodes = (
"181 800 LINE",
"111 800 LINE",
"111 0 LINE",
"181 0 LINE"
);
}
);
width = 703;
}
);
unicode = 10056;
},
{
glyphname = uni10057;
lastChange = "2019-08-21 19:20:35 +0000";
layers = (
{
layerId = UUID0;
paths = (
{
closed = 1;
nodes = (
"360 736 LINE",
"499 736 OFFCURVE",
"455 544 OFFCURVE",
"609 544 CURVE",
"609 328 LINE",
"430 328 LINE",
"430 700 LINE",
"360 700 LINE",
"360 608 LINE",
"266 608 OFFCURVE",
"289 800 OFFCURVE",
"111 800 CURVE",
"111 736 LINE",
"250 736 OFFCURVE",
"206 544 OFFCURVE",
"360 544 CURVE",
"360 328 LINE",
"181 328 LINE",
"181 700 LINE",
"111 700 LINE",
"111 0 LINE",
"676 0 LINE",
"676 700 LINE",
"609 700 LINE",
"609 608 LINE",
"515 608 OFFCURVE",
"538 800 OFFCURVE",
"360 800 CURVE"
);
},
{
closed = 1;
nodes = (
"430 63 LINE",
"430 265 LINE",
"609 265 LINE",
"609 63 LINE"
);
},
{
closed = 1;
nodes = (
"181 265 LINE",
"360 265 LINE",
"360 63 LINE",
"181 63 LINE"
);
},
{
closed = 1;
nodes = (
"609 736 LINE",
"748 736 OFFCURVE",
"704 544 OFFCURVE",
"858 544 CURVE",
"858 608 LINE",
"764 608 OFFCURVE",
"787 800 OFFCURVE",
"609 800 CURVE"
);
}
);
width = 891;
}
);
unicode = 10057;
},
{
glyphname = uni10058;
lastChange = "2019-08-21 19:20:35 +0000";
layers = (
{
layerId = UUID0;
paths = (
{
closed = 1;
nodes = (
"670 256 LINE",
"639 256 LINE",
"536 367 LINE SMOOTH",
"523 381 OFFCURVE",
"506 395 OFFCURVE",
"498 403 CURVE",
"508 411 OFFCURVE",
"522 424 OFFCURVE",
"534 437 CURVE SMOOTH",
"635 545 LINE",
"670 545 LINE",
"670 608 LINE",
"244 608 LINE",
"244 545 LINE",
"278 545 LINE",
"379 436 LINE SMOOTH",
"391 423 OFFCURVE",
"401 413 OFFCURVE",
"414 403 CURVE",
"403 394 OFFCURVE",
"389 381 OFFCURVE",
"379 370 CURVE SMOOTH",
"273 256 LINE",
"244 256 LINE",
"244 193 LINE",
"670 193 LINE"
);
},
{
closed = 1;
nodes = (
"611 800 LINE",
"611 737 LINE",
"742 737 LINE",
"742 63 LINE",
"611 63 LINE",
"611 0 LINE",
"812 0 LINE",
"812 800 LINE"
);
},
{
closed = 1;
nodes = (
"111 800 LINE",
"111 0 LINE",
"312 0 LINE",
"312 63 LINE",
"181 63 LINE",
"181 737 LINE",
"312 737 LINE",
"312 800 LINE"
);
},
{
closed = 1;
nodes = (
"400 256 LINE SMOOTH",
"381 256 OFFCURVE",
"362 256 OFFCURVE",
"352 254 CURVE",
"350 257 LINE",
"366 268 OFFCURVE",
"379 280 OFFCURVE",
"400 301 CURVE SMOOTH",
"415 316 LINE SMOOTH",
"432 333 OFFCURVE",
"447 359 OFFCURVE",
"453 375 CURVE",
"457 375 LINE",
"462 359 OFFCURVE",
"478 336 OFFCURVE",
"497 316 CURVE SMOOTH",
"512 301 LINE SMOOTH",
"533 280 OFFCURVE",
"546 268 OFFCURVE",
"562 257 CURVE",
"560 254 LINE",
"550 256 OFFCURVE",
"531 256 OFFCURVE",
"512 256 CURVE SMOOTH"
);
},
{
closed = 1;
nodes = (
"511 545 LINE SMOOTH",
"530 545 OFFCURVE",
"546 545 OFFCURVE",
"557 547 CURVE",
"558 544 LINE",
"544 537 OFFCURVE",
"534 527 OFFCURVE",
"512 505 CURVE SMOOTH",
"493 486 LINE SMOOTH",
"477 470 OFFCURVE",
"463 444 OFFCURVE",
"458 433 CURVE",
"454 433 LINE",
"449 444 OFFCURVE",
"432 471 OFFCURVE",
"415 489 CURVE SMOOTH",
"400 505 LINE SMOOTH",
"379 527 OFFCURVE",
"368 537 OFFCURVE",
"354 544 CURVE",
"355 547 LINE",
"366 545 OFFCURVE",
"382 545 OFFCURVE",
"401 545 CURVE SMOOTH"
);
}
);
width = 923;
}
);
unicode = 10058;
},
{
glyphname = uni10059;
lastChange = "2019-08-21 19:20:35 +0000";
layers = (
{
layerId = UUID0;
paths = (
{
closed = 1;
nodes = (
"142 377 LINE",
"11 246 LINE",
"56 202 LINE",
"186 332 LINE"
);
},
{
closed = 1;
nodes = (
"354 165 LINE",
"223 34 LINE",
"268 -10 LINE",
"399 120 LINE"
);
},
{
closed = 1;
nodes = (
"248 271 LINE",
"117 140 LINE",
"162 96 LINE",
"292 226 LINE"
);
},
{
closed = 1;
nodes = (
"603 811 LINE",
"472 681 LINE",
"517 636 LINE",
"648 767 LINE"
);
},
{
closed = 1;
nodes = (
"815 599 LINE",
"685 469 LINE",
"729 424 LINE",
"860 555 LINE"
);
},
{
closed = 1;
nodes = (
"709 705 LINE",
"579 575 LINE",
"623 530 LINE",
"754 661 LINE"
);
},
{
closed = 1;
nodes = (
"230 583 OFFCURVE",
"258 615 OFFCURVE",
"299 615 CURVE SMOOTH",
"435 615 OFFCURVE",
"643 408 OFFCURVE",
"643 265 CURVE SMOOTH",
"643 221 OFFCURVE",
"615 190 OFFCURVE",
"574 190 CURVE SMOOTH",
"438 190 OFFCURVE",
"230 397 OFFCURVE",
"230 540 CURVE"
);
},
{
closed = 1;
nodes = (
"160 369 OFFCURVE",
"394 126 OFFCURVE",
"574 126 CURVE SMOOTH",
"665 126 OFFCURVE",
"713 188 OFFCURVE",
"713 265 CURVE SMOOTH",
"713 436 OFFCURVE",
"478 679 OFFCURVE",
"299 679 CURVE SMOOTH",
"208 679 OFFCURVE",
"160 635 OFFCURVE",
"160 540 CURVE"
);
}
);
width = 871;
}
);
unicode = 10059;
},
{
glyphname = uni1005A;
lastChange = "2019-08-21 19:20:35 +0000";
layers = (
{
layerId = UUID0;
paths = (
{
closed = 1;
nodes = (
"63 745 LINE",
"217 715 OFFCURVE",
"301 680 OFFCURVE",
"301 584 CURVE SMOOTH",
"301 479 OFFCURVE",
"212 446 OFFCURVE",
"134 445 CURVE",
"134 382 LINE",
"224 382 OFFCURVE",
"316 332 OFFCURVE",
"316 235 CURVE SMOOTH",
"316 121 OFFCURVE",
"203 87 OFFCURVE",
"55 56 CURVE",
"69 -11 LINE",
"195 14 OFFCURVE",
"386 74 OFFCURVE",
"386 235 CURVE SMOOTH",
"386 354 OFFCURVE",
"313 398 OFFCURVE",
"251 419 CURVE",
"321 449 OFFCURVE",
"371 501 OFFCURVE",
"371 584 CURVE SMOOTH",
"371 726 OFFCURVE",
"251 767 OFFCURVE",
"78 810 CURVE"
);
},
{
closed = 1;
nodes = (
"594 580 LINE",
"537 585 OFFCURVE",
"507 592 OFFCURVE",
"507 612 CURVE SMOOTH",
"507 643 OFFCURVE",
"588 669 OFFCURVE",
"588 725 CURVE SMOOTH",
"588 776 OFFCURVE",
"553 796 OFFCURVE",
"453 811 CURVE",
"437 751 LINE",
"496 745 OFFCURVE",
"522 735 OFFCURVE",
"522 715 CURVE SMOOTH",
"522 691 OFFCURVE",
"440 652 OFFCURVE",
"440 596 CURVE SMOOTH",
"440 554 OFFCURVE",
"468 524 OFFCURVE",
"581 520 CURVE"
);
},
{
closed = 1;
nodes = (
"594 280 LINE",
"537 285 OFFCURVE",
"507 292 OFFCURVE",
"507 312 CURVE SMOOTH",
"507 343 OFFCURVE",
"588 369 OFFCURVE",
"588 425 CURVE SMOOTH",
"588 476 OFFCURVE",
"553 496 OFFCURVE",
"453 511 CURVE",
"437 451 LINE",
"496 445 OFFCURVE",
"522 435 OFFCURVE",
"522 415 CURVE SMOOTH",
"522 391 OFFCURVE",
"440 352 OFFCURVE",
"440 296 CURVE SMOOTH",
"440 254 OFFCURVE",
"468 224 OFFCURVE",
"581 220 CURVE"
);
}
);
width = 650;
}
);
unicode = 1005A;
},
{
glyphname = uni1005B;
lastChange = "2019-08-21 19:20:35 +0000";
layers = (
{
layerId = UUID0;
paths = (
{
closed = 1;
nodes = (
"278 187 LINE",
"461 187 LINE SMOOTH",
"488 187 OFFCURVE",
"494 171 OFFCURVE",
"494 143 CURVE SMOOTH",
"494 0 LINE",
"561 0 LINE",
"561 143 LINE SMOOTH",
"561 227 OFFCURVE",
"534 250 OFFCURVE",
"461 250 CURVE SMOOTH",
"278 250 LINE"
);
},
{
closed = 1;
nodes = (
"343 636 LINE",
"413 636 LINE",
"413 370 LINE",
"343 370 LINE"
);
},
{
closed = 1;
nodes = (
"226 636 LINE",
"278 636 LINE",
"278 370 LINE",
"66 370 LINE",
"66 307 LINE",
"481 307 LINE SMOOTH",
"575 307 OFFCURVE",
"614 266 OFFCURVE",
"614 143 CURVE SMOOTH",
"614 0 LINE",
"681 0 LINE",
"681 143 LINE SMOOTH",
"681 339 OFFCURVE",
"614 370 OFFCURVE",
"478 370 CURVE",
"478 636 LINE",
"533 636 LINE",
"638 526 LINE",
"681 574 LINE",
"658 598 LINE SMOOTH",
"616 642 OFFCURVE",
"584 664 OFFCURVE",
"559 664 CURVE",
"559 669 LINE",
"585 669 OFFCURVE",
"616 694 OFFCURVE",
"658 738 CURVE SMOOTH",
"681 762 LINE",
"638 810 LINE",
"532 699 LINE",
"227 699 LINE",
"121 810 LINE",
"78 762 LINE",
"101 738 LINE SMOOTH",
"143 694 OFFCURVE",
"174 669 OFFCURVE",
"200 669 CURVE",
"200 664 LINE",
"174 664 OFFCURVE",
"143 642 OFFCURVE",
"101 598 CURVE SMOOTH",
"78 574 LINE",
"121 526 LINE"
);
}
);
width = 769;
}
);
unicode = 1005B;
},
{
glyphname = uni1005C;
lastChange = "2019-08-21 19:20:35 +0000";
layers = (
{
layerId = UUID0;
paths = (
{
closed = 1;
nodes = (
"872 335 LINE",
"813 266 LINE",
"311 266 LINE",
"178 399 LINE",
"178 800 LINE",
"111 800 LINE",
"111 0 LINE",
"665 0 LINE",
"917 290 LINE"
);
},
{
closed = 1;
nodes = (
"354 203 LINE",
"674 203 LINE SMOOTH",
"730 203 OFFCURVE",
"749 207 OFFCURVE",
"759 212 CURVE",
"762 209 LINE",
"635 63 LINE",
"354 63 LINE"
);
},
{
closed = 1;
nodes = (
"284 203 LINE",
"284 63 LINE",
"178 63 LINE",
"178 319 LINE",
"181 320 LINE",
"186 312 OFFCURVE",
"199 288 OFFCURVE",
"216 271 CURVE SMOOTH"
);
}
);
width = 950;
}
);
unicode = 1005C;
},
{
glyphname = uni1005D;
lastChange = "2019-08-21 19:20:35 +0000";
layers = (
{
layerId = UUID0;
paths = (
{
closed = 1;
nodes = (
"130 89 LINE",
"97 73 OFFCURVE",
"64 65 OFFCURVE",
"33 60 CURVE",
"51 -8 LINE",
"195 15 OFFCURVE",
"377 169 OFFCURVE",
"382 332 CURVE",
"386 332 LINE",
"390 168 OFFCURVE",
"584 14 OFFCURVE",
"721 -8 CURVE",
"739 60 LINE",
"708 65 OFFCURVE",
"677 71 OFFCURVE",
"647 85 CURVE",
"647 508 LINE",
"421 508 LINE",
"421 737 LINE",
"564 737 LINE",
"564 800 LINE",
"209 800 LINE",
"209 737 LINE",
"351 737 LINE",
"351 508 LINE",
"130 508 LINE"
);
},
{
closed = 1;
nodes = (
"577 445 LINE",
"577 127 LINE",
"496 190 OFFCURVE",
"434 296 OFFCURVE",
"423 445 CURVE"
);
},
{
closed = 1;
nodes = (
"197 445 LINE",
"348 445 LINE",
"336 301 OFFCURVE",
"274 196 OFFCURVE",
"197 133 CURVE"
);
}
);
width = 772;
}
);
unicode = 1005D;
},
{
glyphname = uni10080;
lastChange = "2019-08-21 19:20:35 +0000";
layers = (
{
layerId = UUID0;
paths = (
{
closed = 1;
nodes = (
"196 0 LINE",
"213 170 OFFCURVE",
"277 490 OFFCURVE",
"302 490 CURVE SMOOTH",
"325 490 OFFCURVE",
"391 169 OFFCURVE",
"408 0 CURVE",
"477 0 LINE",
"472 61 OFFCURVE",
"457 173 OFFCURVE",
"434 273 CURVE SMOOTH",
"393 454 OFFCURVE",
"367 530 OFFCURVE",
"333 548 CURVE",
"336 553 LINE",
"352 550 OFFCURVE",
"405 545 OFFCURVE",
"452 545 CURVE SMOOTH",
"530 545 LINE",
"530 608 LINE",
"338 608 LINE",
"338 797 LINE",
"268 797 LINE",
"268 608 LINE",
"77 608 LINE",
"77 545 LINE",
"169 545 LINE SMOOTH",
"206 545 OFFCURVE",
"254 550 OFFCURVE",
"271 553 CURVE",
"273 548 LINE",
"243 531 OFFCURVE",
"216 453 OFFCURVE",
"177 278 CURVE SMOOTH",
"153 169 OFFCURVE",
"135 58 OFFCURVE",
"129 0 CURVE"
);
}
);
width = 607;
}
);
unicode = 10080;
},
{
glyphname = uni10081;
lastChange = "2019-08-21 19:20:35 +0000";
layers = (
{
layerId = UUID0;
paths = (
{
closed = 1;
nodes = (
"279 548 LINE",
"210 504 OFFCURVE",
"114 129 OFFCURVE",
"99 6 CURVE",
"94 0 LINE",
"513 0 LINE",
"506 8 LINE",
"494 136 OFFCURVE",
"395 502 OFFCURVE",
"330 548 CURVE",
"333 553 LINE",
"349 550 OFFCURVE",
"402 545 OFFCURVE",
"449 545 CURVE SMOOTH",
"530 545 LINE",
"530 608 LINE",
"77 608 LINE",
"77 545 LINE",
"176 545 LINE SMOOTH",
"213 545 OFFCURVE",
"260 550 OFFCURVE",
"277 553 CURVE"
);
},
{
closed = 1;
nodes = (
"326 490 OFFCURVE",
"401 238 OFFCURVE",
"429 63 CURVE",
"174 63 LINE",
"203 238 OFFCURVE",
"278 490 OFFCURVE",
"304 490 CURVE SMOOTH"
);
},
{
closed = 1;
nodes = (
"355 810 LINE",
"282 810 OFFCURVE",
"224 777 OFFCURVE",
"224 720 CURVE SMOOTH",
"224 663 OFFCURVE",
"282 630 OFFCURVE",
"355 630 CURVE",
"357 683 LINE",
"320 683 OFFCURVE",
"282 696 OFFCURVE",
"282 720 CURVE SMOOTH",
"282 744 OFFCURVE",
"320 756 OFFCURVE",
"357 756 CURVE"
);
},
{
closed = 1;
nodes = (
"119 429 LINE",
"181 429 LINE",
"181 500 LINE",
"119 500 LINE"
);
},
{
closed = 1;
nodes = (
"430 429 LINE",
"492 429 LINE",
"492 500 LINE",
"430 500 LINE"
);
}
);
width = 607;
}
);
unicode = 10081;
},
{
glyphname = uni10082;
lastChange = "2019-08-21 19:20:35 +0000";
layers = (
{
layerId = UUID0;
paths = (
{
closed = 1;
nodes = (
"97 461 OFFCURVE",
"141 391 OFFCURVE",
"202 391 CURVE SMOOTH",
"209 391 LINE",
"156 272 OFFCURVE",
"134 127 OFFCURVE",
"128 0 CURVE",
"414 0 LINE",
"385 63 LINE",
"197 63 LINE",
"227 416 OFFCURVE",
"376 582 OFFCURVE",
"561 582 CURVE SMOOTH",
"692 582 OFFCURVE",
"753 494 OFFCURVE",
"817 470 CURVE SMOOTH",
"891 442 OFFCURVE",
"963 436 OFFCURVE",
"963 380 CURVE SMOOTH",
"963 333 OFFCURVE",
"898 328 OFFCURVE",
"830 323 CURVE SMOOTH",
"750 317 OFFCURVE",
"714 288 OFFCURVE",
"651 288 CURVE SMOOTH",
"572 288 OFFCURVE",
"505 318 OFFCURVE",
"480 338 CURVE",
"447 308 LINE",
"495 164 OFFCURVE",
"513 94 OFFCURVE",
"522 0 CURVE",
"584 0 LINE",
"581 58 OFFCURVE",
"560 153 OFFCURVE",
"533 251 CURVE",
"567 237 OFFCURVE",
"610 226 OFFCURVE",
"657 226 CURVE SMOOTH",
"706 226 OFFCURVE",
"783 265 OFFCURVE",
"839 265 CURVE SMOOTH",
"995 265 OFFCURVE",
"1023 330 OFFCURVE",
"1023 387 CURVE SMOOTH",
"1023 458 OFFCURVE",
"965 483 OFFCURVE",
"866 514 CURVE SMOOTH",
"770 544 OFFCURVE",
"716 644 OFFCURVE",
"561 644 CURVE SMOOTH",
"544 644 OFFCURVE",
"529 643 OFFCURVE",
"513 641 CURVE",
"601 720 LINE SMOOTH",
"634 749 OFFCURVE",
"645 775 OFFCURVE",
"645 814 CURVE SMOOTH",
"645 847 OFFCURVE",
"626 891 OFFCURVE",
"584 927 CURVE",
"526 897 LINE",
"560 862 OFFCURVE",
"575 834 OFFCURVE",
"575 810 CURVE SMOOTH",
"575 787 OFFCURVE",
"565 770 OFFCURVE",
"546 753 CURVE SMOOTH",
"518 727 LINE",
"514 746 OFFCURVE",
"505 770 OFFCURVE",
"490 798 CURVE",
"433 770 LINE",
"452 746 OFFCURVE",
"458 723 OFFCURVE",
"458 704 CURVE SMOOTH",
"458 686 OFFCURVE",
"454 676 OFFCURVE",
"445 662 CURVE",
"427 646 LINE",
"423 665 OFFCURVE",
"414 686 OFFCURVE",
"401 712 CURVE",
"344 683 LINE",
"362 660 OFFCURVE",
"369 637 OFFCURVE",
"369 618 CURVE SMOOTH",
"369 608 OFFCURVE",
"367 599 OFFCURVE",
"364 591 CURVE",
"359 586 OFFCURVE",
"354 582 OFFCURVE",
"349 577 CURVE",
"337 569 OFFCURVE",
"327 560 OFFCURVE",
"316 550 CURVE",
"245 613 LINE",
"240 624 OFFCURVE",
"238 632 OFFCURVE",
"238 644 CURVE SMOOTH",
"238 663 OFFCURVE",
"245 686 OFFCURVE",
"265 711 CURVE",
"207 739 LINE",
"193 713 OFFCURVE",
"185 690 OFFCURVE",
"179 672 CURVE",
"151 701 LINE SMOOTH",
"141 711 OFFCURVE",
"131 729 OFFCURVE",
"131 754 CURVE SMOOTH",
"131 778 OFFCURVE",
"141 809 OFFCURVE",
"174 842 CURVE",
"116 872 LINE",
"74 824 OFFCURVE",
"59 784 OFFCURVE",
"59 751 CURVE SMOOTH",
"59 713 OFFCURVE",
"76 683 OFFCURVE",
"96 665 CURVE SMOOTH",
"204 564 LINE",
"159 561 OFFCURVE",
"112 545 OFFCURVE",
"97 532 CURVE"
);
},
{
closed = 1;
nodes = (
"520 473 OFFCURVE",
"541 452 OFFCURVE",
"567 452 CURVE SMOOTH",
"594 452 OFFCURVE",
"615 473 OFFCURVE",
"615 499 CURVE SMOOTH",
"615 526 OFFCURVE",
"594 547 OFFCURVE",
"567 547 CURVE SMOOTH",
"541 547 OFFCURVE",
"520 526 OFFCURVE",
"520 499 CURVE SMOOTH"
);
},
{
closed = 1;
nodes = (
"259 487 OFFCURVE",
"259 484 OFFCURVE",
"258 481 CURVE",
"253 475 OFFCURVE",
"249 467 OFFCURVE",
"245 461 CURVE",
"235 452 OFFCURVE",
"222 447 OFFCURVE",
"210 447 CURVE SMOOTH",
"179 447 OFFCURVE",
"157 475 OFFCURVE",
"150 500 CURVE",
"168 509 OFFCURVE",
"188 513 OFFCURVE",
"206 513 CURVE SMOOTH",
"223 513 OFFCURVE",
"259 511 OFFCURVE",
"259 491 CURVE SMOOTH"
);
}
);
width = 1063;
}
);
unicode = 10082;
},
{
glyphname = uni10083;
lastChange = "2019-08-21 19:20:35 +0000";
layers = (
{
layerId = UUID0;
paths = (
{
closed = 1;
nodes = (
"635 528 LINE",
"644 501 OFFCURVE",
"662 460 OFFCURVE",
"699 460 CURVE SMOOTH",
"717 460 OFFCURVE",
"741 471 OFFCURVE",
"772 500 CURVE",
"727 516 OFFCURVE",
"710 530 OFFCURVE",
"703 551 CURVE"
);
},
{
closed = 1;
nodes = (
"646 668 OFFCURVE",
"633 657 OFFCURVE",
"614 657 CURVE SMOOTH",
"578 657 OFFCURVE",
"561 690 OFFCURVE",
"561 719 CURVE SMOOTH",
"561 733 OFFCURVE",
"565 748 OFFCURVE",
"573 760 CURVE",
"615 746 OFFCURVE",
"646 703 OFFCURVE",
"646 683 CURVE SMOOTH"
);
},
{
closed = 1;
nodes = (
"448 633 OFFCURVE",
"439 618 OFFCURVE",
"417 618 CURVE SMOOTH",
"380 618 OFFCURVE",
"364 651 OFFCURVE",
"364 679 CURVE SMOOTH",
"364 693 OFFCURVE",
"368 708 OFFCURVE",
"375 721 CURVE",
"417 707 OFFCURVE",
"448 664 OFFCURVE",
"448 644 CURVE SMOOTH"
);
},
{
closed = 1;
nodes = (
"598 439 OFFCURVE",
"581 400 OFFCURVE",
"581 344 CURVE SMOOTH",
"581 326 OFFCURVE",
"582 309 OFFCURVE",
"586 285 CURVE SMOOTH",
"594 235 OFFCURVE",
"622 117 OFFCURVE",
"682 0 CURVE",
"756 0 LINE",
"717 75 OFFCURVE",
"685 169 OFFCURVE",
"666 234 CURVE",
"669 235 LINE",
"689 199 OFFCURVE",
"732 193 OFFCURVE",
"786 193 CURVE SMOOTH",
"831 193 OFFCURVE",
"855 193 OFFCURVE",
"887 199 CURVE",
"975 142 OFFCURVE",
"1017 120 OFFCURVE",
"1045 120 CURVE SMOOTH",
"1060 120 OFFCURVE",
"1074 125 OFFCURVE",
"1087 135 CURVE",
"1093 132 OFFCURVE",
"1099 130 OFFCURVE",
"1106 130 CURVE SMOOTH",
"1146 130 OFFCURVE",
"1200 186 OFFCURVE",
"1200 243 CURVE SMOOTH",
"1200 284 OFFCURVE",
"879 615 OFFCURVE",
"683 659 CURVE",
"690 669 OFFCURVE",
"700 680 OFFCURVE",
"700 691 CURVE SMOOTH",
"700 751 OFFCURVE",
"596 817 OFFCURVE",
"559 820 CURVE",
"515 783 OFFCURVE",
"508 741 OFFCURVE",
"508 712 CURVE SMOOTH",
"508 686 OFFCURVE",
"519 667 OFFCURVE",
"535 653 CURVE",
"523 651 OFFCURVE",
"512 649 OFFCURVE",
"501 646 CURVE",
"502 648 OFFCURVE",
"502 650 OFFCURVE",
"502 652 CURVE SMOOTH",
"502 712 OFFCURVE",
"398 778 OFFCURVE",
"361 781 CURVE",
"317 744 OFFCURVE",
"310 702 OFFCURVE",
"310 673 CURVE SMOOTH",
"310 615 OFFCURVE",
"342 588 OFFCURVE",
"387 582 CURVE",
"364 561 OFFCURVE",
"342 535 OFFCURVE",
"321 502 CURVE",
"293 524 OFFCURVE",
"251 536 OFFCURVE",
"251 556 CURVE SMOOTH",
"251 563 OFFCURVE",
"258 578 OFFCURVE",
"287 604 CURVE",
"268 611 OFFCURVE",
"254 614 OFFCURVE",
"243 614 CURVE SMOOTH",
"198 614 OFFCURVE",
"184 575 OFFCURVE",
"184 552 CURVE SMOOTH",
"184 502 OFFCURVE",
"278 486 OFFCURVE",
"278 455 CURVE SMOOTH",
"278 446 OFFCURVE",
"277 428 OFFCURVE",
"249 384 CURVE",
"265 384 LINE",
"258 364 LINE",
"231 382 OFFCURVE",
"198 393 OFFCURVE",
"198 411 CURVE SMOOTH",
"198 419 OFFCURVE",
"205 433 OFFCURVE",
"234 459 CURVE",
"215 466 OFFCURVE",
"201 469 OFFCURVE",
"190 469 CURVE SMOOTH",
"145 469 OFFCURVE",
"131 430 OFFCURVE",
"131 408 CURVE SMOOTH",
"131 356 OFFCURVE",
"226 341 OFFCURVE",
"226 310 CURVE SMOOTH",
"226 302 OFFCURVE",
"224 288 OFFCURVE",
"197 239 CURVE",
"206 239 OFFCURVE",
"215 239 OFFCURVE",
"223 240 CURVE",
"221 231 OFFCURVE",
"219 221 OFFCURVE",
"216 212 CURVE",
"188 236 OFFCURVE",
"144 248 OFFCURVE",
"144 268 CURVE SMOOTH",
"144 275 OFFCURVE",
"151 290 OFFCURVE",
"180 316 CURVE",
"161 323 OFFCURVE",
"147 326 OFFCURVE",
"136 326 CURVE SMOOTH",
"91 326 OFFCURVE",
"77 287 OFFCURVE",
"77 264 CURVE SMOOTH",
"77 213 OFFCURVE",
"172 198 OFFCURVE",
"172 167 CURVE SMOOTH",
"172 159 OFFCURVE",
"170 144 OFFCURVE",
"143 96 CURVE",
"161 96 OFFCURVE",
"177 98 OFFCURVE",
"190 102 CURVE",
"177 38 OFFCURVE",
"173 5 OFFCURVE",
"173 0 CURVE",
"596 0 LINE",
"567 63 LINE",
"247 63 LINE",
"258 121 OFFCURVE",
"278 214 OFFCURVE",
"310 324 CURVE SMOOTH",
"386 585 OFFCURVE",
"513 604 OFFCURVE",
"641 604 CURVE SMOOTH",
"789 604 OFFCURVE",
"1133 255 OFFCURVE",
"1133 228 CURVE SMOOTH",
"1133 211 OFFCURVE",
"1099 179 OFFCURVE",
"1073 170 CURVE",
"1010 199 OFFCURVE",
"960 236 OFFCURVE",
"909 269 CURVE",
"859 263 OFFCURVE",
"844 259 OFFCURVE",
"801 259 CURVE SMOOTH",
"784 259 OFFCURVE",
"706 259 OFFCURVE",
"652 289 CURVE",
"633 374 OFFCURVE",
"632 418 OFFCURVE",
"630 439 CURVE"
);
}
);
width = 1233;
}
);
unicode = 10083;
},
{
glyphname = uni10084;
lastChange = "2019-08-21 19:20:35 +0000";
layers = (
{
layerId = UUID0;
paths = (
{
closed = 1;
nodes = (
"868 142 OFFCURVE",
"910 120 OFFCURVE",
"938 120 CURVE SMOOTH",
"953 120 OFFCURVE",
"967 125 OFFCURVE",
"980 135 CURVE",
"986 132 OFFCURVE",
"992 130 OFFCURVE",
"999 130 CURVE SMOOTH",
"1039 130 OFFCURVE",
"1093 186 OFFCURVE",
"1093 243 CURVE SMOOTH",
"1093 284 OFFCURVE",
"779 609 OFFCURVE",
"581 659 CURVE",
"588 669 OFFCURVE",
"593 680 OFFCURVE",
"593 691 CURVE SMOOTH",
"593 751 OFFCURVE",
"489 817 OFFCURVE",
"452 820 CURVE",
"408 783 OFFCURVE",
"401 741 OFFCURVE",
"401 712 CURVE SMOOTH",
"401 686 OFFCURVE",
"412 667 OFFCURVE",
"428 653 CURVE",
"416 651 OFFCURVE",
"405 649 OFFCURVE",
"394 646 CURVE",
"395 648 OFFCURVE",
"395 650 OFFCURVE",
"395 652 CURVE SMOOTH",
"395 712 OFFCURVE",
"291 778 OFFCURVE",
"254 781 CURVE",
"210 744 OFFCURVE",
"203 702 OFFCURVE",
"203 673 CURVE SMOOTH",
"203 615 OFFCURVE",
"235 588 OFFCURVE",
"280 582 CURVE",
"257 561 OFFCURVE",
"235 535 OFFCURVE",
"214 502 CURVE",
"186 524 OFFCURVE",
"144 536 OFFCURVE",
"144 556 CURVE SMOOTH",
"144 563 OFFCURVE",
"151 578 OFFCURVE",
"180 604 CURVE",
"161 611 OFFCURVE",
"147 614 OFFCURVE",
"136 614 CURVE SMOOTH",
"91 614 OFFCURVE",
"77 575 OFFCURVE",
"77 552 CURVE SMOOTH",
"77 502 OFFCURVE",
"171 486 OFFCURVE",
"171 455 CURVE SMOOTH",
"171 446 OFFCURVE",
"170 428 OFFCURVE",
"142 384 CURVE",
"158 384 LINE",
"79 113 OFFCURVE",
"66 10 OFFCURVE",
"66 0 CURVE",
"379 0 LINE",
"320 157 OFFCURVE",
"311 300 OFFCURVE",
"311 377 CURVE SMOOTH",
"311 412 OFFCURVE",
"312 428 OFFCURVE",
"313 439 CURVE",
"270 425 OFFCURVE",
"253 381 OFFCURVE",
"253 314 CURVE SMOOTH",
"253 249 OFFCURVE",
"269 163 OFFCURVE",
"291 63 CURVE",
"140 63 LINE",
"151 121 OFFCURVE",
"171 214 OFFCURVE",
"203 324 CURVE SMOOTH",
"279 585 OFFCURVE",
"406 604 OFFCURVE",
"534 604 CURVE SMOOTH",
"682 604 OFFCURVE",
"1026 255 OFFCURVE",
"1026 228 CURVE SMOOTH",
"1026 211 OFFCURVE",
"992 179 OFFCURVE",
"966 170 CURVE",
"903 199 OFFCURVE",
"853 236 OFFCURVE",
"802 269 CURVE",
"786 268 OFFCURVE",
"761 267 OFFCURVE",
"739 267 CURVE SMOOTH",
"702 267 OFFCURVE",
"657 278 OFFCURVE",
"614 307 CURVE",
"613 304 OFFCURVE",
"607 288 OFFCURVE",
"607 270 CURVE SMOOTH",
"607 213 OFFCURVE",
"693 197 OFFCURVE",
"727 197 CURVE SMOOTH",
"763 197 OFFCURVE",
"772 198 OFFCURVE",
"780 199 CURVE"
);
},
{
closed = 1;
nodes = (
"491 439 OFFCURVE",
"474 400 OFFCURVE",
"474 344 CURVE SMOOTH",
"474 253 OFFCURVE",
"523 102 OFFCURVE",
"575 0 CURVE",
"649 0 LINE",
"532 228 OFFCURVE",
"525 426 OFFCURVE",
"523 439 CURVE"
);
},
{
closed = 1;
nodes = (
"665 483 LINE",
"656 510 OFFCURVE",
"638 551 OFFCURVE",
"601 551 CURVE SMOOTH",
"583 551 OFFCURVE",
"559 540 OFFCURVE",
"528 511 CURVE",
"573 495 OFFCURVE",
"590 481 OFFCURVE",
"597 460 CURVE"
);
},
{
closed = 1;
nodes = (
"539 669 OFFCURVE",
"524 659 OFFCURVE",
"507 659 CURVE SMOOTH",
"471 659 OFFCURVE",
"454 690 OFFCURVE",
"454 719 CURVE SMOOTH",
"454 733 OFFCURVE",
"458 748 OFFCURVE",
"466 760 CURVE",
"508 746 OFFCURVE",
"539 703 OFFCURVE",
"539 683 CURVE SMOOTH"
);
},
{
closed = 1;
nodes = (
"341 633 OFFCURVE",
"326 620 OFFCURVE",
"310 620 CURVE SMOOTH",
"273 620 OFFCURVE",
"257 651 OFFCURVE",
"257 679 CURVE SMOOTH",
"257 693 OFFCURVE",
"261 708 OFFCURVE",
"268 721 CURVE",
"310 707 OFFCURVE",
"341 664 OFFCURVE",
"341 644 CURVE SMOOTH"
);
}
);
width = 1126;
}
);
unicode = 10084;
},
{
glyphname = uni10085;
lastChange = "2019-08-21 19:20:35 +0000";
layers = (
{
layerId = UUID0;
paths = (
{
closed = 1;
nodes = (
"651 528 LINE",
"660 501 OFFCURVE",
"678 460 OFFCURVE",
"715 460 CURVE SMOOTH",
"733 460 OFFCURVE",
"757 471 OFFCURVE",
"788 500 CURVE",
"743 516 OFFCURVE",
"726 530 OFFCURVE",
"719 551 CURVE"
);
},
{
closed = 1;
nodes = (
"662 669 OFFCURVE",
"640 659 OFFCURVE",
"630 659 CURVE SMOOTH",
"594 659 OFFCURVE",
"577 690 OFFCURVE",
"577 719 CURVE SMOOTH",
"577 733 OFFCURVE",
"581 748 OFFCURVE",
"589 760 CURVE",
"631 746 OFFCURVE",
"662 703 OFFCURVE",
"662 683 CURVE SMOOTH"
);
},
{
closed = 1;
nodes = (
"464 633 OFFCURVE",
"443 620 OFFCURVE",
"433 620 CURVE SMOOTH",
"396 620 OFFCURVE",
"380 651 OFFCURVE",
"380 679 CURVE SMOOTH",
"380 693 OFFCURVE",
"384 708 OFFCURVE",
"391 721 CURVE",
"433 707 OFFCURVE",
"464 664 OFFCURVE",
"464 644 CURVE SMOOTH"
);
},
{
closed = 1;
nodes = (
"875 263 OFFCURVE",
"860 259 OFFCURVE",
"817 259 CURVE SMOOTH",
"800 259 OFFCURVE",
"722 259 OFFCURVE",
"668 289 CURVE",
"648 376 OFFCURVE",
"646 430 OFFCURVE",
"646 439 CURVE",
"614 439 OFFCURVE",
"597 400 OFFCURVE",
"597 344 CURVE SMOOTH",
"597 253 OFFCURVE",
"646 102 OFFCURVE",
"698 0 CURVE",
"772 0 LINE",
"733 75 OFFCURVE",
"701 169 OFFCURVE",
"682 234 CURVE",
"685 235 LINE",
"705 199 OFFCURVE",
"748 193 OFFCURVE",
"802 193 CURVE SMOOTH",
"847 193 OFFCURVE",
"871 193 OFFCURVE",
"903 199 CURVE",
"991 142 OFFCURVE",
"1033 120 OFFCURVE",
"1061 120 CURVE SMOOTH",
"1076 120 OFFCURVE",
"1090 125 OFFCURVE",
"1103 135 CURVE",
"1109 132 OFFCURVE",
"1115 130 OFFCURVE",
"1122 130 CURVE SMOOTH",
"1162 130 OFFCURVE",
"1216 186 OFFCURVE",
"1216 243 CURVE SMOOTH",
"1216 284 OFFCURVE",
"891 619 OFFCURVE",
"699 659 CURVE",
"706 669 OFFCURVE",
"716 680 OFFCURVE",
"716 691 CURVE SMOOTH",
"716 751 OFFCURVE",
"612 817 OFFCURVE",
"575 820 CURVE",
"531 783 OFFCURVE",
"524 741 OFFCURVE",
"524 712 CURVE SMOOTH",
"524 686 OFFCURVE",
"535 667 OFFCURVE",
"551 653 CURVE",
"539 651 OFFCURVE",
"528 649 OFFCURVE",
"517 646 CURVE",
"518 648 OFFCURVE",
"518 650 OFFCURVE",
"518 652 CURVE SMOOTH",
"518 712 OFFCURVE",
"414 778 OFFCURVE",
"377 781 CURVE",
"333 744 OFFCURVE",
"326 702 OFFCURVE",
"326 673 CURVE SMOOTH",
"326 615 OFFCURVE",
"358 588 OFFCURVE",
"403 582 CURVE",
"380 561 OFFCURVE",
"358 535 OFFCURVE",
"337 502 CURVE",
"309 524 OFFCURVE",
"267 536 OFFCURVE",
"267 556 CURVE SMOOTH",
"267 563 OFFCURVE",
"274 578 OFFCURVE",
"303 604 CURVE",
"284 611 OFFCURVE",
"270 614 OFFCURVE",
"259 614 CURVE SMOOTH",
"214 614 OFFCURVE",
"200 575 OFFCURVE",
"200 552 CURVE SMOOTH",
"200 502 OFFCURVE",
"294 486 OFFCURVE",
"294 455 CURVE SMOOTH",
"294 446 OFFCURVE",
"293 428 OFFCURVE",
"265 384 CURVE",
"281 384 LINE",
"267 339 LINE",
"121 377 LINE",
"105 316 LINE",
"250 278 LINE",
"241 248 OFFCURVE",
"234 219 OFFCURVE",
"228 194 CURVE",
"83 232 LINE",
"66 171 LINE",
"213 133 LINE",
"194 48 OFFCURVE",
"189 6 OFFCURVE",
"189 0 CURVE",
"254 0 LINE",
"254 5 OFFCURVE",
"260 48 OFFCURVE",
"274 116 CURVE",
"423 76 LINE",
"439 137 LINE",
"288 178 LINE",
"309 262 LINE",
"461 221 LINE",
"477 282 LINE",
"326 323 LINE",
"402 578 OFFCURVE",
"530 604 OFFCURVE",
"657 604 CURVE SMOOTH",
"805 604 OFFCURVE",
"1149 255 OFFCURVE",
"1149 228 CURVE SMOOTH",
"1149 211 OFFCURVE",
"1115 179 OFFCURVE",
"1089 170 CURVE",
"1026 199 OFFCURVE",
"976 236 OFFCURVE",
"925 269 CURVE"
);
}
);
width = 1249;
}
);
unicode = 10085;
},
{
glyphname = uni10086;
lastChange = "2019-08-21 19:20:35 +0000";
layers = (
{
layerId = UUID0;
paths = (
{
closed = 1;
nodes = (
"363 0 LINE",
"386 235 OFFCURVE",
"442 494 OFFCURVE",
"470 494 CURVE SMOOTH",
"493 494 OFFCURVE",
"554 210 OFFCURVE",
"576 0 CURVE",
"645 0 LINE",
"637 68 OFFCURVE",
"621 178 OFFCURVE",
"603 274 CURVE SMOOTH",
"560 500 OFFCURVE",
"524 564 OFFCURVE",
"470 564 CURVE SMOOTH",
"415 564 OFFCURVE",
"381 503 OFFCURVE",
"339 277 CURVE SMOOTH",
"321 178 OFFCURVE",
"305 72 OFFCURVE",
"296 0 CURVE"
);
},
{
closed = 1;
nodes = (
"702 734 LINE",
"702 797 LINE",
"33 797 LINE",
"33 734 LINE",
"95 734 LINE",
"95 568 OFFCURVE",
"173 546 OFFCURVE",
"252 546 CURVE SMOOTH",
"335 546 OFFCURVE",
"414 624 OFFCURVE",
"466 624 CURVE SMOOTH",
"498 624 OFFCURVE",
"522 612 OFFCURVE",
"559 579 CURVE SMOOTH",
"608 535 LINE",
"654 582 LINE",
"593 633 LINE SMOOTH",
"553 667 OFFCURVE",
"516 687 OFFCURVE",
"466 687 CURVE SMOOTH",
"395 687 OFFCURVE",
"340 609 OFFCURVE",
"249 609 CURVE SMOOTH",
"202 609 OFFCURVE",
"165 633 OFFCURVE",
"165 734 CURVE"
);
}
);
width = 790;
}
);
unicode = 10086;
},
{
glyphname = uni10087;
lastChange = "2019-08-21 19:20:35 +0000";
layers = (
{
layerId = UUID0;
paths = (
{
closed = 1;
nodes = (
"702 734 LINE",
"702 797 LINE",
"33 797 LINE",
"33 734 LINE",
"95 734 LINE",
"95 568 OFFCURVE",
"173 546 OFFCURVE",
"252 546 CURVE SMOOTH",
"335 546 OFFCURVE",
"414 624 OFFCURVE",
"466 624 CURVE SMOOTH",
"498 624 OFFCURVE",
"522 612 OFFCURVE",
"559 579 CURVE SMOOTH",
"608 535 LINE",
"654 582 LINE",
"593 633 LINE SMOOTH",
"553 667 OFFCURVE",
"516 687 OFFCURVE",
"466 687 CURVE SMOOTH",
"395 687 OFFCURVE",
"340 609 OFFCURVE",
"249 609 CURVE SMOOTH",
"202 609 OFFCURVE",
"165 633 OFFCURVE",
"165 734 CURVE"
);
},
{
closed = 1;
nodes = (
"633 288 LINE",
"505 288 LINE",
"505 375 LINE",
"633 375 LINE",
"633 438 LINE",
"505 438 LINE",
"505 545 LINE",
"435 545 LINE",
"435 438 LINE",
"308 438 LINE",
"308 375 LINE",
"435 375 LINE",
"435 288 LINE",
"308 288 LINE",
"308 225 LINE",
"435 225 LINE",
"435 0 LINE",
"505 0 LINE",
"505 225 LINE",
"633 225 LINE"
);
}
);
width = 790;
}
);
unicode = 10087;
},
{
glyphname = uni10088;
lastChange = "2019-08-21 19:20:35 +0000";
layers = (
{
layerId = UUID0;
paths = (
{
closed = 1;
nodes = (
"175 683 LINE",
"215 719 OFFCURVE",
"225 740 OFFCURVE",
"229 746 CURVE",
"235 737 OFFCURVE",
"245 718 OFFCURVE",
"281 685 CURVE SMOOTH",
"378 598 LINE",
"426 650 LINE",
"254 801 LINE",
"205 801 LINE",
"33 650 LINE",
"81 598 LINE"
);
},
{
closed = 1;
nodes = (
"388 0 LINE",
"411 235 OFFCURVE",
"467 594 OFFCURVE",
"495 594 CURVE SMOOTH",
"518 594 OFFCURVE",
"579 210 OFFCURVE",
"601 0 CURVE",
"670 0 LINE",
"662 68 OFFCURVE",
"645 178 OFFCURVE",
"628 274 CURVE SMOOTH",
"578 549 OFFCURVE",
"559 664 OFFCURVE",
"495 664 CURVE SMOOTH",
"435 664 OFFCURVE",
"412 543 OFFCURVE",
"364 277 CURVE SMOOTH",
"346 178 OFFCURVE",
"330 72 OFFCURVE",
"321 0 CURVE"
);
},
{
closed = 1;
nodes = (
"511 737 LINE",
"650 737 OFFCURVE",
"608 573 OFFCURVE",
"750 544 CURVE",
"770 603 LINE",
"677 623 OFFCURVE",
"689 800 OFFCURVE",
"511 800 CURVE"
);
}
);
width = 803;
}
);
unicode = 10088;
},
{
glyphname = uni10089;
lastChange = "2019-08-21 19:20:35 +0000";
layers = (
{
layerId = UUID0;
paths = (
{
closed = 1;
nodes = (
"511 737 LINE",
"650 737 OFFCURVE",
"608 573 OFFCURVE",
"750 544 CURVE",
"770 603 LINE",
"677 623 OFFCURVE",
"689 800 OFFCURVE",
"511 800 CURVE SMOOTH",
"441 800 LINE",
"441 438 LINE",
"318 438 LINE",
"318 375 LINE",
"441 375 LINE",
"441 288 LINE",
"318 288 LINE",
"318 225 LINE",
"441 225 LINE",
"441 0 LINE",
"511 0 LINE",
"511 225 LINE",
"633 225 LINE",
"633 288 LINE",
"511 288 LINE",
"511 375 LINE",
"633 375 LINE",
"633 438 LINE",
"511 438 LINE"
);
},
{
closed = 1;
nodes = (
"175 683 LINE",
"201 705 OFFCURVE",
"216 726 OFFCURVE",
"229 746 CURVE",
"241 729 OFFCURVE",
"246 717 OFFCURVE",
"281 685 CURVE SMOOTH",
"378 598 LINE",
"426 650 LINE",
"254 801 LINE",
"205 801 LINE",
"33 650 LINE",
"81 598 LINE"
);
}
);
width = 803;
}
);
unicode = 10089;
},
{
glyphname = uni1008A;
lastChange = "2019-08-21 19:20:35 +0000";
layers = (
{
layerId = UUID0;
paths = (
{
closed = 1;
nodes = (
"496 336 LINE",
"522 334 OFFCURVE",
"543 332 OFFCURVE",
"571 332 CURVE SMOOTH",
"605 332 OFFCURVE",
"635 344 OFFCURVE",
"655 393 CURVE",
"698 401 OFFCURVE",
"705 406 OFFCURVE",
"738 548 CURVE",
"711 547 OFFCURVE",
"668 545 OFFCURVE",
"636 545 CURVE SMOOTH",
"588 545 OFFCURVE",
"500 611 OFFCURVE",
"451 616 CURVE SMOOTH",
"284 632 LINE",
"283 774 OFFCURVE",
"236 810 OFFCURVE",
"135 810 CURVE SMOOTH",
"93 810 OFFCURVE",
"76 788 OFFCURVE",
"76 747 CURVE SMOOTH",
"76 636 OFFCURVE",
"137 594 OFFCURVE",
"217 578 CURVE",
"217 377 LINE",
"134 332 OFFCURVE",
"100 123 OFFCURVE",
"79 0 CURVE",
"144 0 LINE",
"179 232 OFFCURVE",
"217 316 OFFCURVE",
"251 316 CURVE SMOOTH",
"284 316 OFFCURVE",
"333 235 OFFCURVE",
"357 0 CURVE",
"425 0 LINE",
"420 64 OFFCURVE",
"402 175 OFFCURVE",
"374 263 CURVE SMOOTH",
"358 314 OFFCURVE",
"338 342 OFFCURVE",
"283 364 CURVE",
"284 367 LINE",
"301 362 OFFCURVE",
"332 351 OFFCURVE",
"396 345 CURVE SMOOTH"
);
},
{
closed = 1;
nodes = (
"394 556 LINE",
"348 544 LINE",
"350 531 LINE SMOOTH",
"354 507 OFFCURVE",
"366 481 OFFCURVE",
"392 481 CURVE SMOOTH",
"407 481 OFFCURVE",
"429 492 OFFCURVE",
"462 523 CURVE",
"437 531 OFFCURVE",
"425 541 OFFCURVE",
"418 556 CURVE",
"439 554 LINE SMOOTH",
"511 546 OFFCURVE",
"552 495 OFFCURVE",
"615 485 CURVE SMOOTH",
"625 483 OFFCURVE",
"645 481 OFFCURVE",
"653 481 CURVE",
"647 457 OFFCURVE",
"638 435 OFFCURVE",
"630 421 CURVE",
"588 421 LINE",
"583 402 OFFCURVE",
"572 395 OFFCURVE",
"548 395 CURVE SMOOTH",
"535 395 OFFCURVE",
"514 397 OFFCURVE",
"490 399 CURVE SMOOTH",
"284 418 LINE",
"284 570 LINE",
"394 560 LINE"
);
},
{
closed = 1;
nodes = (
"141 744 OFFCURVE",
"150 748 OFFCURVE",
"159 748 CURVE SMOOTH",
"195 748 OFFCURVE",
"216 726 OFFCURVE",
"217 643 CURVE",
"167 659 OFFCURVE",
"141 684 OFFCURVE",
"141 726 CURVE SMOOTH"
);
}
);
width = 781;
}
);
unicode = 1008A;
},
{
glyphname = uni1008B;
lastChange = "2019-08-21 19:20:35 +0000";
layers = (
{
layerId = UUID0;
paths = (
{
closed = 1;
nodes = (
"486 336 LINE",
"512 334 OFFCURVE",
"533 332 OFFCURVE",
"561 332 CURVE SMOOTH",
"595 332 OFFCURVE",
"625 344 OFFCURVE",
"645 393 CURVE",
"688 401 OFFCURVE",
"695 406 OFFCURVE",
"728 548 CURVE",
"705 547 OFFCURVE",
"661 545 OFFCURVE",
"626 545 CURVE SMOOTH",
"578 545 OFFCURVE",
"490 611 OFFCURVE",
"441 616 CURVE SMOOTH",
"277 632 LINE",
"276 774 OFFCURVE",
"226 810 OFFCURVE",
"125 810 CURVE SMOOTH",
"83 810 OFFCURVE",
"66 788 OFFCURVE",
"66 747 CURVE SMOOTH",
"66 636 OFFCURVE",
"127 594 OFFCURVE",
"207 578 CURVE",
"207 290 LINE",
"84 290 LINE",
"84 227 LINE",
"207 227 LINE",
"207 140 LINE",
"84 140 LINE",
"84 77 LINE",
"207 77 LINE",
"207 0 LINE",
"277 0 LINE",
"277 77 LINE",
"409 77 LINE",
"409 140 LINE",
"277 140 LINE",
"277 227 LINE",
"409 227 LINE",
"409 290 LINE",
"277 290 LINE",
"277 354 LINE"
);
},
{
closed = 1;
nodes = (
"277 570 LINE",
"384 560 LINE",
"384 556 LINE",
"338 544 LINE",
"340 531 LINE SMOOTH",
"344 507 OFFCURVE",
"356 481 OFFCURVE",
"382 481 CURVE SMOOTH",
"397 481 OFFCURVE",
"419 492 OFFCURVE",
"452 523 CURVE",
"427 531 OFFCURVE",
"415 541 OFFCURVE",
"408 556 CURVE",
"429 554 LINE SMOOTH",
"501 546 OFFCURVE",
"542 495 OFFCURVE",
"605 485 CURVE SMOOTH",
"615 483 OFFCURVE",
"635 481 OFFCURVE",
"643 481 CURVE",
"637 457 OFFCURVE",
"628 435 OFFCURVE",
"620 421 CURVE",
"578 421 LINE",
"573 402 OFFCURVE",
"562 395 OFFCURVE",
"538 395 CURVE SMOOTH",
"525 395 OFFCURVE",
"504 397 OFFCURVE",
"480 399 CURVE SMOOTH",
"277 418 LINE"
);
},
{
closed = 1;
nodes = (
"131 744 OFFCURVE",
"140 748 OFFCURVE",
"149 748 CURVE SMOOTH",
"185 748 OFFCURVE",
"206 726 OFFCURVE",
"207 643 CURVE",
"157 659 OFFCURVE",
"131 684 OFFCURVE",
"131 726 CURVE SMOOTH"
);
}
);
width = 762;
}
);
unicode = 1008B;
},
{
glyphname = uni1008C;
lastChange = "2019-08-21 19:20:35 +0000";
layers = (
{
layerId = UUID0;
paths = (
{
closed = 1;
nodes = (
"665 392 LINE",
"603 392 LINE",
"603 737 LINE",
"701 737 LINE",
"701 800 LINE",
"533 800 LINE",
"533 608 LINE",
"276 608 LINE",
"276 640 LINE SMOOTH",
"276 783 OFFCURVE",
"222 810 OFFCURVE",
"160 810 CURVE SMOOTH",
"94 810 OFFCURVE",
"55 761 OFFCURVE",
"55 696 CURVE SMOOTH",
"55 603 OFFCURVE",
"129 548 OFFCURVE",
"203 545 CURVE",
"203 541 LINE",
"139 506 OFFCURVE",
"93 190 OFFCURVE",
"68 0 CURVE",
"135 0 LINE",
"158 235 OFFCURVE",
"214 494 OFFCURVE",
"242 494 CURVE SMOOTH",
"265 494 OFFCURVE",
"326 210 OFFCURVE",
"348 0 CURVE",
"417 0 LINE",
"397 169 OFFCURVE",
"346 503 OFFCURVE",
"280 541 CURVE",
"280 545 LINE",
"533 545 LINE",
"533 392 LINE",
"473 392 LINE",
"473 329 LINE",
"665 329 LINE"
);
},
{
closed = 1;
nodes = (
"120 737 OFFCURVE",
"143 748 OFFCURVE",
"163 748 CURVE SMOOTH",
"184 748 OFFCURVE",
"206 726 OFFCURVE",
"206 640 CURVE SMOOTH",
"206 608 LINE",
"163 608 OFFCURVE",
"120 632 OFFCURVE",
"120 689 CURVE SMOOTH"
);
}
);
width = 762;
}
);
unicode = 1008C;
},
{
glyphname = uni1008D;
lastChange = "2019-08-21 19:20:35 +0000";
layers = (
{
layerId = UUID0;
paths = (
{
closed = 1;
nodes = (
"665 392 LINE",
"603 392 LINE",
"603 737 LINE",
"701 737 LINE",
"701 800 LINE",
"533 800 LINE",
"533 608 LINE",
"276 608 LINE",
"276 640 LINE SMOOTH",
"276 783 OFFCURVE",
"222 810 OFFCURVE",
"160 810 CURVE SMOOTH",
"94 810 OFFCURVE",
"55 761 OFFCURVE",
"55 696 CURVE SMOOTH",
"55 600 OFFCURVE",
"129 545 OFFCURVE",
"206 545 CURVE",
"206 438 LINE",
"79 438 LINE",
"79 375 LINE",
"206 375 LINE",
"206 288 LINE",
"79 288 LINE",
"79 225 LINE",
"206 225 LINE",
"206 0 LINE",
"276 0 LINE",
"276 225 LINE",
"404 225 LINE",
"404 288 LINE",
"276 288 LINE",
"276 375 LINE",
"404 375 LINE",
"404 438 LINE",
"276 438 LINE",
"276 545 LINE",
"533 545 LINE",
"533 392 LINE",
"473 392 LINE",
"473 329 LINE",
"665 329 LINE"
);
},
{
closed = 1;
nodes = (
"120 737 OFFCURVE",
"143 748 OFFCURVE",
"163 748 CURVE SMOOTH",
"184 748 OFFCURVE",
"206 726 OFFCURVE",
"206 640 CURVE SMOOTH",
"206 608 LINE",
"163 608 OFFCURVE",
"120 632 OFFCURVE",
"120 689 CURVE SMOOTH"
);
}
);
width = 762;
}
);
unicode = 1008D;
},
{
glyphname = uni1008E;
lastChange = "2019-08-21 19:20:35 +0000";
layers = (
{
layerId = UUID0;
paths = (
{
closed = 1;
nodes = (
"145 737 LINE",
"225 737 LINE",
"217 652 OFFCURVE",
"99 597 OFFCURVE",
"99 490 CURVE SMOOTH",
"99 441 LINE",
"35 441 LINE",
"35 378 LINE",
"325 378 LINE",
"325 0 LINE",
"395 0 LINE",
"395 378 LINE",
"685 378 LINE",
"685 441 LINE",
"621 441 LINE",
"621 490 LINE SMOOTH",
"621 597 OFFCURVE",
"502 652 OFFCURVE",
"495 737 CURVE",
"575 737 LINE",
"575 800 LINE",
"145 800 LINE"
);
},
{
closed = 1;
nodes = (
"169 441 LINE",
"169 490 LINE SMOOTH",
"169 563 OFFCURVE",
"288 640 OFFCURVE",
"295 737 CURVE",
"325 737 LINE",
"325 441 LINE"
);
},
{
closed = 1;
nodes = (
"551 441 LINE",
"395 441 LINE",
"395 737 LINE",
"425 737 LINE",
"431 640 OFFCURVE",
"551 563 OFFCURVE",
"551 490 CURVE"
);
}
);
width = 720;
}
);
unicode = 1008E;
},
{
glyphname = uni1008F;
lastChange = "2019-08-21 19:20:35 +0000";
layers = (
{
layerId = UUID0;
paths = (
{
closed = 1;
nodes = (
"50 800 LINE",
"51 594 OFFCURVE",
"126 530 OFFCURVE",
"245 530 CURVE SMOOTH",
"410 530 LINE",
"410 0 LINE",
"480 0 LINE",
"480 726 LINE SMOOTH",
"480 764 OFFCURVE",
"450 800 OFFCURVE",
"399 800 CURVE SMOOTH",
"180 800 LINE",
"180 737 LINE",
"410 737 LINE",
"410 593 LINE",
"242 593 LINE SMOOTH",
"165 593 OFFCURVE",
"120 649 OFFCURVE",
"120 800 CURVE"
);
}
);
width = 590;
}
);
unicode = 1008F;
},
{
glyphname = uni10090;
lastChange = "2019-08-21 19:20:35 +0000";
layers = (
{
layerId = UUID0;
paths = (
{
closed = 1;
nodes = (
"304 655 LINE SMOOTH",
"304 597 OFFCURVE",
"294 593 OFFCURVE",
"277 593 CURVE SMOOTH",
"262 593 OFFCURVE",
"252 597 OFFCURVE",
"252 655 CURVE SMOOTH",
"252 699 LINE SMOOTH",
"252 777 OFFCURVE",
"222 820 OFFCURVE",
"166 820 CURVE SMOOTH",
"109 820 OFFCURVE",
"80 776 OFFCURVE",
"80 699 CURVE SMOOTH",
"80 561 LINE SMOOTH",
"80 484 OFFCURVE",
"109 440 OFFCURVE",
"166 440 CURVE SMOOTH",
"172 440 LINE",
"170 498 LINE",
"165 498 LINE SMOOTH",
"150 498 OFFCURVE",
"140 502 OFFCURVE",
"140 560 CURVE SMOOTH",
"140 700 LINE SMOOTH",
"140 758 OFFCURVE",
"150 762 OFFCURVE",
"165 762 CURVE SMOOTH",
"182 762 OFFCURVE",
"192 758 OFFCURVE",
"192 700 CURVE SMOOTH",
"192 656 LINE SMOOTH",
"192 579 OFFCURVE",
"221 535 OFFCURVE",
"278 535 CURVE SMOOTH",
"334 535 OFFCURVE",
"364 578 OFFCURVE",
"364 656 CURVE SMOOTH",
"364 700 LINE SMOOTH",
"364 758 OFFCURVE",
"374 762 OFFCURVE",
"389 762 CURVE SMOOTH",
"406 762 OFFCURVE",
"416 758 OFFCURVE",
"416 700 CURVE SMOOTH",
"416 656 LINE SMOOTH",
"416 579 OFFCURVE",
"445 535 OFFCURVE",
"502 535 CURVE SMOOTH",
"558 535 OFFCURVE",
"588 578 OFFCURVE",
"588 656 CURVE SMOOTH",
"588 700 LINE SMOOTH",
"588 758 OFFCURVE",
"598 762 OFFCURVE",
"613 762 CURVE SMOOTH",
"630 762 OFFCURVE",
"640 758 OFFCURVE",
"640 700 CURVE SMOOTH",
"640 601 LINE SMOOTH",
"640 414 OFFCURVE",
"396 474 OFFCURVE",
"396 310 CURVE SMOOTH",
"396 0 LINE",
"466 0 LINE",
"466 311 LINE SMOOTH",
"466 429 OFFCURVE",
"700 364 OFFCURVE",
"700 602 CURVE SMOOTH",
"700 699 LINE SMOOTH",
"700 777 OFFCURVE",
"670 820 OFFCURVE",
"614 820 CURVE SMOOTH",
"557 820 OFFCURVE",
"528 776 OFFCURVE",
"528 699 CURVE SMOOTH",
"528 655 LINE SMOOTH",
"528 597 OFFCURVE",
"518 593 OFFCURVE",
"501 593 CURVE SMOOTH",
"486 593 OFFCURVE",
"476 597 OFFCURVE",
"476 655 CURVE SMOOTH",
"476 699 LINE SMOOTH",
"476 777 OFFCURVE",
"446 820 OFFCURVE",
"390 820 CURVE SMOOTH",
"333 820 OFFCURVE",
"304 776 OFFCURVE",
"304 699 CURVE"
);
}
);
width = 780;
}
);
unicode = 10090;
},
{
glyphname = uni10091;
lastChange = "2019-08-21 19:20:35 +0000";
layers = (
{
layerId = UUID0;
paths = (
{
closed = 1;
nodes = (
"77 137 LINE",
"160 145 OFFCURVE",
"188 184 OFFCURVE",
"196 219 CURVE",
"196 0 LINE",
"645 0 LINE",
"645 585 LINE",
"421 807 LINE",
"196 585 LINE",
"196 463 LINE",
"84 460 OFFCURVE",
"50 410 OFFCURVE",
"50 363 CURVE SMOOTH",
"50 290 OFFCURVE",
"131 288 OFFCURVE",
"131 244 CURVE SMOOTH",
"131 213 OFFCURVE",
"111 201 OFFCURVE",
"77 197 CURVE"
);
},
{
closed = 1;
nodes = (
"575 304 LINE",
"575 63 LINE",
"266 63 LINE",
"266 304 LINE"
);
},
{
closed = 1;
nodes = (
"266 367 LINE",
"266 522 LINE",
"575 522 LINE",
"575 367 LINE"
);
},
{
closed = 1;
nodes = (
"420 721 LINE",
"562 585 LINE",
"279 585 LINE"
);
},
{
closed = 1;
nodes = (
"116 386 OFFCURVE",
"147 400 OFFCURVE",
"196 402 CURVE",
"196 258 LINE",
"184 313 OFFCURVE",
"116 315 OFFCURVE",
"116 357 CURVE SMOOTH"
);
}
);
width = 755;
}
);
unicode = 10091;
},
{
glyphname = uni10092;
lastChange = "2019-08-21 19:20:35 +0000";
layers = (
{
layerId = UUID0;
paths = (
{
closed = 1;
nodes = (
"339 800 LINE",
"279 800 LINE",
"279 730 LINE SMOOTH",
"279 543 OFFCURVE",
"110 574 OFFCURVE",
"110 410 CURVE SMOOTH",
"110 0 LINE",
"180 0 LINE",
"180 387 LINE",
"275 387 LINE SMOOTH",
"394 387 OFFCURVE",
"469 451 OFFCURVE",
"470 657 CURVE",
"400 657 LINE",
"400 506 OFFCURVE",
"355 450 OFFCURVE",
"278 450 CURVE SMOOTH",
"187 450 LINE",
"218 524 OFFCURVE",
"339 524 OFFCURVE",
"339 731 CURVE SMOOTH"
);
}
);
width = 520;
}
);
unicode = 10092;
},
{
glyphname = uni10093;
lastChange = "2019-08-21 19:20:35 +0000";
layers = (
{
layerId = UUID0;
paths = (
{
closed = 1;
nodes = (
"307 800 LINE",
"70 800 LINE",
"70 524 LINE",
"237 524 LINE",
"237 409 LINE",
"131 393 OFFCURVE",
"50 306 OFFCURVE",
"50 196 CURVE SMOOTH",
"50 74 OFFCURVE",
"150 -20 OFFCURVE",
"272 -20 CURVE SMOOTH",
"394 -20 OFFCURVE",
"494 74 OFFCURVE",
"494 196 CURVE SMOOTH",
"494 306 OFFCURVE",
"412 393 OFFCURVE",
"307 409 CURVE",
"307 587 LINE",
"140 587 LINE",
"140 737 LINE",
"307 737 LINE"
);
},
{
closed = 1;
nodes = (
"237 166 LINE",
"237 50 LINE",
"180 63 OFFCURVE",
"137 108 OFFCURVE",
"126 166 CURVE"
);
},
{
closed = 1;
nodes = (
"307 166 LINE",
"418 166 LINE",
"406 109 OFFCURVE",
"362 64 OFFCURVE",
"307 50 CURVE"
);
},
{
closed = 1;
nodes = (
"237 229 LINE",
"126 229 LINE",
"138 285 OFFCURVE",
"180 330 OFFCURVE",
"237 343 CURVE"
);
},
{
closed = 1;
nodes = (
"307 229 LINE",
"307 342 LINE",
"361 329 OFFCURVE",
"405 284 OFFCURVE",
"417 229 CURVE"
);
}
);
width = 544;
}
);
unicode = 10093;
},
{
glyphname = uni10094;
lastChange = "2019-08-21 19:20:35 +0000";
layers = (
{
layerId = UUID0;
paths = (
{
closed = 1;
nodes = (
"190 625 OFFCURVE",
"218 584 OFFCURVE",
"258 569 CURVE",
"258 563 LINE",
"80 563 LINE",
"80 500 LINE",
"137 500 LINE",
"137 341 LINE",
"258 341 LINE",
"258 298 LINE",
"184 283 OFFCURVE",
"128 219 OFFCURVE",
"128 140 CURVE SMOOTH",
"128 50 OFFCURVE",
"202 -20 OFFCURVE",
"293 -20 CURVE SMOOTH",
"384 -20 OFFCURVE",
"458 50 OFFCURVE",
"458 140 CURVE SMOOTH",
"458 219 OFFCURVE",
"402 283 OFFCURVE",
"328 298 CURVE",
"328 500 LINE",
"419 500 LINE",
"419 563 LINE",
"328 563 LINE",
"328 569 LINE",
"369 584 OFFCURVE",
"398 625 OFFCURVE",
"398 684 CURVE SMOOTH",
"398 738 OFFCURVE",
"373 778 OFFCURVE",
"337 795 CURVE",
"422 896 LINE",
"315 1020 LINE",
"272 1020 LINE",
"165 896 LINE",
"250 795 LINE",
"214 778 OFFCURVE",
"190 738 OFFCURVE",
"190 684 CURVE SMOOTH"
);
},
{
closed = 1;
nodes = (
"252 720 OFFCURVE",
"266 742 OFFCURVE",
"293 742 CURVE SMOOTH",
"320 742 OFFCURVE",
"334 720 OFFCURVE",
"334 684 CURVE SMOOTH",
"334 647 OFFCURVE",
"320 626 OFFCURVE",
"293 626 CURVE SMOOTH",
"266 626 OFFCURVE",
"252 647 OFFCURVE",
"252 684 CURVE SMOOTH"
);
},
{
closed = 1;
nodes = (
"258 500 LINE",
"258 399 LINE",
"197 399 LINE",
"197 500 LINE"
);
},
{
closed = 1;
nodes = (
"348 895 LINE",
"326 875 LINE SMOOTH",
"300 852 OFFCURVE",
"299 840 OFFCURVE",
"295 832 CURVE",
"291 832 LINE",
"287 840 OFFCURVE",
"287 851 OFFCURVE",
"258 877 CURVE SMOOTH",
"238 895 LINE",
"258 914 LINE SMOOTH",
"286 941 OFFCURVE",
"287 950 OFFCURVE",
"291 958 CURVE",
"295 958 LINE",
"299 950 OFFCURVE",
"301 940 OFFCURVE",
"326 916 CURVE SMOOTH"
);
},
{
closed = 1;
nodes = (
"262 113 LINE",
"262 41 LINE",
"228 52 OFFCURVE",
"202 79 OFFCURVE",
"193 113 CURVE"
);
},
{
closed = 1;
nodes = (
"324 113 LINE",
"392 113 LINE",
"383 79 OFFCURVE",
"356 52 OFFCURVE",
"324 41 CURVE"
);
},
{
closed = 1;
nodes = (
"262 170 LINE",
"194 170 LINE",
"203 203 OFFCURVE",
"229 230 OFFCURVE",
"262 240 CURVE"
);
},
{
closed = 1;
nodes = (
"324 170 LINE",
"324 240 LINE",
"356 229 OFFCURVE",
"382 203 OFFCURVE",
"392 170 CURVE"
);
}
);
width = 538;
}
);
unicode = 10094;
},
{
glyphname = uni10095;
lastChange = "2019-08-21 19:20:35 +0000";
layers = (
{
layerId = UUID0;
paths = (
{
closed = 1;
nodes = (
"548 737 LINE",
"464 737 LINE SMOOTH",
"401 737 OFFCURVE",
"343 703 OFFCURVE",
"313 678 CURVE",
"230 686 OFFCURVE",
"138 736 OFFCURVE",
"121 800 CURVE",
"50 800 LINE",
"70 701 OFFCURVE",
"196 618 OFFCURVE",
"324 615 CURVE",
"373 651 OFFCURVE",
"403 673 OFFCURVE",
"478 674 CURVE",
"478 577 LINE",
"464 577 LINE SMOOTH",
"401 577 OFFCURVE",
"343 543 OFFCURVE",
"313 518 CURVE",
"230 526 OFFCURVE",
"138 576 OFFCURVE",
"121 640 CURVE",
"50 640 LINE",
"70 541 OFFCURVE",
"196 458 OFFCURVE",
"324 455 CURVE",
"373 491 OFFCURVE",
"403 513 OFFCURVE",
"478 514 CURVE",
"478 0 LINE",
"548 0 LINE",
"548 385 LINE",
"640 402 OFFCURVE",
"721 475 OFFCURVE",
"721 567 CURVE SMOOTH",
"721 627 OFFCURVE",
"675 677 OFFCURVE",
"604 677 CURVE SMOOTH",
"586 677 OFFCURVE",
"567 674 OFFCURVE",
"548 667 CURVE"
);
},
{
closed = 1;
nodes = (
"637 620 OFFCURVE",
"663 603 OFFCURVE",
"663 568 CURVE SMOOTH",
"663 505 OFFCURVE",
"601 461 OFFCURVE",
"548 446 CURVE",
"548 608 LINE",
"562 616 OFFCURVE",
"581 620 OFFCURVE",
"599 620 CURVE SMOOTH"
);
}
);
width = 771;
}
);
unicode = 10095;
},
{
glyphname = uni10096;
lastChange = "2019-08-21 19:20:35 +0000";
layers = (
{
layerId = UUID0;
paths = (
{
closed = 1;
nodes = (
"181 737 LINE",
"666 737 LINE",
"666 800 LINE",
"111 800 LINE",
"111 0 LINE",
"181 0 LINE",
"181 545 LINE",
"353 545 LINE",
"353 0 LINE",
"423 0 LINE",
"423 545 LINE",
"596 545 LINE",
"596 0 LINE",
"666 0 LINE",
"666 608 LINE",
"181 608 LINE"
);
},
{
closed = 1;
nodes = (
"485 415 LINE",
"440 370 LINE",
"526 283 LINE",
"572 329 LINE"
);
},
{
closed = 1;
nodes = (
"485 190 LINE",
"440 145 LINE",
"526 58 LINE",
"572 104 LINE"
);
},
{
closed = 1;
nodes = (
"246 490 LINE",
"202 445 LINE",
"288 358 LINE",
"333 404 LINE"
);
},
{
closed = 1;
nodes = (
"246 265 LINE",
"202 220 LINE",
"288 133 LINE",
"333 179 LINE"
);
}
);
width = 777;
}
);
unicode = 10096;
},
{
glyphname = uni10097;
lastChange = "2019-08-21 19:20:35 +0000";
layers = (
{
layerId = UUID0;
paths = (
{
closed = 1;
nodes = (
"542 723 LINE",
"397 723 LINE",
"416 739 OFFCURVE",
"435 770 OFFCURVE",
"435 805 CURVE SMOOTH",
"435 857 OFFCURVE",
"399 890 OFFCURVE",
"328 890 CURVE SMOOTH",
"324 890 LINE",
"324 940 LINE",
"259 940 LINE",
"259 723 LINE",
"130 723 LINE",
"130 716 LINE",
"80 711 OFFCURVE",
"44 672 OFFCURVE",
"44 617 CURVE SMOOTH",
"44 547 OFFCURVE",
"105 476 OFFCURVE",
"158 441 CURVE",
"120 405 OFFCURVE",
"91 360 OFFCURVE",
"83 309 CURVE",
"97 227 OFFCURVE",
"160 124 OFFCURVE",
"229 63 CURVE",
"183 63 LINE",
"183 0 LINE",
"492 0 LINE",
"492 63 LINE",
"444 63 LINE",
"522 132 OFFCURVE",
"591 252 OFFCURVE",
"591 311 CURVE",
"582 362 OFFCURVE",
"552 407 OFFCURVE",
"513 443 CURVE",
"566 478 OFFCURVE",
"628 549 OFFCURVE",
"628 620 CURVE SMOOTH",
"628 675 OFFCURVE",
"592 714 OFFCURVE",
"542 719 CURVE"
);
},
{
closed = 1;
nodes = (
"507 227 OFFCURVE",
"421 118 OFFCURVE",
"371 71 CURVE",
"371 464 LINE",
"421 444 OFFCURVE",
"507 393 OFFCURVE",
"524 310 CURVE"
);
},
{
closed = 1;
nodes = (
"167 392 OFFCURVE",
"250 443 OFFCURVE",
"301 463 CURVE",
"301 73 LINE",
"250 120 OFFCURVE",
"167 226 OFFCURVE",
"148 310 CURVE"
);
},
{
closed = 1;
nodes = (
"132 593 LINE",
"179 593 LINE",
"179 653 LINE",
"216 630 OFFCURVE",
"236 549 OFFCURVE",
"239 498 CURVE",
"229 493 OFFCURVE",
"219 488 OFFCURVE",
"209 481 CURVE",
"165 504 OFFCURVE",
"110 550 OFFCURVE",
"110 618 CURVE SMOOTH",
"110 640 OFFCURVE",
"119 651 OFFCURVE",
"132 656 CURVE"
);
},
{
closed = 1;
nodes = (
"493 593 LINE",
"540 593 LINE",
"540 659 LINE",
"553 654 OFFCURVE",
"562 643 OFFCURVE",
"562 621 CURVE SMOOTH",
"562 552 OFFCURVE",
"504 505 OFFCURVE",
"460 483 CURVE",
"451 489 OFFCURVE",
"441 494 OFFCURVE",
"432 498 CURVE",
"435 548 OFFCURVE",
"454 632 OFFCURVE",
"493 656 CURVE"
);
},
{
closed = 1;
nodes = (
"377 768 OFFCURVE",
"349 745 OFFCURVE",
"324 730 CURVE",
"324 833 LINE",
"361 833 OFFCURVE",
"377 824 OFFCURVE",
"377 801 CURVE SMOOTH"
);
},
{
closed = 1;
nodes = (
"301 660 LINE",
"301 520 LINE",
"293 575 OFFCURVE",
"273 624 OFFCURVE",
"245 660 CURVE"
);
},
{
closed = 1;
nodes = (
"371 660 LINE",
"425 660 LINE",
"397 624 OFFCURVE",
"378 575 OFFCURVE",
"371 521 CURVE"
);
}
);
width = 672;
}
);
unicode = 10097;
},
{
glyphname = uni10098;
lastChange = "2019-08-21 19:20:35 +0000";
layers = (
{
layerId = UUID0;
paths = (
{
closed = 1;
nodes = (
"135 562 LINE",
"141 479 OFFCURVE",
"169 417 OFFCURVE",
"209 376 CURVE",
"165 376 LINE",
"165 313 LINE",
"239 313 LINE SMOOTH",
"259 313 OFFCURVE",
"279 316 OFFCURVE",
"299 321 CURVE",
"318 316 OFFCURVE",
"338 313 OFFCURVE",
"359 313 CURVE SMOOTH",
"433 313 LINE",
"433 376 LINE",
"388 376 LINE",
"429 417 OFFCURVE",
"457 479 OFFCURVE",
"463 562 CURVE",
"393 562 LINE",
"386 483 OFFCURVE",
"346 421 OFFCURVE",
"299 393 CURVE",
"251 421 OFFCURVE",
"211 483 OFFCURVE",
"205 562 CURVE"
);
},
{
closed = 1;
nodes = (
"383 673 LINE",
"334 673 LINE",
"334 710 LINE",
"383 710 LINE",
"383 773 LINE",
"334 773 LINE",
"334 870 LINE",
"264 870 LINE",
"264 773 LINE",
"215 773 LINE",
"215 710 LINE",
"264 710 LINE",
"264 673 LINE",
"215 673 LINE",
"215 610 LINE",
"264 610 LINE",
"264 533 LINE",
"334 533 LINE",
"334 610 LINE",
"383 610 LINE"
);
},
{
closed = 1;
nodes = (
"264 276 LINE",
"264 0 LINE",
"334 0 LINE",
"334 276 LINE"
);
},
{
closed = 1;
nodes = (
"478 458 LINE",
"478 260 LINE",
"548 260 LINE",
"548 458 LINE"
);
},
{
closed = 1;
nodes = (
"50 458 LINE",
"50 260 LINE",
"120 260 LINE",
"120 458 LINE"
);
}
);
width = 598;
}
);
unicode = 10098;
},
{
glyphname = uni10099;
lastChange = "2019-08-21 19:20:35 +0000";
layers = (
{
layerId = UUID0;
paths = (
{
closed = 1;
nodes = (
"40 800 LINE",
"40 737 LINE",
"163 737 LINE",
"163 462 LINE",
"233 462 LINE",
"233 737 LINE",
"331 737 LINE",
"390 625 LINE",
"390 568 LINE",
"325 545 OFFCURVE",
"268 466 OFFCURVE",
"268 381 CURVE SMOOTH",
"268 308 OFFCURVE",
"307 238 OFFCURVE",
"356 205 CURVE",
"321 205 LINE",
"321 142 LINE",
"366 142 LINE",
"301 20 LINE",
"363 -11 LINE",
"379 18 LINE SMOOTH",
"398 53 OFFCURVE",
"419 96 OFFCURVE",
"422 112 CURVE",
"426 112 LINE",
"429 96 OFFCURVE",
"449 56 OFFCURVE",
"469 17 CURVE SMOOTH",
"483 -10 LINE",
"545 20 LINE",
"482 142 LINE",
"525 142 LINE",
"525 205 LINE",
"460 205 LINE",
"460 626 LINE",
"517 737 LINE",
"560 732 OFFCURVE",
"580 724 OFFCURVE",
"580 702 CURVE SMOOTH",
"580 663 OFFCURVE",
"499 627 OFFCURVE",
"499 556 CURVE SMOOTH",
"499 500 OFFCURVE",
"541 461 OFFCURVE",
"593 461 CURVE SMOOTH",
"654 461 OFFCURVE",
"710 503 OFFCURVE",
"721 600 CURVE",
"665 600 LINE",
"657 559 OFFCURVE",
"638 521 OFFCURVE",
"592 521 CURVE SMOOTH",
"576 521 OFFCURVE",
"565 535 OFFCURVE",
"565 559 CURVE SMOOTH",
"565 627 OFFCURVE",
"646 632 OFFCURVE",
"646 704 CURVE SMOOTH",
"646 755 OFFCURVE",
"604 793 OFFCURVE",
"473 800 CURVE",
"454 761 OFFCURVE",
"429 716 OFFCURVE",
"426 700 CURVE",
"422 700 LINE",
"363 800 LINE"
);
},
{
closed = 1;
nodes = (
"390 270 LINE",
"359 291 OFFCURVE",
"341 327 OFFCURVE",
"341 382 CURVE SMOOTH",
"341 428 OFFCURVE",
"354 470 OFFCURVE",
"390 493 CURVE"
);
}
);
width = 761;
}
);
unicode = 10099;
},
{
glyphname = uni1009A;
lastChange = "2019-08-21 19:20:35 +0000";
layers = (
{
layerId = UUID0;
paths = (
{
closed = 1;
nodes = (
"425 800 LINE",
"425 659 LINE",
"180 659 LINE",
"180 840 LINE",
"110 840 LINE",
"110 0 LINE",
"180 0 LINE",
"180 401 LINE",
"425 401 LINE",
"425 266 LINE",
"495 266 LINE",
"495 800 LINE"
);
},
{
closed = 1;
nodes = (
"180 596 LINE",
"425 596 LINE",
"425 464 LINE",
"180 464 LINE"
);
}
);
width = 575;
}
);
unicode = 1009A;
},
{
glyphname = uni1009B;
lastChange = "2019-08-21 19:20:35 +0000";
layers = (
{
layerId = UUID0;
paths = (
{
closed = 1;
nodes = (
"619 800 LINE",
"590 800 LINE SMOOTH",
"469 800 OFFCURVE",
"462 559 OFFCURVE",
"354 497 CURVE",
"246 559 OFFCURVE",
"240 800 OFFCURVE",
"119 800 CURVE SMOOTH",
"90 800 LINE",
"90 737 LINE",
"114 737 LINE SMOOTH",
"178 737 OFFCURVE",
"190 567 OFFCURVE",
"296 460 CURVE",
"215 372 OFFCURVE",
"115 144 OFFCURVE",
"80 0 CURVE",
"152 0 LINE",
"209 212 OFFCURVE",
"316 403 OFFCURVE",
"354 417 CURVE",
"387 407 OFFCURVE",
"506 212 OFFCURVE",
"555 0 CURVE",
"629 0 LINE",
"586 161 OFFCURVE",
"491 376 OFFCURVE",
"413 460 CURVE",
"519 567 OFFCURVE",
"531 737 OFFCURVE",
"595 737 CURVE SMOOTH",
"619 737 LINE"
);
},
{
closed = 1;
nodes = (
"476 800 LINE",
"233 800 LINE",
"233 737 LINE",
"275 737 LINE",
"275 638 LINE",
"335 638 LINE",
"335 737 LINE",
"374 737 LINE",
"374 638 LINE",
"434 638 LINE",
"434 737 LINE",
"476 737 LINE"
);
},
{
closed = 1;
nodes = (
"505 511 LINE",
"538 505 OFFCURVE",
"553 474 OFFCURVE",
"553 443 CURVE SMOOTH",
"553 417 OFFCURVE",
"543 387 OFFCURVE",
"515 377 CURVE",
"538 320 LINE",
"588 340 OFFCURVE",
"619 392 OFFCURVE",
"619 446 CURVE SMOOTH",
"619 499 OFFCURVE",
"578 558 OFFCURVE",
"524 570 CURVE"
);
},
{
closed = 1;
nodes = (
"185 570 LINE",
"131 558 OFFCURVE",
"90 499 OFFCURVE",
"90 446 CURVE SMOOTH",
"90 392 OFFCURVE",
"121 340 OFFCURVE",
"171 320 CURVE",
"194 377 LINE",
"166 387 OFFCURVE",
"156 417 OFFCURVE",
"156 443 CURVE SMOOTH",
"156 474 OFFCURVE",
"171 505 OFFCURVE",
"204 511 CURVE"
);
}
);
width = 709;
}
);
unicode = 1009B;
},
{
glyphname = uni1009C;
lastChange = "2019-08-21 19:20:35 +0000";
layers = (
{
layerId = UUID0;
paths = (
{
closed = 1;
nodes = (
"395 710 OFFCURVE",
"299 800 OFFCURVE",
"206 800 CURVE SMOOTH",
"127 800 OFFCURVE",
"80 738 OFFCURVE",
"80 672 CURVE SMOOTH",
"80 581 OFFCURVE",
"160 498 OFFCURVE",
"247 485 CURVE",
"205 433 OFFCURVE",
"180 367 OFFCURVE",
"180 295 CURVE SMOOTH",
"180 127 OFFCURVE",
"317 -10 OFFCURVE",
"486 -10 CURVE SMOOTH",
"654 -10 OFFCURVE",
"790 127 OFFCURVE",
"790 295 CURVE SMOOTH",
"790 463 OFFCURVE",
"654 600 OFFCURVE",
"486 600 CURVE SMOOTH",
"454 600 OFFCURVE",
"424 595 OFFCURVE",
"395 586 CURVE",
"397 594 OFFCURVE",
"398 602 OFFCURVE",
"398 611 CURVE SMOOTH"
);
},
{
closed = 1;
nodes = (
"250 425 OFFCURVE",
"355 535 OFFCURVE",
"486 535 CURVE SMOOTH",
"615 535 OFFCURVE",
"720 425 OFFCURVE",
"720 295 CURVE SMOOTH",
"720 166 OFFCURVE",
"615 56 OFFCURVE",
"486 56 CURVE SMOOTH",
"355 56 OFFCURVE",
"250 166 OFFCURVE",
"250 295 CURVE SMOOTH"
);
},
{
closed = 1;
nodes = (
"328 576 OFFCURVE",
"306 549 OFFCURVE",
"268 549 CURVE SMOOTH",
"207 549 OFFCURVE",
"150 622 OFFCURVE",
"150 675 CURVE SMOOTH",
"150 706 OFFCURVE",
"168 735 OFFCURVE",
"205 735 CURVE SMOOTH",
"268 735 OFFCURVE",
"328 666 OFFCURVE",
"328 609 CURVE SMOOTH"
);
},
{
closed = 1;
nodes = (
"654 246 LINE",
"536 246 LINE",
"536 183 LINE",
"654 183 LINE"
);
},
{
closed = 1;
nodes = (
"654 416 LINE",
"536 416 LINE",
"536 353 LINE",
"654 353 LINE"
);
},
{
closed = 1;
nodes = (
"434 416 LINE",
"316 416 LINE",
"316 353 LINE",
"434 353 LINE"
);
},
{
closed = 1;
nodes = (
"434 246 LINE",
"316 246 LINE",
"316 183 LINE",
"434 183 LINE"
);
}
);
width = 890;
}
);
unicode = 1009C;
},
{
glyphname = uni1009D;
lastChange = "2019-08-21 19:20:35 +0000";
layers = (
{
layerId = UUID0;
paths = (
{
closed = 1;
nodes = (
"251 800 LINE",
"276 716 OFFCURVE",
"332 673 OFFCURVE",
"398 662 CURVE",
"398 158 LINE",
"468 158 LINE",
"468 662 LINE",
"534 673 OFFCURVE",
"590 716 OFFCURVE",
"615 800 CURVE",
"540 800 LINE",
"523 757 OFFCURVE",
"497 736 OFFCURVE",
"468 727 CURVE",
"468 800 LINE",
"398 800 LINE",
"398 727 LINE",
"368 736 OFFCURVE",
"343 757 OFFCURVE",
"327 800 CURVE"
);
},
{
closed = 1;
nodes = (
"122 764 LINE",
"168 715 LINE",
"110 653 LINE",
"110 291 LINE",
"180 291 LINE",
"180 638 LINE",
"211 670 LINE",
"253 626 LINE",
"253 358 LINE",
"323 358 LINE",
"323 641 LINE",
"168 807 LINE"
);
},
{
closed = 1;
nodes = (
"698 807 LINE",
"543 641 LINE",
"543 358 LINE",
"613 358 LINE",
"613 626 LINE",
"655 670 LINE",
"686 638 LINE",
"686 291 LINE",
"756 291 LINE",
"756 653 LINE",
"698 715 LINE",
"744 764 LINE"
);
},
{
closed = 1;
nodes = (
"514 255 LINE",
"569 255 OFFCURVE",
"609 236 OFFCURVE",
"609 202 CURVE SMOOTH",
"609 168 OFFCURVE",
"569 147 OFFCURVE",
"514 147 CURVE",
"517 94 LINE",
"625 94 OFFCURVE",
"667 136 OFFCURVE",
"667 201 CURVE SMOOTH",
"667 267 OFFCURVE",
"625 310 OFFCURVE",
"517 310 CURVE"
);
},
{
closed = 1;
nodes = (
"350 310 LINE",
"242 310 OFFCURVE",
"200 267 OFFCURVE",
"200 201 CURVE SMOOTH",
"200 136 OFFCURVE",
"242 94 OFFCURVE",
"350 94 CURVE",
"353 147 LINE",
"298 147 OFFCURVE",
"258 168 OFFCURVE",
"258 202 CURVE SMOOTH",
"258 236 OFFCURVE",
"298 255 OFFCURVE",
"353 255 CURVE"
);
},
{
closed = 1;
nodes = (
"578 63 LINE",
"288 63 LINE",
"288 0 LINE",
"578 0 LINE"
);
}
);
width = 866;
}
);
unicode = 1009D;
},
{
glyphname = uni1009E;
lastChange = "2019-08-21 19:20:35 +0000";
layers = (
{
layerId = UUID0;
paths = (
{
closed = 1;
nodes = (
"110 800 LINE",
"110 0 LINE",
"180 0 LINE",
"180 103 LINE",
"340 103 LINE",
"340 0 LINE",
"410 0 LINE",
"410 103 LINE",
"570 103 LINE",
"570 0 LINE",
"640 0 LINE",
"640 800 LINE",
"590 800 LINE",
"520 757 LINE",
"520 662 OFFCURVE",
"442 593 OFFCURVE",
"374 593 CURVE SMOOTH",
"307 593 OFFCURVE",
"229 662 OFFCURVE",
"229 757 CURVE",
"160 800 LINE"
);
},
{
closed = 1;
nodes = (
"471 529 OFFCURVE",
"559 607 OFFCURVE",
"570 731 CURVE",
"570 166 LINE",
"180 166 LINE",
"180 731 LINE",
"190 607 OFFCURVE",
"277 529 OFFCURVE",
"373 529 CURVE SMOOTH"
);
},
{
closed = 1;
nodes = (
"314 397 LINE",
"323 418 OFFCURVE",
"335 433 OFFCURVE",
"364 433 CURVE SMOOTH",
"380 433 OFFCURVE",
"398 422 OFFCURVE",
"398 402 CURVE SMOOTH",
"398 375 OFFCURVE",
"279 358 OFFCURVE",
"279 281 CURVE SMOOTH",
"279 231 OFFCURVE",
"327 203 OFFCURVE",
"379 203 CURVE SMOOTH",
"416 203 OFFCURVE",
"454 224 OFFCURVE",
"478 268 CURVE",
"429 299 LINE",
"418 279 OFFCURVE",
"401 263 OFFCURVE",
"379 263 CURVE SMOOTH",
"363 263 OFFCURVE",
"345 274 OFFCURVE",
"345 292 CURVE SMOOTH",
"345 321 OFFCURVE",
"464 342 OFFCURVE",
"464 409 CURVE SMOOTH",
"464 455 OFFCURVE",
"424 493 OFFCURVE",
"372 493 CURVE SMOOTH",
"329 493 OFFCURVE",
"289 473 OFFCURVE",
"265 428 CURVE"
);
}
);
width = 750;
}
);
unicode = 1009E;
},
{
glyphname = uni1009F;
lastChange = "2019-08-21 19:20:35 +0000";
layers = (
{
layerId = UUID0;
paths = (
{
closed = 1;
nodes = (
"219 697 LINE",
"219 0 LINE",
"515 0 LINE",
"515 63 LINE",
"289 63 LINE",
"289 697 LINE"
);
},
{
closed = 1;
nodes = (
"554 697 LINE",
"554 0 LINE",
"624 0 LINE",
"624 697 LINE"
);
},
{
closed = 1;
nodes = (
"515 697 LINE",
"432 697 LINE",
"396 768 OFFCURVE",
"333 813 OFFCURVE",
"253 813 CURVE SMOOTH",
"152 813 OFFCURVE",
"77 741 OFFCURVE",
"50 634 CURVE",
"119 634 LINE",
"137 702 OFFCURVE",
"177 750 OFFCURVE",
"253 750 CURVE SMOOTH",
"328 750 OFFCURVE",
"374 700 OFFCURVE",
"388 634 CURVE",
"515 634 LINE"
);
},
{
closed = 1;
nodes = (
"327 279 LINE",
"327 185 LINE SMOOTH",
"327 147 OFFCURVE",
"357 111 OFFCURVE",
"408 111 CURVE SMOOTH",
"480 111 LINE",
"480 174 LINE",
"429 174 LINE SMOOTH",
"402 174 OFFCURVE",
"397 179 OFFCURVE",
"397 197 CURVE SMOOTH",
"397 279 LINE"
);
},
{
closed = 1;
nodes = (
"819 688 LINE",
"747 688 LINE",
"636 807 LINE",
"590 764 LINE",
"721 625 LINE",
"819 625 LINE"
);
}
);
width = 869;
}
);
unicode = 1009F;
},
{
glyphname = uni100A0;
lastChange = "2019-08-21 19:20:35 +0000";
layers = (
{
layerId = UUID0;
paths = (
{
closed = 1;
nodes = (
"1151 490 OFFCURVE",
"1095 458 OFFCURVE",
"1061 419 CURVE",
"1054 433 OFFCURVE",
"1047 447 OFFCURVE",
"1039 460 CURVE",
"1075 462 OFFCURVE",
"1141 487 OFFCURVE",
"1141 549 CURVE SMOOTH",
"1141 578 OFFCURVE",
"1134 620 OFFCURVE",
"1090 657 CURVE",
"1060 654 OFFCURVE",
"986 610 OFFCURVE",
"959 562 CURVE",
"947 574 OFFCURVE",
"933 586 OFFCURVE",
"920 597 CURVE",
"954 607 OFFCURVE",
"992 633 OFFCURVE",
"992 680 CURVE SMOOTH",
"992 709 OFFCURVE",
"985 751 OFFCURVE",
"941 788 CURVE",
"906 785 OFFCURVE",
"813 727 OFFCURVE",
"801 670 CURVE",
"720 707 OFFCURVE",
"623 729 OFFCURVE",
"508 729 CURVE SMOOTH",
"268 729 OFFCURVE",
"50 560 OFFCURVE",
"50 328 CURVE SMOOTH",
"50 284 OFFCURVE",
"54 246 OFFCURVE",
"65 212 CURVE",
"112 240 LINE",
"174 383 OFFCURVE",
"299 507 OFFCURVE",
"488 507 CURVE SMOOTH",
"729 507 OFFCURVE",
"861 342 OFFCURVE",
"861 125 CURVE SMOOTH",
"861 53 LINE",
"823 53 LINE",
"823 0 LINE",
"1155 0 LINE",
"1155 53 LINE",
"1121 53 LINE",
"1121 173 LINE SMOOTH",
"1121 212 OFFCURVE",
"1116 254 OFFCURVE",
"1106 295 CURVE",
"1114 293 OFFCURVE",
"1122 292 OFFCURVE",
"1130 292 CURVE SMOOTH",
"1185 292 OFFCURVE",
"1228 318 OFFCURVE",
"1228 384 CURVE SMOOTH",
"1228 413 OFFCURVE",
"1221 455 OFFCURVE",
"1177 492 CURVE"
);
},
{
closed = 1;
nodes = (
"931 130 LINE",
"931 370 OFFCURVE",
"786 572 OFFCURVE",
"491 572 CURVE SMOOTH",
"322 572 OFFCURVE",
"186 482 OFFCURVE",
"120 363 CURVE",
"129 532 OFFCURVE",
"308 664 OFFCURVE",
"497 664 CURVE SMOOTH",
"911 664 OFFCURVE",
"1051 385 OFFCURVE",
"1051 168 CURVE SMOOTH",
"1051 53 LINE",
"931 53 LINE"
);
},
{
closed = 1;
nodes = (
"854 671 OFFCURVE",
"885 714 OFFCURVE",
"927 728 CURVE",
"935 716 OFFCURVE",
"939 701 OFFCURVE",
"939 687 CURVE SMOOTH",
"939 658 OFFCURVE",
"921 632 OFFCURVE",
"885 632 CURVE SMOOTH",
"875 632 OFFCURVE",
"854 640 OFFCURVE",
"854 651 CURVE SMOOTH"
);
},
{
closed = 1;
nodes = (
"1003 540 OFFCURVE",
"1034 583 OFFCURVE",
"1076 597 CURVE",
"1084 585 OFFCURVE",
"1088 570 OFFCURVE",
"1088 556 CURVE SMOOTH",
"1088 527 OFFCURVE",
"1070 501 OFFCURVE",
"1034 501 CURVE SMOOTH",
"1024 501 OFFCURVE",
"1003 509 OFFCURVE",
"1003 520 CURVE SMOOTH"
);
},
{
closed = 1;
nodes = (
"1090 375 OFFCURVE",
"1121 418 OFFCURVE",
"1163 432 CURVE",
"1170 419 OFFCURVE",
"1174 404 OFFCURVE",
"1174 390 CURVE SMOOTH",
"1174 362 OFFCURVE",
"1158 336 OFFCURVE",
"1121 336 CURVE SMOOTH",
"1111 336 OFFCURVE",
"1090 344 OFFCURVE",
"1090 355 CURVE SMOOTH"
);
}
);
width = 1274;
}
);
unicode = 100A0;
},
{
glyphname = uni100A1;
lastChange = "2019-08-21 19:20:35 +0000";
layers = (
{
layerId = UUID0;
paths = (
{
closed = 1;
nodes = (
"50 742 LINE",
"147 645 OFFCURVE",
"164 553 OFFCURVE",
"164 505 CURVE SMOOTH",
"164 466 OFFCURVE",
"160 362 OFFCURVE",
"85 298 CURVE",
"424 -10 LINE",
"764 298 LINE",
"689 362 OFFCURVE",
"685 466 OFFCURVE",
"685 505 CURVE SMOOTH",
"685 557 OFFCURVE",
"700 644 OFFCURVE",
"799 742 CURVE",
"760 807 LINE",
"682 775 OFFCURVE",
"601 742 OFFCURVE",
"467 742 CURVE SMOOTH",
"382 742 LINE SMOOTH",
"284 742 OFFCURVE",
"221 755 OFFCURVE",
"88 807 CURVE"
);
},
{
closed = 1;
nodes = (
"660 656 OFFCURVE",
"627 595 OFFCURVE",
"627 503 CURVE SMOOTH",
"627 429 OFFCURVE",
"647 343 OFFCURVE",
"683 303 CURVE",
"424 64 LINE",
"166 303 LINE",
"202 343 OFFCURVE",
"222 429 OFFCURVE",
"222 503 CURVE SMOOTH",
"222 595 OFFCURVE",
"189 656 OFFCURVE",
"119 738 CURVE",
"192 693 OFFCURVE",
"309 676 OFFCURVE",
"393 676 CURVE SMOOTH",
"456 676 LINE SMOOTH",
"540 676 OFFCURVE",
"657 693 OFFCURVE",
"730 738 CURVE"
);
},
{
closed = 1;
nodes = (
"585 489 LINE",
"550 489 LINE",
"469 564 LINE",
"515 607 LINE",
"478 645 LINE",
"309 489 LINE",
"263 489 LINE",
"263 436 LINE",
"293 436 LINE",
"293 304 LINE",
"263 304 LINE",
"263 251 LINE",
"585 251 LINE",
"585 304 LINE",
"555 304 LINE",
"555 436 LINE",
"585 436 LINE"
);
},
{
closed = 1;
nodes = (
"355 436 LINE",
"393 436 LINE",
"393 304 LINE",
"355 304 LINE"
);
},
{
closed = 1;
nodes = (
"455 436 LINE",
"493 436 LINE",
"493 304 LINE",
"455 304 LINE"
);
},
{
closed = 1;
nodes = (
"430 528 LINE",
"472 489 LINE",
"389 489 LINE"
);
}
);
width = 849;
}
);
unicode = 100A1;
},
{
glyphname = uni100A2;
lastChange = "2019-08-21 19:20:35 +0000";
layers = (
{
layerId = UUID0;
paths = (
{
closed = 1;
nodes = (
"281 760 OFFCURVE",
"237 718 OFFCURVE",
"237 663 CURVE SMOOTH",
"237 645 OFFCURVE",
"241 629 OFFCURVE",
"249 615 CURVE",
"249 611 OFFCURVE",
"248 601 OFFCURVE",
"248 594 CURVE",
"266 430 OFFCURVE",
"292 368 OFFCURVE",
"319 345 CURVE",
"319 177 LINE",
"381 177 LINE",
"381 343 LINE",
"407 366 OFFCURVE",
"431 431 OFFCURVE",
"451 601 CURVE",
"451 606 OFFCURVE",
"451 610 OFFCURVE",
"450 614 CURVE",
"459 628 OFFCURVE",
"464 645 OFFCURVE",
"464 663 CURVE SMOOTH",
"464 718 OFFCURVE",
"419 760 OFFCURVE",
"350 760 CURVE SMOOTH"
);
},
{
closed = 1;
nodes = (
"364 565 OFFCURVE",
"377 566 OFFCURVE",
"389 570 CURVE",
"378 424 OFFCURVE",
"361 398 OFFCURVE",
"351 398 CURVE SMOOTH",
"340 398 OFFCURVE",
"319 418 OFFCURVE",
"308 571 CURVE",
"321 567 OFFCURVE",
"335 565 OFFCURVE",
"350 565 CURVE SMOOTH"
);
},
{
closed = 1;
nodes = (
"387 705 OFFCURVE",
"409 691 OFFCURVE",
"409 664 CURVE SMOOTH",
"409 637 OFFCURVE",
"387 623 OFFCURVE",
"351 623 CURVE SMOOTH",
"314 623 OFFCURVE",
"293 637 OFFCURVE",
"293 664 CURVE SMOOTH",
"293 691 OFFCURVE",
"314 705 OFFCURVE",
"351 705 CURVE SMOOTH"
);
},
{
closed = 1;
nodes = (
"50 661 LINE",
"140 591 OFFCURVE",
"154 527 OFFCURVE",
"154 470 CURVE SMOOTH",
"154 393 OFFCURVE",
"125 339 OFFCURVE",
"50 275 CURVE",
"350 -20 LINE",
"651 275 LINE",
"576 339 OFFCURVE",
"547 393 OFFCURVE",
"547 470 CURVE SMOOTH",
"547 527 OFFCURVE",
"561 591 OFFCURVE",
"651 661 CURVE",
"350 955 LINE"
);
},
{
closed = 1;
nodes = (
"212 554 OFFCURVE",
"187 612 OFFCURVE",
"135 665 CURVE",
"350 879 LINE",
"566 665 LINE",
"514 612 OFFCURVE",
"489 554 OFFCURVE",
"489 469 CURVE SMOOTH",
"489 395 OFFCURVE",
"514 327 OFFCURVE",
"571 275 CURVE",
"350 56 LINE",
"130 275 LINE",
"187 327 OFFCURVE",
"212 395 OFFCURVE",
"212 469 CURVE SMOOTH"
);
}
);
width = 701;
}
);
unicode = 100A2;
},
{
glyphname = uni100A3;
lastChange = "2019-08-21 19:20:35 +0000";
layers = (
{
layerId = UUID0;
paths = (
{
closed = 1;
nodes = (
"711 844 LINE",
"655 810 OFFCURVE",
"562 791 OFFCURVE",
"481 791 CURVE SMOOTH",
"456 791 LINE SMOOTH",
"375 791 OFFCURVE",
"282 810 OFFCURVE",
"226 844 CURVE",
"226 775 LINE",
"235 768 OFFCURVE",
"246 761 OFFCURVE",
"258 756 CURVE",
"50 539 LINE",
"92 498 LINE",
"133 541 LINE",
"161 521 OFFCURVE",
"181 489 OFFCURVE",
"181 446 CURVE SMOOTH",
"181 389 OFFCURVE",
"149 343 OFFCURVE",
"103 333 CURVE",
"103 279 LINE",
"200 287 OFFCURVE",
"239 373 OFFCURVE",
"239 445 CURVE SMOOTH",
"239 503 OFFCURVE",
"217 554 OFFCURVE",
"176 585 CURVE",
"323 736 LINE",
"364 728 OFFCURVE",
"410 725 OFFCURVE",
"456 725 CURVE SMOOTH",
"481 725 LINE SMOOTH",
"527 725 OFFCURVE",
"573 728 OFFCURVE",
"614 736 CURVE",
"761 584 LINE",
"720 553 OFFCURVE",
"698 503 OFFCURVE",
"698 445 CURVE SMOOTH",
"698 373 OFFCURVE",
"737 287 OFFCURVE",
"834 279 CURVE",
"834 333 LINE",
"788 343 OFFCURVE",
"756 389 OFFCURVE",
"756 446 CURVE SMOOTH",
"756 489 OFFCURVE",
"775 521 OFFCURVE",
"803 541 CURVE",
"845 498 LINE",
"887 539 LINE",
"679 756 LINE",
"691 761 OFFCURVE",
"701 768 OFFCURVE",
"711 775 CURVE"
);
},
{
closed = 1;
nodes = (
"442 0 LINE",
"442 236 LINE SMOOTH",
"442 274 OFFCURVE",
"412 310 OFFCURVE",
"361 310 CURVE SMOOTH",
"229 310 LINE",
"229 247 LINE",
"340 247 LINE SMOOTH",
"367 247 OFFCURVE",
"372 242 OFFCURVE",
"372 224 CURVE SMOOTH",
"372 0 LINE"
);
},
{
closed = 1;
nodes = (
"565 0 LINE",
"565 224 LINE SMOOTH",
"565 242 OFFCURVE",
"570 247 OFFCURVE",
"597 247 CURVE SMOOTH",
"708 247 LINE",
"708 310 LINE",
"576 310 LINE SMOOTH",
"525 310 OFFCURVE",
"495 274 OFFCURVE",
"495 236 CURVE SMOOTH",
"495 0 LINE"
);
}
);
width = 937;
}
);
unicode = 100A3;
},
{
glyphname = uni100A4;
lastChange = "2019-08-21 19:20:35 +0000";
layers = (
{
layerId = UUID0;
paths = (
{
closed = 1;
nodes = (
"195 650 LINE",
"93 648 OFFCURVE",
"50 611 OFFCURVE",
"50 547 CURVE SMOOTH",
"50 490 OFFCURVE",
"105 447 OFFCURVE",
"150 411 CURVE SMOOTH",
"237 342 LINE",
"237 316 LINE",
"132 316 LINE",
"132 253 LINE",
"237 253 LINE",
"237 51 LINE",
"204 76 OFFCURVE",
"162 111 OFFCURVE",
"162 136 CURVE SMOOTH",
"162 165 OFFCURVE",
"183 170 OFFCURVE",
"200 170 CURVE",
"200 225 LINE",
"143 225 OFFCURVE",
"98 200 OFFCURVE",
"98 136 CURVE SMOOTH",
"98 84 OFFCURVE",
"160 36 OFFCURVE",
"206 0 CURVE",
"338 0 LINE",
"384 36 OFFCURVE",
"446 84 OFFCURVE",
"446 136 CURVE SMOOTH",
"446 200 OFFCURVE",
"401 225 OFFCURVE",
"344 225 CURVE",
"344 170 LINE",
"361 170 OFFCURVE",
"382 165 OFFCURVE",
"382 136 CURVE SMOOTH",
"382 111 OFFCURVE",
"339 76 OFFCURVE",
"307 51 CURVE",
"307 253 LINE",
"412 253 LINE",
"412 316 LINE",
"307 316 LINE",
"307 342 LINE",
"394 411 LINE SMOOTH",
"439 447 OFFCURVE",
"494 490 OFFCURVE",
"494 547 CURVE SMOOTH",
"494 611 OFFCURVE",
"451 648 OFFCURVE",
"349 650 CURVE",
"349 595 LINE",
"397 593 OFFCURVE",
"430 578 OFFCURVE",
"430 547 CURVE SMOOTH",
"430 514 OFFCURVE",
"375 477 OFFCURVE",
"345 453 CURVE SMOOTH",
"307 422 LINE",
"307 714 LINE SMOOTH",
"307 732 OFFCURVE",
"312 737 OFFCURVE",
"339 737 CURVE SMOOTH",
"420 737 LINE",
"420 800 LINE",
"318 800 LINE SMOOTH",
"267 800 OFFCURVE",
"237 764 OFFCURVE",
"237 726 CURVE SMOOTH",
"237 422 LINE",
"199 453 LINE SMOOTH",
"170 476 OFFCURVE",
"114 514 OFFCURVE",
"114 547 CURVE SMOOTH",
"114 578 OFFCURVE",
"147 593 OFFCURVE",
"195 595 CURVE"
);
}
);
width = 544;
}
);
unicode = 100A4;
},
{
glyphname = uni100A5;
lastChange = "2019-08-21 19:20:35 +0000";
layers = (
{
layerId = UUID0;
paths = (
{
closed = 1;
nodes = (
"232 236 LINE",
"272 270 OFFCURVE",
"310 301 OFFCURVE",
"314 374 CURVE",
"358 303 LINE",
"358 258 LINE",
"298 258 LINE",
"298 195 LINE",
"488 195 LINE",
"488 258 LINE",
"428 258 LINE",
"428 304 LINE",
"471 375 LINE",
"474 302 OFFCURVE",
"514 270 OFFCURVE",
"554 236 CURVE",
"601 287 LINE",
"579 308 OFFCURVE",
"541 336 OFFCURVE",
"541 385 CURVE SMOOTH",
"541 433 LINE SMOOTH",
"541 531 OFFCURVE",
"475 597 OFFCURVE",
"433 630 CURVE",
"443 662 OFFCURVE",
"478 695 OFFCURVE",
"523 722 CURVE SMOOTH",
"584 758 LINE",
"551 817 LINE",
"491 782 LINE SMOOTH",
"411 736 OFFCURVE",
"373 682 OFFCURVE",
"363 637 CURVE",
"322 608 OFFCURVE",
"245 539 OFFCURVE",
"245 433 CURVE SMOOTH",
"245 385 LINE SMOOTH",
"245 336 OFFCURVE",
"207 308 OFFCURVE",
"185 287 CURVE"
);
},
{
closed = 1;
nodes = (
"272 114 LINE",
"253 171 OFFCURVE",
"205 189 OFFCURVE",
"162 189 CURVE SMOOTH",
"105 189 OFFCURVE",
"50 151 OFFCURVE",
"50 89 CURVE SMOOTH",
"50 29 OFFCURVE",
"91 -12 OFFCURVE",
"186 -12 CURVE SMOOTH",
"381 -12 OFFCURVE",
"434 131 OFFCURVE",
"600 131 CURVE SMOOTH",
"656 131 OFFCURVE",
"673 111 OFFCURVE",
"673 88 CURVE SMOOTH",
"673 59 OFFCURVE",
"651 43 OFFCURVE",
"628 43 CURVE SMOOTH",
"604 43 OFFCURVE",
"576 57 OFFCURVE",
"564 84 CURVE",
"514 63 LINE",
"533 6 OFFCURVE",
"581 -12 OFFCURVE",
"624 -12 CURVE SMOOTH",
"681 -12 OFFCURVE",
"736 26 OFFCURVE",
"736 88 CURVE SMOOTH",
"736 148 OFFCURVE",
"695 189 OFFCURVE",
"600 189 CURVE SMOOTH",
"404 189 OFFCURVE",
"353 46 OFFCURVE",
"186 46 CURVE SMOOTH",
"130 46 OFFCURVE",
"113 66 OFFCURVE",
"113 89 CURVE SMOOTH",
"113 118 OFFCURVE",
"135 134 OFFCURVE",
"158 134 CURVE SMOOTH",
"182 134 OFFCURVE",
"210 120 OFFCURVE",
"222 93 CURVE"
);
},
{
closed = 1;
nodes = (
"390 358 LINE",
"317 480 LINE",
"327 525 OFFCURVE",
"360 554 OFFCURVE",
"392 577 CURVE",
"425 554 OFFCURVE",
"458 526 OFFCURVE",
"468 481 CURVE",
"394 358 LINE"
);
}
);
width = 786;
}
);
unicode = 100A5;
},
{
glyphname = uni100A6;
lastChange = "2019-08-21 19:20:35 +0000";
layers = (
{
layerId = UUID0;
paths = (
{
closed = 1;
nodes = (
"813 760 LINE",
"780 819 LINE",
"720 784 LINE SMOOTH",
"626 730 OFFCURVE",
"589 664 OFFCURVE",
"589 615 CURVE SMOOTH",
"589 559 LINE SMOOTH",
"589 517 OFFCURVE",
"577 495 OFFCURVE",
"561 478 CURVE",
"395 478 LINE SMOOTH",
"238 478 OFFCURVE",
"80 230 OFFCURVE",
"80 30 CURVE SMOOTH",
"80 -10 LINE",
"1168 -10 LINE",
"1168 30 LINE SMOOTH",
"1168 230 OFFCURVE",
"1009 478 OFFCURVE",
"853 478 CURVE SMOOTH",
"686 478 LINE",
"670 495 OFFCURVE",
"659 517 OFFCURVE",
"659 558 CURVE SMOOTH",
"659 613 LINE SMOOTH",
"659 652 OFFCURVE",
"698 692 OFFCURVE",
"752 724 CURVE SMOOTH"
);
},
{
closed = 1;
nodes = (
"856 415 LINE",
"963 415 OFFCURVE",
"1094 203 OFFCURVE",
"1097 53 CURVE",
"151 53 LINE",
"153 203 OFFCURVE",
"285 415 OFFCURVE",
"392 415 CURVE SMOOTH",
"496 415 LINE",
"476 386 OFFCURVE",
"460 341 OFFCURVE",
"460 258 CURVE SMOOTH",
"460 190 LINE",
"520 190 LINE",
"520 259 LINE SMOOTH",
"520 384 OFFCURVE",
"583 403 OFFCURVE",
"624 451 CURVE",
"665 403 OFFCURVE",
"728 384 OFFCURVE",
"728 259 CURVE SMOOTH",
"728 190 LINE",
"788 190 LINE",
"788 258 LINE SMOOTH",
"788 341 OFFCURVE",
"772 386 OFFCURVE",
"751 415 CURVE"
);
},
{
closed = 1;
nodes = (
"659 190 LINE",
"659 347 LINE",
"589 347 LINE",
"589 190 LINE"
);
}
);
width = 1248;
}
);
unicode = 100A6;
},
{
glyphname = uni100A7;
lastChange = "2019-08-21 19:20:35 +0000";
layers = (
{
layerId = UUID0;
paths = (
{
closed = 1;
nodes = (
"595 137 LINE",
"595 0 LINE",
"665 0 LINE",
"665 800 LINE",
"110 800 LINE",
"110 0 LINE",
"180 0 LINE",
"180 137 LINE"
);
},
{
closed = 1;
nodes = (
"180 737 LINE",
"595 737 LINE",
"595 200 LINE",
"180 200 LINE"
);
}
);
width = 775;
}
);
unicode = 100A7;
},
{
glyphname = uni100A8;
lastChange = "2019-08-21 19:20:35 +0000";
layers = (
{
layerId = UUID0;
paths = (
{
closed = 1;
nodes = (
"110 0 LINE",
"810 0 LINE",
"810 800 LINE",
"110 800 LINE"
);
},
{
closed = 1;
nodes = (
"180 737 LINE",
"600 737 LINE",
"600 63 LINE",
"180 63 LINE"
);
},
{
closed = 1;
nodes = (
"355 110 LINE",
"425 110 LINE",
"425 491 LINE",
"563 635 LINE",
"518 679 LINE",
"386 542 LINE",
"254 679 LINE",
"209 635 LINE",
"355 483 LINE"
);
},
{
closed = 1;
nodes = (
"670 737 LINE",
"740 737 LINE",
"740 63 LINE",
"670 63 LINE"
);
}
);
width = 920;
}
);
unicode = 100A8;
},
{
glyphname = uni100A9;
lastChange = "2019-08-21 19:20:35 +0000";
layers = (
{
layerId = UUID0;
paths = (
{
closed = 1;
nodes = (
"901 444 LINE",
"871 463 OFFCURVE",
"841 483 OFFCURVE",
"829 487 CURVE",
"830 492 LINE",
"907 526 LINE",
"887 582 LINE",
"758 531 LINE",
"729 534 LINE",
"769 602 OFFCURVE",
"801 698 OFFCURVE",
"823 800 CURVE",
"754 800 LINE",
"720 659 OFFCURVE",
"678 557 OFFCURVE",
"636 518 CURVE",
"636 800 LINE",
"566 800 LINE",
"566 516 LINE",
"522 555 OFFCURVE",
"481 665 OFFCURVE",
"448 800 CURVE",
"379 800 LINE",
"407 665 OFFCURVE",
"452 551 OFFCURVE",
"505 487 CURVE",
"347 340 OFFCURVE",
"267 190 OFFCURVE",
"245 0 CURVE",
"316 0 LINE",
"338 170 OFFCURVE",
"413 306 OFFCURVE",
"558 441 CURVE",
"566 437 LINE",
"566 0 LINE",
"636 0 LINE",
"636 439 LINE",
"653 446 OFFCURVE",
"670 458 OFFCURVE",
"686 475 CURVE",
"753 468 LINE",
"868 393 LINE"
);
},
{
closed = 1;
nodes = (
"203 0 LINE",
"203 356 LINE",
"284 364 OFFCURVE",
"317 404 OFFCURVE",
"317 461 CURVE SMOOTH",
"317 519 OFFCURVE",
"284 559 OFFCURVE",
"203 568 CURVE",
"203 726 LINE SMOOTH",
"203 764 OFFCURVE",
"173 800 OFFCURVE",
"122 800 CURVE SMOOTH",
"50 800 LINE",
"50 737 LINE",
"101 737 LINE SMOOTH",
"128 737 OFFCURVE",
"133 732 OFFCURVE",
"133 714 CURVE SMOOTH",
"133 0 LINE"
);
},
{
closed = 1;
nodes = (
"259 436 OFFCURVE",
"237 418 OFFCURVE",
"203 411 CURVE",
"203 511 LINE",
"237 504 OFFCURVE",
"259 487 OFFCURVE",
"259 462 CURVE SMOOTH"
);
}
);
width = 957;
}
);
unicode = 100A9;
},
{
glyphname = uni100AA;
lastChange = "2019-08-21 19:20:35 +0000";
layers = (
{
layerId = UUID0;
paths = (
{
closed = 1;
nodes = (
"741 0 LINE",
"716 229 OFFCURVE",
"668 496 OFFCURVE",
"545 608 CURVE",
"555 605 OFFCURVE",
"567 603 OFFCURVE",
"579 603 CURVE SMOOTH",
"637 603 OFFCURVE",
"688 652 OFFCURVE",
"688 712 CURVE SMOOTH",
"688 771 OFFCURVE",
"637 820 OFFCURVE",
"579 820 CURVE SMOOTH",
"519 820 OFFCURVE",
"470 771 OFFCURVE",
"470 712 CURVE SMOOTH",
"470 694 OFFCURVE",
"474 677 OFFCURVE",
"481 663 CURVE",
"340 663 LINE",
"347 678 OFFCURVE",
"352 694 OFFCURVE",
"352 712 CURVE SMOOTH",
"352 771 OFFCURVE",
"301 820 OFFCURVE",
"243 820 CURVE SMOOTH",
"183 820 OFFCURVE",
"134 771 OFFCURVE",
"134 712 CURVE SMOOTH",
"134 652 OFFCURVE",
"183 603 OFFCURVE",
"243 603 CURVE SMOOTH",
"255 603 OFFCURVE",
"266 605 OFFCURVE",
"277 609 CURVE",
"158 498 OFFCURVE",
"106 237 OFFCURVE",
"80 0 CURVE"
);
},
{
closed = 1;
nodes = (
"649 140 LINE",
"654 114 OFFCURVE",
"657 88 OFFCURVE",
"661 63 CURVE",
"158 63 LINE",
"161 88 OFFCURVE",
"165 114 OFFCURVE",
"169 140 CURVE"
);
},
{
closed = 1;
nodes = (
"620 280 LINE",
"626 255 OFFCURVE",
"632 229 OFFCURVE",
"637 203 CURVE",
"181 203 LINE",
"186 229 OFFCURVE",
"192 255 OFFCURVE",
"198 280 CURVE"
);
},
{
closed = 1;
nodes = (
"578 420 LINE",
"587 396 OFFCURVE",
"595 370 OFFCURVE",
"603 343 CURVE",
"215 343 LINE",
"223 370 OFFCURVE",
"232 396 OFFCURVE",
"241 420 CURVE"
);
},
{
closed = 1;
nodes = (
"451 600 LINE",
"489 582 OFFCURVE",
"523 540 OFFCURVE",
"551 483 CURVE",
"268 483 LINE",
"296 540 OFFCURVE",
"329 582 OFFCURVE",
"367 600 CURVE"
);
},
{
closed = 1;
nodes = (
"192 740 OFFCURVE",
"214 763 OFFCURVE",
"243 763 CURVE SMOOTH",
"271 763 OFFCURVE",
"294 740 OFFCURVE",
"294 711 CURVE SMOOTH",
"294 682 OFFCURVE",
"271 660 OFFCURVE",
"243 660 CURVE SMOOTH",
"214 660 OFFCURVE",
"192 682 OFFCURVE",
"192 711 CURVE SMOOTH"
);
},
{
closed = 1;
nodes = (
"528 740 OFFCURVE",
"550 763 OFFCURVE",
"579 763 CURVE SMOOTH",
"607 763 OFFCURVE",
"630 740 OFFCURVE",
"630 711 CURVE SMOOTH",
"630 682 OFFCURVE",
"607 660 OFFCURVE",
"579 660 CURVE SMOOTH",
"550 660 OFFCURVE",
"528 682 OFFCURVE",
"528 711 CURVE SMOOTH"
);
}
);
width = 821;
}
);
unicode = 100AA;
},
{
glyphname = uni100AB;
lastChange = "2019-08-21 19:20:35 +0000";
layers = (
{
layerId = UUID0;
paths = (
{
closed = 1;
nodes = (
"252 224 OFFCURVE",
"160 201 OFFCURVE",
"160 0 CURVE",
"716 0 LINE",
"716 201 OFFCURVE",
"624 224 OFFCURVE",
"624 360 CURVE SMOOTH",
"624 512 OFFCURVE",
"603 633 OFFCURVE",
"486 633 CURVE SMOOTH",
"390 633 LINE SMOOTH",
"273 633 OFFCURVE",
"252 512 OFFCURVE",
"252 360 CURVE SMOOTH"
);
},
{
closed = 1;
nodes = (
"665 819 LINE",
"636 801 OFFCURVE",
"598 788 OFFCURVE",
"557 779 CURVE",
"459 920 LINE",
"416 920 LINE",
"318 779 LINE",
"277 788 OFFCURVE",
"239 801 OFFCURVE",
"211 819 CURVE",
"211 750 LINE",
"261 712 OFFCURVE",
"351 700 OFFCURVE",
"441 700 CURVE SMOOTH",
"529 700 OFFCURVE",
"616 713 OFFCURVE",
"665 750 CURVE"
);
},
{
closed = 1;
nodes = (
"265 624 LINE",
"158 748 LINE",
"115 748 LINE",
"8 624 LINE",
"115 499 LINE",
"158 499 LINE"
);
},
{
closed = 1;
nodes = (
"868 624 LINE",
"761 748 LINE",
"718 748 LINE",
"611 624 LINE",
"718 499 LINE",
"761 499 LINE"
);
},
{
closed = 1;
nodes = (
"624 140 LINE",
"632 117 OFFCURVE",
"638 92 OFFCURVE",
"642 63 CURVE",
"234 63 LINE",
"237 92 OFFCURVE",
"244 117 OFFCURVE",
"251 140 CURVE"
);
},
{
closed = 1;
nodes = (
"567 280 LINE",
"576 253 OFFCURVE",
"588 229 OFFCURVE",
"600 203 CURVE",
"276 203 LINE",
"288 229 OFFCURVE",
"300 253 OFFCURVE",
"308 280 CURVE"
);
},
{
closed = 1;
nodes = (
"322 382 OFFCURVE",
"322 402 OFFCURVE",
"323 420 CURVE",
"553 420 LINE",
"553 402 OFFCURVE",
"554 382 OFFCURVE",
"554 362 CURVE SMOOTH",
"554 343 LINE",
"321 343 LINE",
"322 349 OFFCURVE",
"322 355 OFFCURVE",
"322 362 CURVE SMOOTH"
);
},
{
closed = 1;
nodes = (
"475 570 LINE SMOOTH",
"518 570 OFFCURVE",
"538 537 OFFCURVE",
"547 483 CURVE",
"328 483 LINE",
"337 537 OFFCURVE",
"357 570 OFFCURVE",
"401 570 CURVE"
);
},
{
closed = 1;
nodes = (
"191 623 LINE",
"169 603 LINE SMOOTH",
"143 580 OFFCURVE",
"142 569 OFFCURVE",
"138 561 CURVE",
"134 561 LINE",
"130 569 OFFCURVE",
"130 579 OFFCURVE",
"101 605 CURVE SMOOTH",
"81 623 LINE",
"101 642 LINE SMOOTH",
"129 669 OFFCURVE",
"130 678 OFFCURVE",
"134 686 CURVE",
"138 686 LINE",
"142 678 OFFCURVE",
"144 668 OFFCURVE",
"169 644 CURVE SMOOTH"
);
},
{
closed = 1;
nodes = (
"794 623 LINE",
"772 603 LINE SMOOTH",
"746 580 OFFCURVE",
"745 569 OFFCURVE",
"741 561 CURVE",
"737 561 LINE",
"733 569 OFFCURVE",
"733 579 OFFCURVE",
"704 605 CURVE SMOOTH",
"684 623 LINE",
"704 642 LINE SMOOTH",
"732 669 OFFCURVE",
"733 678 OFFCURVE",
"737 686 CURVE",
"741 686 LINE",
"745 678 OFFCURVE",
"747 668 OFFCURVE",
"772 644 CURVE SMOOTH"
);
},
{
closed = 1;
nodes = (
"439 858 LINE",
"490 768 LINE",
"471 766 OFFCURVE",
"453 766 OFFCURVE",
"435 766 CURVE SMOOTH",
"418 766 OFFCURVE",
"401 767 OFFCURVE",
"384 768 CURVE",
"430 841 OFFCURVE",
"431 850 OFFCURVE",
"435 858 CURVE"
);
}
);
width = 948;
}
);
unicode = 100AB;
},
{
glyphname = uni100AC;
lastChange = "2019-08-21 19:20:35 +0000";
layers = (
{
layerId = UUID0;
paths = (
{
closed = 1;
nodes = (
"353 0 LINE",
"423 0 LINE",
"423 87 LINE",
"595 87 LINE",
"595 0 LINE",
"665 0 LINE",
"665 800 LINE",
"110 800 LINE",
"110 0 LINE",
"180 0 LINE",
"180 87 LINE",
"353 87 LINE"
);
},
{
closed = 1;
nodes = (
"180 737 LINE",
"219 737 LINE",
"229 657 OFFCURVE",
"299 597 OFFCURVE",
"383 597 CURVE SMOOTH",
"467 597 OFFCURVE",
"537 657 OFFCURVE",
"547 737 CURVE",
"595 737 LINE",
"595 584 LINE",
"506 581 OFFCURVE",
"435 511 OFFCURVE",
"435 422 CURVE SMOOTH",
"435 333 OFFCURVE",
"506 264 OFFCURVE",
"595 262 CURVE",
"595 150 LINE",
"180 150 LINE",
"180 268 LINE",
"269 270 OFFCURVE",
"340 339 OFFCURVE",
"340 428 CURVE SMOOTH",
"340 517 OFFCURVE",
"269 587 OFFCURVE",
"180 590 CURVE"
);
},
{
closed = 1;
nodes = (
"497 478 OFFCURVE",
"539 524 OFFCURVE",
"595 527 CURVE",
"595 319 LINE",
"539 321 OFFCURVE",
"497 366 OFFCURVE",
"497 423 CURVE SMOOTH"
);
},
{
closed = 1;
nodes = (
"278 373 OFFCURVE",
"233 327 OFFCURVE",
"180 325 CURVE",
"180 533 LINE",
"233 530 OFFCURVE",
"278 484 OFFCURVE",
"278 429 CURVE SMOOTH"
);
},
{
closed = 1;
nodes = (
"332 654 OFFCURVE",
"291 689 OFFCURVE",
"282 737 CURVE",
"484 737 LINE",
"474 689 OFFCURVE",
"432 654 OFFCURVE",
"383 654 CURVE SMOOTH"
);
}
);
width = 775;
}
);
unicode = 100AC;
},
{
glyphname = uni100AD;
lastChange = "2019-08-21 19:20:35 +0000";
layers = (
{
layerId = UUID0;
paths = (
{
closed = 1;
nodes = (
"324 744 LINE",
"50 484 LINE",
"92 443 LINE",
"193 538 LINE",
"227 492 OFFCURVE",
"247 423 OFFCURVE",
"247 366 CURVE SMOOTH",
"247 309 OFFCURVE",
"227 242 OFFCURVE",
"193 196 CURVE",
"92 291 LINE",
"50 250 LINE",
"324 -10 LINE",
"369 31 LINE",
"296 99 LINE",
"381 171 OFFCURVE",
"519 214 OFFCURVE",
"648 214 CURVE SMOOTH",
"815 214 OFFCURVE",
"910 168 OFFCURVE",
"1000 98 CURVE",
"928 31 LINE",
"973 -10 LINE",
"1247 250 LINE",
"1205 291 LINE",
"1104 196 LINE",
"1070 242 OFFCURVE",
"1050 309 OFFCURVE",
"1050 366 CURVE SMOOTH",
"1050 423 OFFCURVE",
"1070 492 OFFCURVE",
"1104 538 CURVE",
"1205 443 LINE",
"1247 484 LINE",
"973 744 LINE",
"928 703 LINE",
"1000 635 LINE",
"910 566 OFFCURVE",
"815 520 OFFCURVE",
"648 520 CURVE SMOOTH",
"519 520 OFFCURVE",
"381 562 OFFCURVE",
"296 634 CURVE",
"369 703 LINE"
);
},
{
closed = 1;
nodes = (
"836 455 OFFCURVE",
"947 509 OFFCURVE",
"1048 590 CURVE",
"1054 584 LINE",
"1008 528 OFFCURVE",
"980 442 OFFCURVE",
"980 366 CURVE SMOOTH",
"980 290 OFFCURVE",
"1007 206 OFFCURVE",
"1053 148 CURVE",
"1048 144 LINE",
"947 224 OFFCURVE",
"836 279 OFFCURVE",
"651 279 CURVE SMOOTH",
"511 279 OFFCURVE",
"353 233 OFFCURVE",
"248 144 CURVE",
"243 148 LINE",
"289 206 OFFCURVE",
"317 290 OFFCURVE",
"317 366 CURVE SMOOTH",
"317 442 OFFCURVE",
"288 528 OFFCURVE",
"242 584 CURVE",
"248 589 LINE",
"353 500 OFFCURVE",
"511 455 OFFCURVE",
"651 455 CURVE SMOOTH"
);
}
);
width = 1297;
}
);
unicode = 100AD;
},
{
glyphname = uni100AE;
lastChange = "2019-08-21 19:20:35 +0000";
layers = (
{
layerId = UUID0;
paths = (
{
closed = 1;
nodes = (
"1109 800 LINE",
"1018 728 OFFCURVE",
"833 694 OFFCURVE",
"602 694 CURVE SMOOTH",
"410 694 OFFCURVE",
"180 725 OFFCURVE",
"95 800 CURVE",
"50 752 LINE",
"122 661 OFFCURVE",
"168 566 OFFCURVE",
"168 395 CURVE SMOOTH",
"168 263 OFFCURVE",
"125 123 OFFCURVE",
"50 38 CURVE",
"94 -10 LINE",
"180 65 OFFCURVE",
"410 96 OFFCURVE",
"602 96 CURVE SMOOTH",
"833 96 OFFCURVE",
"1018 62 OFFCURVE",
"1109 -10 CURVE",
"1154 38 LINE",
"1079 123 OFFCURVE",
"1036 263 OFFCURVE",
"1036 395 CURVE SMOOTH",
"1036 566 OFFCURVE",
"1082 661 OFFCURVE",
"1154 752 CURVE"
);
},
{
closed = 1;
nodes = (
"781 629 OFFCURVE",
"928 647 OFFCURVE",
"1035 690 CURVE",
"995 613 OFFCURVE",
"971 523 OFFCURVE",
"971 398 CURVE SMOOTH",
"971 299 OFFCURVE",
"994 190 OFFCURVE",
"1039 98 CURVE",
"931 142 OFFCURVE",
"783 161 OFFCURVE",
"605 161 CURVE SMOOTH",
"457 161 OFFCURVE",
"286 146 OFFCURVE",
"165 98 CURVE",
"210 190 OFFCURVE",
"233 299 OFFCURVE",
"233 398 CURVE SMOOTH",
"233 523 OFFCURVE",
"208 613 OFFCURVE",
"168 690 CURVE",
"290 643 OFFCURVE",
"458 629 OFFCURVE",
"605 629 CURVE SMOOTH"
);
}
);
width = 1204;
}
);
unicode = 100AE;
},
{
glyphname = uni100AF;
lastChange = "2019-08-21 19:20:35 +0000";
layers = (
{
layerId = UUID0;
paths = (
{
closed = 1;
nodes = (
"113 737 OFFCURVE",
"80 685 OFFCURVE",
"80 633 CURVE SMOOTH",
"80 530 OFFCURVE",
"231 530 OFFCURVE",
"231 400 CURVE SMOOTH",
"231 381 LINE SMOOTH",
"231 250 OFFCURVE",
"80 250 OFFCURVE",
"80 147 CURVE SMOOTH",
"80 95 OFFCURVE",
"113 43 OFFCURVE",
"185 43 CURVE SMOOTH",
"344 43 OFFCURVE",
"275 229 OFFCURVE",
"719 229 CURVE SMOOTH",
"1164 229 OFFCURVE",
"1095 43 OFFCURVE",
"1254 43 CURVE SMOOTH",
"1326 43 OFFCURVE",
"1359 95 OFFCURVE",
"1359 147 CURVE SMOOTH",
"1359 250 OFFCURVE",
"1208 250 OFFCURVE",
"1208 381 CURVE SMOOTH",
"1208 400 LINE SMOOTH",
"1208 530 OFFCURVE",
"1359 530 OFFCURVE",
"1359 633 CURVE SMOOTH",
"1359 685 OFFCURVE",
"1326 737 OFFCURVE",
"1254 737 CURVE SMOOTH",
"1095 737 OFFCURVE",
"1164 550 OFFCURVE",
"719 550 CURVE SMOOTH",
"275 550 OFFCURVE",
"344 737 OFFCURVE",
"185 737 CURVE SMOOTH"
);
},
{
closed = 1;
nodes = (
"165 105 OFFCURVE",
"150 122 OFFCURVE",
"150 146 CURVE SMOOTH",
"150 202 OFFCURVE",
"301 222 OFFCURVE",
"301 380 CURVE SMOOTH",
"301 400 LINE SMOOTH",
"301 558 OFFCURVE",
"150 578 OFFCURVE",
"150 634 CURVE SMOOTH",
"150 658 OFFCURVE",
"165 675 OFFCURVE",
"193 675 CURVE SMOOTH",
"278 675 OFFCURVE",
"263 486 OFFCURVE",
"719 486 CURVE SMOOTH",
"1176 486 OFFCURVE",
"1161 675 OFFCURVE",
"1246 675 CURVE SMOOTH",
"1274 675 OFFCURVE",
"1289 658 OFFCURVE",
"1289 634 CURVE SMOOTH",
"1289 578 OFFCURVE",
"1138 558 OFFCURVE",
"1138 400 CURVE SMOOTH",
"1138 380 LINE SMOOTH",
"1138 222 OFFCURVE",
"1289 202 OFFCURVE",
"1289 146 CURVE SMOOTH",
"1289 122 OFFCURVE",
"1274 105 OFFCURVE",
"1246 105 CURVE SMOOTH",
"1161 105 OFFCURVE",
"1176 293 OFFCURVE",
"719 293 CURVE SMOOTH",
"263 293 OFFCURVE",
"278 105 OFFCURVE",
"193 105 CURVE SMOOTH"
);
}
);
width = 1439;
}
);
rightKerningGroup = s;
unicode = 100AF;
},
{
glyphname = uni100B0;
lastChange = "2019-08-21 19:20:35 +0000";
layers = (
{
layerId = UUID0;
paths = (
{
closed = 1;
nodes = (
"110 387 LINE",
"110 0 LINE",
"1300 0 LINE",
"1300 565 LINE",
"1101 565 LINE",
"288 387 LINE"
);
},
{
closed = 1;
nodes = (
"340 336 LINE",
"1070 496 LINE",
"1070 63 LINE",
"340 63 LINE"
);
},
{
closed = 1;
nodes = (
"1140 502 LINE",
"1230 502 LINE",
"1230 63 LINE",
"1140 63 LINE"
);
},
{
closed = 1;
nodes = (
"180 324 LINE",
"270 324 LINE",
"270 63 LINE",
"180 63 LINE"
);
}
);
width = 1410;
}
);
unicode = 100B0;
},
{
glyphname = uni100B1;
lastChange = "2019-08-21 19:20:35 +0000";
layers = (
{
layerId = UUID0;
paths = (
{
closed = 1;
nodes = (
"1170 771 OFFCURVE",
"1187 732 OFFCURVE",
"1214 704 CURVE",
"395 704 LINE",
"423 732 OFFCURVE",
"440 771 OFFCURVE",
"440 814 CURVE SMOOTH",
"440 905 OFFCURVE",
"366 976 OFFCURVE",
"275 976 CURVE SMOOTH",
"184 976 OFFCURVE",
"110 905 OFFCURVE",
"110 814 CURVE SMOOTH",
"110 754 OFFCURVE",
"142 704 OFFCURVE",
"190 676 CURVE",
"190 657 LINE SMOOTH",
"190 470 OFFCURVE",
"121 574 OFFCURVE",
"121 410 CURVE SMOOTH",
"121 0 LINE",
"430 0 LINE",
"430 410 LINE SMOOTH",
"430 569 OFFCURVE",
"365 476 OFFCURVE",
"361 641 CURVE",
"1250 641 LINE",
"1246 476 OFFCURVE",
"1181 569 OFFCURVE",
"1181 410 CURVE SMOOTH",
"1181 0 LINE",
"1490 0 LINE",
"1490 410 LINE SMOOTH",
"1490 574 OFFCURVE",
"1421 470 OFFCURVE",
"1421 657 CURVE SMOOTH",
"1421 677 LINE",
"1468 705 OFFCURVE",
"1500 755 OFFCURVE",
"1500 814 CURVE SMOOTH",
"1500 905 OFFCURVE",
"1426 976 OFFCURVE",
"1335 976 CURVE SMOOTH",
"1244 976 OFFCURVE",
"1170 905 OFFCURVE",
"1170 814 CURVE SMOOTH"
);
},
{
closed = 1;
nodes = (
"1344 654 OFFCURVE",
"1352 654 OFFCURVE",
"1361 656 CURVE",
"1361 420 OFFCURVE",
"1420 528 OFFCURVE",
"1420 411 CURVE SMOOTH",
"1420 63 LINE",
"1251 63 LINE",
"1251 411 LINE SMOOTH",
"1251 528 OFFCURVE",
"1309 420 OFFCURVE",
"1310 656 CURVE",
"1318 655 OFFCURVE",
"1326 654 OFFCURVE",
"1335 654 CURVE SMOOTH"
);
},
{
closed = 1;
nodes = (
"284 654 OFFCURVE",
"292 654 OFFCURVE",
"301 656 CURVE",
"301 420 OFFCURVE",
"360 528 OFFCURVE",
"360 411 CURVE SMOOTH",
"360 63 LINE",
"191 63 LINE",
"191 411 LINE SMOOTH",
"191 528 OFFCURVE",
"249 420 OFFCURVE",
"250 656 CURVE",
"258 655 OFFCURVE",
"266 654 OFFCURVE",
"275 654 CURVE SMOOTH"
);
},
{
closed = 1;
nodes = (
"1232 872 OFFCURVE",
"1277 919 OFFCURVE",
"1335 919 CURVE SMOOTH",
"1391 919 OFFCURVE",
"1438 872 OFFCURVE",
"1438 815 CURVE SMOOTH",
"1438 757 OFFCURVE",
"1391 711 OFFCURVE",
"1335 711 CURVE SMOOTH",
"1277 711 OFFCURVE",
"1232 757 OFFCURVE",
"1232 815 CURVE SMOOTH"
);
},
{
closed = 1;
nodes = (
"172 872 OFFCURVE",
"217 919 OFFCURVE",
"275 919 CURVE SMOOTH",
"331 919 OFFCURVE",
"378 872 OFFCURVE",
"378 815 CURVE SMOOTH",
"378 757 OFFCURVE",
"331 711 OFFCURVE",
"275 711 CURVE SMOOTH",
"217 711 OFFCURVE",
"172 757 OFFCURVE",
"172 815 CURVE SMOOTH"
);
}
);
width = 1610;
}
);
unicode = 100B1;
},
{
glyphname = uni100B2;
lastChange = "2019-08-21 19:20:35 +0000";
layers = (
{
layerId = UUID0;
paths = (
{
closed = 1;
nodes = (
"336 800 LINE",
"266 800 LINE",
"266 639 LINE SMOOTH",
"266 584 OFFCURVE",
"80 560 OFFCURVE",
"80 301 CURVE SMOOTH",
"80 134 OFFCURVE",
"214 47 OFFCURVE",
"376 47 CURVE SMOOTH",
"548 47 OFFCURVE",
"648 158 OFFCURVE",
"648 280 CURVE SMOOTH",
"648 359 OFFCURVE",
"594 444 OFFCURVE",
"461 444 CURVE SMOOTH",
"416 444 OFFCURVE",
"344 429 OFFCURVE",
"344 350 CURVE SMOOTH",
"344 295 OFFCURVE",
"405 294 OFFCURVE",
"455 294 CURVE",
"455 262 OFFCURVE",
"443 227 OFFCURVE",
"373 227 CURVE SMOOTH",
"288 227 OFFCURVE",
"280 281 OFFCURVE",
"280 313 CURVE SMOOTH",
"280 457 OFFCURVE",
"466 488 OFFCURVE",
"466 586 CURVE SMOOTH",
"466 800 LINE",
"396 800 LINE",
"396 588 LINE SMOOTH",
"396 520 OFFCURVE",
"210 476 OFFCURVE",
"210 312 CURVE SMOOTH",
"210 242 OFFCURVE",
"251 167 OFFCURVE",
"373 167 CURVE SMOOTH",
"495 167 OFFCURVE",
"518 252 OFFCURVE",
"518 294 CURVE SMOOTH",
"518 378 OFFCURVE",
"399 327 OFFCURVE",
"399 365 CURVE SMOOTH",
"399 367 OFFCURVE",
"399 370 OFFCURVE",
"400 373 CURVE",
"424 381 OFFCURVE",
"445 384 OFFCURVE",
"463 384 CURVE SMOOTH",
"553 384 OFFCURVE",
"578 325 OFFCURVE",
"578 281 CURVE SMOOTH",
"578 197 OFFCURVE",
"522 107 OFFCURVE",
"376 107 CURVE SMOOTH",
"195 107 OFFCURVE",
"150 221 OFFCURVE",
"150 305 CURVE SMOOTH",
"150 548 OFFCURVE",
"336 542 OFFCURVE",
"336 617 CURVE SMOOTH"
);
}
);
width = 728;
}
);
unicode = 100B2;
},
{
glyphname = uni100B3;
lastChange = "2019-08-21 19:20:35 +0000";
layers = (
{
layerId = UUID0;
paths = (
{
closed = 1;
nodes = (
"530 63 LINE",
"340 63 LINE",
"340 220 LINE",
"460 220 LINE",
"460 283 LINE",
"340 283 LINE",
"340 557 LINE",
"460 557 LINE",
"460 620 LINE",
"340 620 LINE",
"340 737 LINE",
"530 737 LINE",
"530 800 LINE",
"80 800 LINE",
"80 737 LINE",
"270 737 LINE",
"270 620 LINE",
"160 620 LINE",
"160 557 LINE",
"270 557 LINE",
"270 283 LINE",
"160 283 LINE",
"160 220 LINE",
"270 220 LINE",
"270 63 LINE",
"80 63 LINE",
"80 0 LINE",
"530 0 LINE"
);
}
);
width = 610;
}
);
unicode = 100B3;
},
{
glyphname = uni100B4;
lastChange = "2019-08-21 19:20:35 +0000";
layers = (
{
layerId = UUID0;
paths = (
{
closed = 1;
nodes = (
"59 753 OFFCURVE",
"50 714 OFFCURVE",
"50 650 CURVE SMOOTH",
"50 473 OFFCURVE",
"216 429 OFFCURVE",
"343 416 CURVE",
"327 379 OFFCURVE",
"318 338 OFFCURVE",
"318 295 CURVE SMOOTH",
"318 127 OFFCURVE",
"455 -10 OFFCURVE",
"624 -10 CURVE SMOOTH",
"792 -10 OFFCURVE",
"928 127 OFFCURVE",
"928 295 CURVE SMOOTH",
"928 463 OFFCURVE",
"792 600 OFFCURVE",
"624 600 CURVE SMOOTH",
"542 600 OFFCURVE",
"467 567 OFFCURVE",
"412 515 CURVE",
"414 526 OFFCURVE",
"414 536 OFFCURVE",
"414 546 CURVE SMOOTH",
"414 692 OFFCURVE",
"272 774 OFFCURVE",
"74 786 CURVE"
);
},
{
closed = 1;
nodes = (
"388 425 OFFCURVE",
"493 535 OFFCURVE",
"624 535 CURVE SMOOTH",
"753 535 OFFCURVE",
"858 425 OFFCURVE",
"858 295 CURVE SMOOTH",
"858 166 OFFCURVE",
"753 56 OFFCURVE",
"624 56 CURVE SMOOTH",
"493 56 OFFCURVE",
"388 166 OFFCURVE",
"388 295 CURVE SMOOTH"
);
},
{
closed = 1;
nodes = (
"341 525 OFFCURVE",
"339 511 OFFCURVE",
"336 495 CURVE",
"275 495 OFFCURVE",
"120 531 OFFCURVE",
"120 657 CURVE SMOOTH",
"120 676 OFFCURVE",
"122 680 OFFCURVE",
"126 704 CURVE",
"195 691 OFFCURVE",
"341 666 OFFCURVE",
"341 558 CURVE SMOOTH"
);
}
);
width = 1028;
}
);
unicode = 100B4;
},
{
glyphname = uni100B5;
lastChange = "2019-08-21 19:20:35 +0000";
layers = (
{
layerId = UUID0;
paths = (
{
closed = 1;
nodes = (
"579 61 LINE",
"558 57 OFFCURVE",
"539 55 OFFCURVE",
"517 55 CURVE SMOOTH",
"467 55 OFFCURVE",
"420 65 OFFCURVE",
"377 83 CURVE",
"377 706 LINE",
"420 724 OFFCURVE",
"467 734 OFFCURVE",
"517 734 CURVE SMOOTH",
"538 734 OFFCURVE",
"559 733 OFFCURVE",
"579 729 CURVE",
"579 794 LINE",
"556 798 OFFCURVE",
"532 800 OFFCURVE",
"508 800 CURVE SMOOTH",
"282 800 OFFCURVE",
"100 620 OFFCURVE",
"100 394 CURVE SMOOTH",
"100 168 OFFCURVE",
"282 -10 OFFCURVE",
"508 -10 CURVE SMOOTH",
"534 -10 OFFCURVE",
"558 -7 OFFCURVE",
"579 -3 CURVE"
);
},
{
closed = 1;
nodes = (
"170 506 OFFCURVE",
"224 604 OFFCURVE",
"307 665 CURVE",
"307 122 LINE",
"224 183 OFFCURVE",
"170 280 OFFCURVE",
"170 393 CURVE SMOOTH"
);
}
);
width = 659;
}
);
unicode = 100B5;
},
{
glyphname = uni100B6;
lastChange = "2019-08-21 19:20:35 +0000";
layers = (
{
layerId = UUID0;
paths = (
{
closed = 1;
nodes = (
"1249 661 LINE",
"1138 661 LINE",
"1138 800 LINE",
"1068 800 LINE",
"1068 661 LINE",
"978 661 LINE",
"748 394 LINE",
"748 108 LINE",
"818 108 LINE",
"818 374 LINE",
"1008 598 LINE",
"1068 598 LINE",
"1068 531 LINE",
"1019 531 LINE",
"863 342 LINE",
"863 63 LINE",
"466 63 LINE",
"466 342 LINE",
"310 531 LINE",
"261 531 LINE",
"261 598 LINE",
"321 598 LINE",
"511 374 LINE",
"511 108 LINE",
"581 108 LINE",
"581 394 LINE",
"351 661 LINE",
"261 661 LINE",
"261 800 LINE",
"191 800 LINE",
"191 661 LINE",
"80 661 LINE",
"80 598 LINE",
"191 598 LINE",
"191 531 LINE",
"80 531 LINE",
"80 468 LINE",
"191 468 LINE",
"191 330 LINE",
"261 330 LINE",
"261 468 LINE",
"280 468 LINE",
"396 322 LINE",
"396 63 LINE",
"340 63 LINE",
"340 0 LINE",
"989 0 LINE",
"989 63 LINE",
"933 63 LINE",
"933 322 LINE",
"1049 468 LINE",
"1068 468 LINE",
"1068 330 LINE",
"1138 330 LINE",
"1138 468 LINE",
"1249 468 LINE",
"1249 531 LINE",
"1138 531 LINE",
"1138 598 LINE",
"1249 598 LINE"
);
},
{
closed = 1;
nodes = (
"610 656 LINE",
"619 677 OFFCURVE",
"631 692 OFFCURVE",
"660 692 CURVE SMOOTH",
"676 692 OFFCURVE",
"694 681 OFFCURVE",
"694 661 CURVE SMOOTH",
"694 634 OFFCURVE",
"575 617 OFFCURVE",
"575 540 CURVE SMOOTH",
"575 490 OFFCURVE",
"623 462 OFFCURVE",
"675 462 CURVE SMOOTH",
"712 462 OFFCURVE",
"750 483 OFFCURVE",
"774 527 CURVE",
"725 558 LINE",
"714 538 OFFCURVE",
"697 522 OFFCURVE",
"675 522 CURVE SMOOTH",
"659 522 OFFCURVE",
"641 533 OFFCURVE",
"641 551 CURVE SMOOTH",
"641 580 OFFCURVE",
"760 601 OFFCURVE",
"760 668 CURVE SMOOTH",
"760 714 OFFCURVE",
"720 752 OFFCURVE",
"668 752 CURVE SMOOTH",
"625 752 OFFCURVE",
"585 732 OFFCURVE",
"561 687 CURVE"
);
}
);
width = 1329;
}
);
unicode = 100B6;
},
{
glyphname = uni100B7;
lastChange = "2019-08-21 19:20:35 +0000";
layers = (
{
layerId = UUID0;
paths = (
{
closed = 1;
nodes = (
"258 451 LINE",
"201 508 LINE",
"264 571 LINE",
"460 379 LINE",
"460 208 LINE",
"314 63 LINE",
"314 0 LINE",
"668 0 LINE",
"668 63 LINE",
"530 208 LINE",
"530 387 LINE",
"724 573 LINE",
"789 508 LINE",
"732 451 LINE",
"777 406 LINE",
"940 568 LINE",
"896 613 LINE",
"839 557 LINE",
"774 621 LINE",
"871 714 LINE",
"826 758 LINE",
"730 666 LINE",
"672 725 LINE",
"729 781 LINE",
"685 826 LINE",
"521 664 LINE",
"566 620 LINE",
"622 676 LINE",
"679 618 LINE",
"491 438 LINE",
"308 616 LINE",
"368 676 LINE",
"424 620 LINE",
"469 664 LINE",
"305 826 LINE",
"261 781 LINE",
"318 725 LINE",
"258 665 LINE",
"164 758 LINE",
"119 714 LINE",
"214 620 LINE",
"151 557 LINE",
"94 613 LINE",
"50 568 LINE",
"213 406 LINE"
);
},
{
closed = 1;
nodes = (
"491 149 LINE",
"574 63 LINE",
"407 63 LINE"
);
}
);
width = 990;
}
);
unicode = 100B7;
},
{
glyphname = uni100B8;
lastChange = "2019-08-21 19:20:35 +0000";
layers = (
{
layerId = UUID0;
paths = (
{
closed = 1;
nodes = (
"860 619 LINE",
"502 619 LINE",
"643 766 LINE",
"598 810 LINE",
"466 673 LINE",
"333 810 LINE",
"289 766 LINE",
"430 619 LINE",
"80 619 LINE",
"80 556 LINE",
"150 556 LINE",
"150 0 LINE",
"220 0 LINE",
"220 556 LINE",
"340 556 LINE",
"340 0 LINE",
"410 0 LINE",
"410 556 LINE",
"530 556 LINE",
"530 0 LINE",
"600 0 LINE",
"600 556 LINE",
"720 556 LINE",
"720 0 LINE",
"790 0 LINE",
"790 556 LINE",
"860 556 LINE"
);
}
);
width = 940;
}
);
unicode = 100B8;
},
{
glyphname = uni100B9;
lastChange = "2019-08-21 19:20:35 +0000";
layers = (
{
layerId = UUID0;
paths = (
{
closed = 1;
nodes = (
"1140 0 LINE",
"1140 191 LINE SMOOTH",
"1140 229 OFFCURVE",
"1110 265 OFFCURVE",
"1059 265 CURVE SMOOTH",
"981 265 LINE",
"981 549 LINE",
"645 549 LINE",
"645 690 LINE",
"707 628 LINE",
"756 677 LINE",
"610 823 LINE",
"464 677 LINE",
"513 628 LINE",
"575 690 LINE",
"575 549 LINE",
"239 549 LINE",
"239 265 LINE",
"161 265 LINE SMOOTH",
"110 265 OFFCURVE",
"80 229 OFFCURVE",
"80 191 CURVE SMOOTH",
"80 0 LINE",
"150 0 LINE",
"150 179 LINE SMOOTH",
"150 197 OFFCURVE",
"155 202 OFFCURVE",
"182 202 CURVE SMOOTH",
"239 202 LINE",
"239 0 LINE",
"309 0 LINE",
"309 202 LINE",
"911 202 LINE",
"911 0 LINE",
"981 0 LINE",
"981 202 LINE",
"1038 202 LINE SMOOTH",
"1065 202 OFFCURVE",
"1070 197 OFFCURVE",
"1070 179 CURVE SMOOTH",
"1070 0 LINE"
);
},
{
closed = 1;
nodes = (
"309 486 LINE",
"911 486 LINE",
"911 265 LINE",
"309 265 LINE"
);
}
);
width = 1220;
}
);
unicode = 100B9;
},
{
glyphname = uni100BA;
lastChange = "2019-08-21 19:20:35 +0000";
layers = (
{
layerId = UUID0;
paths = (
{
closed = 1;
nodes = (
"600 686 LINE",
"747 528 LINE",
"747 484 LINE",
"320 484 LINE",
"320 528 LINE",
"467 686 LINE",
"416 729 LINE",
"250 548 LINE",
"250 484 LINE",
"180 484 LINE",
"180 589 LINE",
"356 779 LINE",
"305 821 LINE",
"110 609 LINE",
"110 0 LINE",
"957 0 LINE",
"957 609 LINE",
"762 821 LINE",
"711 779 LINE",
"887 589 LINE",
"887 484 LINE",
"817 484 LINE",
"817 548 LINE",
"651 729 LINE"
);
},
{
closed = 1;
nodes = (
"320 231 LINE",
"747 231 LINE",
"747 63 LINE",
"320 63 LINE"
);
},
{
closed = 1;
nodes = (
"320 421 LINE",
"747 421 LINE",
"747 294 LINE",
"320 294 LINE"
);
},
{
closed = 1;
nodes = (
"817 231 LINE",
"887 231 LINE",
"887 63 LINE",
"817 63 LINE"
);
},
{
closed = 1;
nodes = (
"180 231 LINE",
"250 231 LINE",
"250 63 LINE",
"180 63 LINE"
);
},
{
closed = 1;
nodes = (
"817 421 LINE",
"887 421 LINE",
"887 294 LINE",
"817 294 LINE"
);
},
{
closed = 1;
nodes = (
"180 421 LINE",
"250 421 LINE",
"250 294 LINE",
"180 294 LINE"
);
}
);
width = 1067;
}
);
unicode = 100BA;
},
{
glyphname = uni100BB;
lastChange = "2019-08-21 19:20:35 +0000";
layers = (
{
layerId = UUID0;
paths = (
{
closed = 1;
nodes = (
"541 63 LINE",
"499 77 OFFCURVE",
"471 110 OFFCURVE",
"471 149 CURVE SMOOTH",
"471 177 OFFCURVE",
"483 223 OFFCURVE",
"534 228 CURVE",
"534 291 LINE",
"449 291 OFFCURVE",
"385 358 OFFCURVE",
"385 442 CURVE SMOOTH",
"385 505 OFFCURVE",
"423 559 OFFCURVE",
"490 582 CURVE",
"479 645 LINE",
"329 655 OFFCURVE",
"331 800 OFFCURVE",
"186 800 CURVE SMOOTH",
"110 800 LINE",
"110 0 LINE",
"541 0 LINE"
);
},
{
closed = 1;
nodes = (
"180 63 LINE",
"180 737 LINE",
"216 736 OFFCURVE",
"229 731 OFFCURVE",
"245 722 CURVE",
"275 673 OFFCURVE",
"327 629 OFFCURVE",
"388 604 CURVE",
"341 565 OFFCURVE",
"312 507 OFFCURVE",
"312 441 CURVE SMOOTH",
"312 350 OFFCURVE",
"367 275 OFFCURVE",
"445 242 CURVE",
"425 217 OFFCURVE",
"413 183 OFFCURVE",
"413 148 CURVE SMOOTH",
"413 114 OFFCURVE",
"425 87 OFFCURVE",
"443 63 CURVE"
);
}
);
width = 621;
}
);
unicode = 100BB;
},
{
glyphname = uni100BC;
lastChange = "2019-08-21 19:20:35 +0000";
layers = (
{
layerId = UUID0;
paths = (
{
closed = 1;
nodes = (
"547 820 LINE",
"519 778 OFFCURVE",
"471 716 OFFCURVE",
"414 651 CURVE",
"352 702 OFFCURVE",
"295 757 OFFCURVE",
"242 820 CURVE",
"191 778 LINE",
"251 711 OFFCURVE",
"311 651 OFFCURVE",
"370 601 CURVE",
"278 499 OFFCURVE",
"175 399 OFFCURVE",
"110 360 CURVE",
"110 74 LINE SMOOTH",
"110 36 OFFCURVE",
"140 0 OFFCURVE",
"191 0 CURVE SMOOTH",
"460 0 LINE SMOOTH",
"511 0 OFFCURVE",
"541 36 OFFCURVE",
"541 74 CURVE SMOOTH",
"541 555 LINE",
"515 573 OFFCURVE",
"490 591 OFFCURVE",
"466 610 CURVE",
"521 675 OFFCURVE",
"570 737 OFFCURVE",
"598 778 CURVE"
);
},
{
closed = 1;
nodes = (
"471 86 LINE SMOOTH",
"471 68 OFFCURVE",
"466 63 OFFCURVE",
"439 63 CURVE SMOOTH",
"212 63 LINE SMOOTH",
"185 63 OFFCURVE",
"180 68 OFFCURVE",
"180 86 CURVE SMOOTH",
"180 332 LINE",
"236 359 OFFCURVE",
"333 457 OFFCURVE",
"422 558 CURVE",
"439 546 OFFCURVE",
"455 535 OFFCURVE",
"471 525 CURVE"
);
}
);
width = 708;
}
);
unicode = 100BC;
},
{
glyphname = uni100BD;
lastChange = "2019-08-21 19:20:35 +0000";
layers = (
{
layerId = UUID0;
paths = (
{
closed = 1;
nodes = (
"979 0 LINE",
"979 158 LINE",
"1060 169 OFFCURVE",
"1124 244 OFFCURVE",
"1124 327 CURVE SMOOTH",
"1124 471 OFFCURVE",
"1014 584 OFFCURVE",
"672 673 CURVE",
"714 705 OFFCURVE",
"755 737 OFFCURVE",
"808 737 CURVE SMOOTH",
"979 737 LINE",
"979 800 LINE",
"807 800 LINE SMOOTH",
"720 800 OFFCURVE",
"664 746 OFFCURVE",
"602 706 CURVE",
"540 746 OFFCURVE",
"483 800 OFFCURVE",
"397 800 CURVE SMOOTH",
"225 800 LINE",
"225 737 LINE",
"396 737 LINE SMOOTH",
"448 737 OFFCURVE",
"490 705 OFFCURVE",
"532 673 CURVE",
"195 589 OFFCURVE",
"80 472 OFFCURVE",
"80 327 CURVE SMOOTH",
"80 243 OFFCURVE",
"143 169 OFFCURVE",
"225 158 CURVE",
"225 0 LINE"
);
},
{
closed = 1;
nodes = (
"295 417 LINE",
"909 417 LINE",
"909 63 LINE",
"295 63 LINE"
);
},
{
closed = 1;
nodes = (
"614 620 OFFCURVE",
"628 615 OFFCURVE",
"642 612 CURVE SMOOTH",
"814 572 OFFCURVE",
"916 525 OFFCURVE",
"976 480 CURVE",
"227 480 LINE",
"288 525 OFFCURVE",
"390 572 OFFCURVE",
"562 612 CURVE SMOOTH",
"576 615 OFFCURVE",
"589 620 OFFCURVE",
"602 626 CURVE"
);
},
{
closed = 1;
nodes = (
"979 478 LINE",
"1051 422 OFFCURVE",
"1062 368 OFFCURVE",
"1062 328 CURVE SMOOTH",
"1062 277 OFFCURVE",
"1025 228 OFFCURVE",
"979 216 CURVE"
);
},
{
closed = 1;
nodes = (
"225 216 LINE",
"178 228 OFFCURVE",
"142 277 OFFCURVE",
"142 328 CURVE SMOOTH",
"142 368 OFFCURVE",
"153 422 OFFCURVE",
"225 478 CURVE"
);
}
);
width = 1204;
}
);
unicode = 100BD;
},
{
glyphname = uni100BE;
lastChange = "2019-08-21 19:20:35 +0000";
layers = (
{
layerId = UUID0;
paths = (
{
closed = 1;
nodes = (
"610 566 LINE",
"380 566 LINE",
"380 632 LINE",
"518 776 LINE",
"473 820 LINE",
"341 683 LINE",
"209 820 LINE",
"164 776 LINE",
"310 624 LINE",
"310 566 LINE",
"80 566 LINE",
"80 478 LINE SMOOTH",
"80 323 OFFCURVE",
"139 182 OFFCURVE",
"226 63 CURVE",
"145 63 LINE",
"145 0 LINE",
"545 0 LINE",
"545 63 LINE",
"463 63 LINE",
"550 182 OFFCURVE",
"610 323 OFFCURVE",
"610 478 CURVE SMOOTH"
);
},
{
closed = 1;
nodes = (
"310 378 LINE",
"380 378 LINE",
"380 503 LINE",
"536 503 LINE",
"537 493 OFFCURVE",
"537 484 OFFCURVE",
"537 474 CURVE SMOOTH",
"537 327 OFFCURVE",
"486 174 OFFCURVE",
"379 63 CURVE",
"311 63 LINE",
"204 174 OFFCURVE",
"153 327 OFFCURVE",
"153 474 CURVE SMOOTH",
"153 503 LINE",
"310 503 LINE"
);
}
);
width = 690;
}
);
unicode = 100BE;
},
{
glyphname = uni100BF;
lastChange = "2019-08-21 19:20:35 +0000";
layers = (
{
layerId = UUID0;
paths = (
{
closed = 1;
nodes = (
"468 197 LINE",
"512 241 LINE",
"443 304 LINE",
"497 319 OFFCURVE",
"554 326 OFFCURVE",
"614 327 CURVE",
"557 242 OFFCURVE",
"499 111 OFFCURVE",
"462 0 CURVE",
"535 0 LINE",
"594 178 OFFCURVE",
"680 324 OFFCURVE",
"713 336 CURVE",
"742 327 OFFCURVE",
"836 178 OFFCURVE",
"892 0 CURVE",
"963 0 LINE",
"944 58 OFFCURVE",
"920 118 OFFCURVE",
"894 175 CURVE",
"1042 197 OFFCURVE",
"1103 262 OFFCURVE",
"1103 390 CURVE SMOOTH",
"1103 428 OFFCURVE",
"1093 463 OFFCURVE",
"1074 486 CURVE",
"961 479 OFFCURVE",
"833 465 OFFCURVE",
"804 339 CURVE",
"771 386 OFFCURVE",
"739 416 OFFCURVE",
"713 416 CURVE SMOOTH",
"700 416 OFFCURVE",
"686 409 OFFCURVE",
"672 396 CURVE",
"664 397 OFFCURVE",
"637 398 OFFCURVE",
"620 398 CURVE SMOOTH",
"535 398 OFFCURVE",
"457 386 OFFCURVE",
"383 360 CURVE",
"331 409 LINE",
"287 364 LINE",
"319 334 LINE",
"286 319 OFFCURVE",
"254 302 OFFCURVE",
"222 282 CURVE",
"267 227 LINE",
"302 249 OFFCURVE",
"339 267 OFFCURVE",
"376 282 CURVE"
);
},
{
closed = 1;
nodes = (
"223 414 LINE",
"404 458 OFFCURVE",
"720 549 OFFCURVE",
"720 612 CURVE SMOOTH",
"720 675 OFFCURVE",
"404 766 OFFCURVE",
"223 810 CURVE",
"223 744 LINE",
"435 687 OFFCURVE",
"596 641 OFFCURVE",
"640 612 CURVE",
"596 583 OFFCURVE",
"435 537 OFFCURVE",
"223 480 CURVE"
);
},
{
closed = 1;
nodes = (
"1033 280 OFFCURVE",
"943 251 OFFCURVE",
"874 238 CURVE",
"870 262 OFFCURVE",
"868 266 OFFCURVE",
"868 285 CURVE SMOOTH",
"868 393 OFFCURVE",
"967 411 OFFCURVE",
"1028 411 CURVE",
"1031 395 OFFCURVE",
"1033 380 OFFCURVE",
"1033 359 CURVE SMOOTH"
);
},
{
closed = 1;
nodes = (
"110 212 LINE",
"179 212 LINE",
"179 275 LINE",
"110 275 LINE"
);
},
{
closed = 1;
nodes = (
"110 422 LINE",
"179 422 LINE",
"179 485 LINE",
"110 485 LINE"
);
},
{
closed = 1;
nodes = (
"110 0 LINE",
"179 0 LINE",
"179 63 LINE",
"110 63 LINE"
);
},
{
closed = 1;
nodes = (
"110 737 LINE",
"179 737 LINE",
"179 800 LINE",
"110 800 LINE"
);
},
{
closed = 1;
nodes = (
"110 107 LINE",
"179 107 LINE",
"179 170 LINE",
"110 170 LINE"
);
},
{
closed = 1;
nodes = (
"110 632 LINE",
"179 632 LINE",
"179 695 LINE",
"110 695 LINE"
);
},
{
closed = 1;
nodes = (
"110 527 LINE",
"179 527 LINE",
"179 590 LINE",
"110 590 LINE"
);
},
{
closed = 1;
nodes = (
"110 317 LINE",
"179 317 LINE",
"179 380 LINE",
"110 380 LINE"
);
}
);
width = 1163;
}
);
unicode = 100BF;
},
{
glyphname = uni100C0;
lastChange = "2019-08-21 19:20:35 +0000";
layers = (
{
layerId = UUID0;
paths = (
{
closed = 1;
nodes = (
"860 800 LINE",
"860 676 LINE",
"360 676 LINE",
"360 800 LINE",
"150 800 LINE",
"150 485 LINE",
"220 485 LINE",
"220 240 LINE",
"80 240 LINE",
"80 0 LINE",
"430 0 LINE",
"430 240 LINE",
"290 240 LINE",
"290 485 LINE",
"860 485 LINE",
"860 240 LINE",
"720 240 LINE",
"720 0 LINE",
"1210 0 LINE",
"1210 240 LINE",
"1070 240 LINE",
"1070 800 LINE"
);
},
{
closed = 1;
nodes = (
"360 613 LINE",
"860 613 LINE",
"860 548 LINE",
"360 548 LINE"
);
},
{
closed = 1;
nodes = (
"930 613 LINE",
"1000 613 LINE",
"1000 240 LINE",
"930 240 LINE"
);
},
{
closed = 1;
nodes = (
"1070 177 LINE",
"1140 177 LINE",
"1140 63 LINE",
"1070 63 LINE"
);
},
{
closed = 1;
nodes = (
"150 177 LINE",
"220 177 LINE",
"220 63 LINE",
"150 63 LINE"
);
},
{
closed = 1;
nodes = (
"290 177 LINE",
"360 177 LINE",
"360 63 LINE",
"290 63 LINE"
);
},
{
closed = 1;
nodes = (
"790 177 LINE",
"860 177 LINE",
"860 63 LINE",
"790 63 LINE"
);
},
{
closed = 1;
nodes = (
"930 177 LINE",
"1000 177 LINE",
"1000 63 LINE",
"930 63 LINE"
);
},
{
closed = 1;
nodes = (
"220 613 LINE",
"290 613 LINE",
"290 548 LINE",
"220 548 LINE"
);
},
{
closed = 1;
nodes = (
"930 737 LINE",
"1000 737 LINE",
"1000 676 LINE",
"930 676 LINE"
);
},
{
closed = 1;
nodes = (
"220 737 LINE",
"290 737 LINE",
"290 676 LINE",
"220 676 LINE"
);
}
);
width = 1290;
}
);
unicode = 100C0;
},
{
glyphname = uni100C1;
lastChange = "2019-08-21 19:20:35 +0000";
layers = (
{
layerId = UUID0;
paths = (
{
closed = 1;
nodes = (
"110 0 LINE",
"810 0 LINE",
"810 800 LINE",
"110 800 LINE"
);
},
{
closed = 1;
nodes = (
"740 737 LINE",
"740 63 LINE",
"180 63 LINE",
"180 737 LINE"
);
},
{
closed = 1;
nodes = (
"700 552 LINE",
"663 529 OFFCURVE",
"610 513 OFFCURVE",
"555 505 CURVE",
"561 520 OFFCURVE",
"564 538 OFFCURVE",
"564 557 CURVE SMOOTH",
"564 631 OFFCURVE",
"518 678 OFFCURVE",
"459 678 CURVE SMOOTH",
"401 678 OFFCURVE",
"356 631 OFFCURVE",
"356 557 CURVE SMOOTH",
"356 538 OFFCURVE",
"359 520 OFFCURVE",
"364 505 CURVE",
"309 513 OFFCURVE",
"257 529 OFFCURVE",
"220 552 CURVE",
"220 483 LINE",
"230 475 OFFCURVE",
"242 468 OFFCURVE",
"255 463 CURVE",
"255 361 LINE",
"315 361 LINE",
"315 444 LINE",
"356 436 OFFCURVE",
"403 433 OFFCURVE",
"452 433 CURVE",
"398 420 OFFCURVE",
"328 288 OFFCURVE",
"282 150 CURVE",
"345 150 LINE",
"386 264 OFFCURVE",
"437 355 OFFCURVE",
"461 364 CURVE",
"482 358 OFFCURVE",
"528 263 OFFCURVE",
"570 150 CURVE",
"638 150 LINE",
"590 291 OFFCURVE",
"523 420 OFFCURVE",
"469 433 CURVE",
"517 433 OFFCURVE",
"564 436 OFFCURVE",
"605 444 CURVE",
"605 361 LINE",
"665 361 LINE",
"665 463 LINE",
"678 468 OFFCURVE",
"690 475 OFFCURVE",
"700 483 CURVE"
);
},
{
closed = 1;
nodes = (
"427 283 LINE",
"427 147 LINE",
"487 147 LINE",
"487 283 LINE"
);
},
{
closed = 1;
nodes = (
"418 593 OFFCURVE",
"432 615 OFFCURVE",
"459 615 CURVE SMOOTH",
"486 615 OFFCURVE",
"500 593 OFFCURVE",
"500 557 CURVE SMOOTH",
"500 520 OFFCURVE",
"486 499 OFFCURVE",
"459 499 CURVE SMOOTH",
"432 499 OFFCURVE",
"418 520 OFFCURVE",
"418 557 CURVE SMOOTH"
);
}
);
width = 920;
}
);
unicode = 100C1;
},
